<svg width="227" height="28" fill="none" xmlns="http://www.w3.org/2000/svg"><path d="M34.599 7.718c-.182-.092-.364-.184-.637-.184-.091.0-.182-.091-.273-.091-2.64-.642-5.096-.917-7.645-.734-3.913.183-7.371 1.65-9.92 2.935-.545.183-1 .55-1.546.825-.546.367-1.092.734-1.638.917h-.091c0-.55.364-1.1.637-1.559.182-.275.364-.458.455-.734.182-.366.364-.917.273-1.283.0-.367-.182-.826-.455-1.101-.364-.55-.82-.917-1.365-1.284-.546-.367-1.092-.55-1.639-.825-.364-.184-.637-.275-1-.459-.365-.183-.82-.55-1.184-.825-.364-.275-.819-.55-1.274-.826-.455-.275-.819-.55-1.274-.733-.364-.184-.728-.459-1.183-.642L4.294.84C4.021.748 3.384.473 3.111.748a.28.28.0 000 .367c.182.275.82.366 1.092.458.455.184.82.55 1.183.826.182.091.455.275.546.366.637.734 1.001 1.651 1.274 2.843.182 2.66.091 3.027.0 3.669.0.183-.09.458-.09.825.0.459-.274 1.56-.638 2.935-.182.734-.364 1.56-.637 2.293-.455 1.742-.728 3.393-.819 5.136-.182 2.017.728 3.485 1.456 4.585.637.917 1.456 1.926 2.457 2.385h.546c.455-.092.546-.276.182-.642-.819-.734-1.638-1.651-2.184-2.66l-.546-1.1c0-.092.0-.276-.09-.367-.183-.734-.547-2.018.09-4.678.091-.642.637-3.21.728-3.485v-.091c0-.184.182-.734.273-1.193.091-.458.273-.917.273-1.1.091-.367.182-.642.182-1.009v-.275c0-.183.0-.367.091-.459.0.0.546-3.576-.455-6.236.637.642 1.365 1.1 2.367 1.467 1 .459 2.093 1.101 2.002 2.11-.182.458-.364.917-.637 1.375-.273.55-.546 1.101-.729 1.743-.09.825.183 1.467.729 1.834.0.0.09.0.09.092.183.092.547.367 1.457.183.91-.183 1.729-.733 2.548-1.284.364-.183.637-.458 1-.642.092-.091 2.094-1.284 4.915-2.109a16.828 16.828.0 014.277-.825h.273c.546.0 1.093-.092 1.73-.092h.819c.728.092 2.275.0 3.549.0.91.0 1.729-.092 2.002.0l.637.092-.455-.367z" fill="#020203"/><path d="M15.852 7.626c.182.092.455.184.637.184.364.0.819-.367 1.092-.642l.09-.092c.183-.184.274-.367.365-.642.09-.183.182-.55.364-.642v.092c-.091.55.091.825.364 1.192s.728.275 1.001.183l.546-.275c.364-.183.728-.367 1.092-.642.182-.091 1.183-.825.82-1.009-.183-.091-.638.092-.82.184-.182.092-.455.092-.637.183-.182.0-.273.092-.455.092-.182.092-.364.092-.546.092.0-.367.091-.734.273-1.193.091-.366.273-.825-.091-1.192-.182-.183-.637-.275-.91-.092-.728.459-1.638 1.01-2.457 1.835.273-.917.728-1.835 1.274-2.66.182-.275.455-.642.182-.917l-.182-.092h-.364c-.546.55-.91 1.193-1.274 1.834l-.091.184c-.546 1.1-1.365 2.843-.273 4.035zm-4.459-.458c.09-.276.09-.55-.091-.826-.182-.091-.455-.275-.729-.275-.546-.092-.637.734-.455 1.1.091.367.364.367.729.367a.98.98.0 00.637-.275l-.091-.091zM5.204 13.312c-.546-.458-1.365-.55-2.184-.458-.182.091-.364.091-.637.183-.091.0-.182.092-.273.092.091.0.273-.275.364-.275l.364-.367c.364-.275.637-.55 1.001-.917.182-.092.273-.275.455-.459.182-.091.273-.275.364-.367.273-.275.455-.55.728-.733.182-.275.364-.642.273-1.01-.09-.274-.364-.274-.546-.366h-.182c-1.365-.092-2.73.367-4.277 1.284l-.091.092c-.182.183-.455.367-.455.642.182.367.637.091.819.0.637-.367 1.365-.642 2.093-.917.364-.184.82-.276 1.183-.367-.182.0-.455.367-.546.458-.182.184-.364.275-.546.459-.364.275-.728.642-1.092 1.009-.637.55-1.365 1.284-1.73 2.017-.181.367-.363 1.284.183 1.468.364.183.91.0 1.274-.184.455-.183.91-.367 1.456-.55.455-.183.91-.275 1.365-.275.0.091.091.183.0.275-.182.55-.455 1.1-.819 1.65-.182.276-.364.551-.546.734-.09.092-.546.459-.273.55h.273c.364-.091.728-.55 1.001-.916.364-.367.637-.826.91-1.284.182-.184.455-1.01.091-1.468zM23.86 11.661c-.273.0-.455.184-.637.276-.182.183-.09.458-.09.55.181 1.742.454 2.11.545 2.2.273.368.91 1.01 1.092 1.101-1.183.0-5.369-.091-5.46-.091-.546.0-.819.183-1.001.367-.182.183-.091.366-.091.366v1.1c0 .643.455.826.455.826 3.822 1.743 6.552 4.127 6.643 4.127l.273.275-.09-.366c-.456-1.926-2.913-3.577-3.64-4.127.545-.092 1.637-.092 2.092-.092 1.183.092 2.73.0 2.73.0.456.0.729-.092.91-.367.182-.183.091-.459.091-.459-.272-1.192-.545-1.559-.545-1.559-.364-.55-1.548-1.834-1.548-1.925-.09-.092-.09-.184-.09-.184h.181c2.549.0 4.278-.642 4.369-.642.546-.275.819-.275.819-.275h.364l-.364-.184c-2.457-1.283-6.826-.917-7.008-.917zM157.456 9.736v11.738h-2.093v-6.878l.091-1.559h-.091l-1.365 3.302h-1.638l-1.365-3.302h-.091l.091 1.56v6.97h-2.093V9.735h2.366l1.82 4.31h.091l1.82-4.31h2.457zM166.375 9.736v1.925h-4.187v2.66h3.823v2.11h-3.823v3.21h4.278v1.925h-6.371V9.736h6.28zm-4.278-.918 2.002-2.568h2.549l-2.64 2.568h-1.911zM167.831 9.736h6.916v1.925h-2.366v9.813h-2.093v-9.72h-2.457V9.735zm11.557 7.795h-.91v4.035h-2.093V9.736h3.458c1.639.0 3.004 1.284 3.004 2.843v2.109c0 1.009-.546 1.926-1.365 2.384l1.911 4.402h-2.275l-1.73-3.943zm1.365-4.952a.819.819.0 00-.819-.826h-1.274v3.852h1.274a.819.819.0 00.819-.825v-2.201zm11.831 5.869c0 1.834-1.547 3.302-3.458 3.302h-.273c-1.911.0-3.458-1.56-3.458-3.302v-5.503c0-1.834 1.547-3.301 3.458-3.301h.273c1.911.0 3.458 1.467 3.458 3.301v5.503zm-2.093-5.594c0-.734-.637-1.193-1.365-1.193h-.182c-.728.0-1.365.55-1.365 1.193v5.686c0 .733.637 1.284 1.365 1.284h.182c.728.0 1.365-.55 1.365-1.193v-5.777zM195.041 9.736h3.459c1.638.0 3.003 1.284 3.003 2.843v2.292c0 1.651-1.274 2.843-3.003 2.843h-1.275v3.852h-2.093V9.736h-.091zm4.278 2.843c0-.459-.364-.826-.91-.826h-1.275v4.036h1.275c.455.0.91-.367.91-.734v-2.476zm11.284 5.869c0 1.834-1.547 3.302-3.458 3.302h-.182c-1.911.0-3.458-1.56-3.458-3.302v-5.503c0-1.834 1.547-3.301 3.458-3.301h.273c1.911.0 3.458 1.467 3.458 3.301v5.503h-.091zm-2.093-5.594c0-.734-.637-1.193-1.365-1.193h-.182c-.728.0-1.365.55-1.365 1.193v5.686c0 .733.637 1.284 1.365 1.284h.182c.728.0 1.365-.55 1.365-1.193v-5.777zM215.244 9.736v9.813h3.641v1.925h-5.734V9.736h2.093zm11.649.0v1.925h-4.186v2.66h3.822v2.11h-3.822v3.21h4.277v1.925h-6.37V9.736h6.279zM45.338 18.448c0 1.834-1.547 3.302-3.459 3.302h-.273c-1.91.0-3.458-1.56-3.458-3.302v-5.503c0-1.834 1.547-3.301 3.458-3.301h.273c1.912.0 3.459 1.375 3.459 3.485h-2.184c0-.917-.638-1.468-1.366-1.468h-.182c-.728.0-1.365.55-1.365 1.193v5.686c0 .733.637 1.284 1.365 1.284h.182c.729.0 1.366-.55 1.366-1.193v-1.375h-1.457V15.33h3.55v3.118h.09zM50.707 17.53h-.91v4.036h-2.093V9.736h3.458c1.638.0 3.003 1.284 3.003 2.843v2.109c0 1.009-.546 1.926-1.365 2.384l1.911 4.402h-2.275l-1.73-3.943zm1.274-5.043a.819.819.0 00-.82-.826h-1.273v3.852h1.274c.455.0.819-.367.819-.825v-2.201zM63.175 9.736v1.925h-4.187v2.66h3.823v1.926h-3.823v3.21h4.278v1.926h-6.37V9.736h6.279zm9.282.0v11.738h-2.184L68.09 15.88l-.637-1.926h-.091l.09 1.926v5.594H65.36V9.736h2.184l2.184 5.594.637 1.926h.091l-.09-1.926V9.736h2.092zM82.104 18.448c0 1.834-1.547 3.302-3.458 3.302h-.273c-1.912.0-3.459-1.56-3.459-3.302v-5.503c0-1.834 1.547-3.301 3.459-3.301h.273c1.91.0 3.458 1.467 3.458 3.301v5.503zm-2.093-5.686c0-.734-.637-1.192-1.365-1.192h-.182c-.728.0-1.365.55-1.365 1.192v5.686c0 .734.636 1.284 1.365 1.284h.182c.728.0 1.365-.55 1.365-1.192v-5.778zm10.92-.275v1.009c0 .733-.364 1.375-.728 1.834.546.55.91 1.192.91 2.018v1.284c0 1.742-1.547 2.934-3.185 2.934h-3.276V9.736h3.367c1.638.0 2.912 1.284 2.912 2.75zm-4.186-.734v2.66h1.183c.546.0.91-.367.91-.826V12.58c0-.459-.455-.826-.91-.826h-1.183zm0 7.796h1.183c.637.0 1.092-.459 1.092-1.01v-1.192c0-.366-.273-1.008-1.092-1.008h-1.183v3.21zM95.573 9.736v9.813h3.64v1.925h-5.734V9.736h2.094zm11.648.0v1.925h-4.186v2.66h3.822v1.926h-3.822v3.21h4.277v1.926h-6.37V9.736h6.279zM112.681 9.736l-2.093 7.153v4.769h1.274v-3.944h3.732v3.944h1.274v-4.77l-2.093-7.244h-2.094v.091zm1.184 1.284 1.547 5.594h-3.459l1.548-5.595h.364zm6.37-1.284h-1.274V21.75h5.005v-1.193h-3.731V9.736zM128.425 9.736h-3.185V21.75h1.274V17.53h1.82a2.651 2.651.0 002.64-2.66v-2.476c.091-1.467-1.093-2.66-2.549-2.66zm-1.82 1.284h1.82c.728.0 1.365.642 1.365 1.375v2.568c0 .734-.637 1.376-1.365 1.376h-1.82v-5.32zM133.886 16.064h3.913V14.78h-3.913v-3.76h4.368V9.736h-5.642V21.75h5.733v-1.193h-4.459v-4.493zM143.259 14.871c-1.092-.642-2.093-1.192-2.093-2.292.0-1.01.819-1.743 1.82-1.743s1.82.734 1.82 1.834v.184h1.274v-.275c0-1.835-1.365-3.119-3.094-3.119-1.729.0-3.094 1.376-3.094 3.119.0 1.925 1.456 2.75 2.639 3.393 1.183.642 2.366 1.284 2.366 2.843.0.917-.819 1.742-1.82 1.742h-.182a1.833 1.833.0 01-1.82-1.834v-.642h-1.274v.642c0 1.743 1.365 3.118 3.094 3.118h.364c1.729.0 3.094-1.375 3.094-3.118-.182-2.2-1.729-3.026-3.094-3.852z" fill="#020203"/></svg>