<svg width="62" height="62" fill="none" xmlns="http://www.w3.org/2000/svg"><path d="M62 31c0 17.112-13.888 31-31 31C13.888 62 0 48.112 0 31 0 13.888 13.888 0 31 0c17.112 0 31 13.888 31 31z" fill="#fff"/><path d="M31 62C13.923 62 0 48.112 0 31 0 13.888 13.923 0 31 0c17.077 0 31 13.923 31 31 0 17.077-13.888 31-31 31zm0-60.285C14.849 1.715 1.715 14.848 1.715 31c0 16.151 13.133 29.285 29.285 29.285 16.151 0 29.285-13.133 29.285-29.285C60.32 14.849 47.152 1.715 31 1.715z" fill="#2FAC66"/><path d="M31 46.774c-8.71 0-15.774-7.064-15.774-15.774 0-8.71 7.064-15.774 15.774-15.774 8.71 0 15.774 7.064 15.774 15.774 0 8.71-7.064 15.774-15.774 15.774zm0-30.931c-8.367 0-15.157 6.79-15.157 15.157S22.633 46.157 31 46.157 46.157 39.367 46.157 31c0-8.333-6.79-15.157-15.157-15.157z" fill="#2FAC66"/><path d="m46.486 27.461-5.195 8.998 4.87 2.812 5.195-8.998-4.87-2.812z" fill="#E20E18"/><path d="m41.617 24.649-5.196 8.998 4.87 2.812 5.195-8.998-4.87-2.812z" fill="#fff"/><path d="m36.746 21.835-5.195 8.999 4.87 2.812 5.196-8.998-4.87-2.813z" fill="#253574"/><path d="m36.932 22.633 13.614 7.853-4.595 7.99-13.614-7.853 4.595-7.99zm-.205-.789-5.178 8.984 14.608 8.436 5.178-8.984-14.608-8.436z" fill="#253574"/><path d="m37.488 21.508-.564-.326L26.6 39.06l.564.326 10.324-17.878zM25.28 21.779l-14.61 8.436 5.195 8.998 14.611-8.436-5.195-8.998z" fill="#253574"/><path d="m22.118 34.018.172-.377.411.034-.308-.275.206-.377-.378.206-.308-.274.068.411-.343.206.412.034.068.412zM18.826 28.154l.206-.377.412.034-.309-.274.171-.378-.377.206-.308-.274.102.411-.377.206.412.034.068.412zM17.42 32.818l.172-.378.446.035-.309-.275.206-.377-.377.206-.343-.275.102.412-.377.206.412.034.068.412zM23.524 29.285l.172-.377.411.034-.308-.274.205-.377-.377.206-.308-.275.068.412-.377.24h.412l.102.411zM20.61 27.674l.205-.412.412.069-.309-.309.172-.377-.343.24-.343-.274.068.411-.343.206.412.034.069.412zM22.324 28.12l.172-.378.411.035-.308-.275.205-.377-.377.206-.309-.275.069.412-.377.206.411.034.103.412zM23.867 30.966l.172-.378.411.035-.308-.275.205-.377-.377.206-.308-.274.068.411-.377.24h.411l.103.412zM23.387 32.715l.172-.412.411.069-.308-.309.205-.377-.377.206-.309-.24.069.411-.377.206.411.034.103.412zM20.438 34.395l.172-.377.445.034-.343-.274.206-.378-.377.206-.309-.274.069.411-.377.206.411.034.103.412zM18.758 33.915l.206-.377.411.034-.309-.274.172-.378-.343.206-.343-.274.103.411-.377.206.411.034.069.412zM16.975 31.206l.171-.378.446.035-.309-.309.172-.377-.343.24-.343-.274.068.411-.343.206.412.034.069.412zM17.42 29.525l.172-.377.411.035-.308-.275.205-.377-.377.206-.343-.275.103.412-.377.206.412.034.102.411z" fill="#FFE044"/><path d="M35.402 39.06 25.08 21.183l-.564.325 10.322 17.878.564-.326z" fill="#253574"/><path d="m7.647 19.752 2.23-3.875 1.096.652-1.44 2.537 1.578.892 1.234-2.16 1.132.651-1.235 2.126 2.812 1.646-.754 1.338-6.653-3.807zM12.482 12.757l1.784-1.51c1.303-1.062 2.64-1.062 3.566 0 .583.72.686 1.544.308 2.298l4.013 1.063-1.406 1.166-3.567-1.063-.617.515 1.989 2.366-1.2.994-4.87-5.83zm2.024 0 1.268 1.508.686-.548c.515-.412.549-.96.137-1.44-.377-.446-.926-.515-1.406-.069l-.686.549zM23.524 6.241l1.955-.514 4.732 6.687-1.611.411-1.2-1.749-2.95.789-.206 2.126-1.611.377.891-8.127zm3.087 3.67-1.75-2.504-.274 3.052 2.024-.549zM32.852 4.972l1.954.412 2.23 6.104 1.131-5.418 1.509.343-1.543 7.475-1.955-.411-2.229-6.104-1.131 5.418-1.51-.309 1.544-7.51zM45.643 16.46l.377 1.509c-1.132.309-2.4.103-3.498-.754-1.886-1.51-2.057-3.978-.686-5.693 1.338-1.714 3.807-2.16 5.693-.651 1.097.857 1.611 2.057 1.577 3.223h-1.543a2.426 2.426 0 0 0-.926-2.057c-1.132-.892-2.64-.652-3.532.514-.891 1.166-.789 2.675.343 3.566a2.636 2.636 0 0 0 2.195.343zM52.535 16.494l2.16 3.91-1.13.617-1.407-2.538-1.611.858 1.2 2.16-1.132.652-1.2-2.16-1.715.925 1.406 2.572-1.131.617-2.16-3.909 6.72-3.704zM13.271 36.795l1.029 2.092c.754 1.509.446 2.812-.823 3.464-.823.411-1.646.308-2.332-.24L9.19 45.78l-.823-1.646 1.852-3.224-.343-.72-2.778 1.372-.685-1.406 6.858-3.36zm-.48 1.99-1.783.89.377.79c.309.583.789.754 1.372.48.514-.275.686-.789.411-1.372l-.377-.789zM16.7 42.865l3.19 3.086-.892.926-2.092-2.023-1.234 1.337 1.748 1.715-.891.926-1.783-1.715-1.338 1.406 2.092 2.023-.926.926-3.189-3.086 5.315-5.521zM21.261 46.809l1.372.651-2.71 5.624 2.607 1.269-.617 1.269-4.013-1.955 3.361-6.858zM28.497 49.312l2.023.171 2.263 7.888-1.646-.138-.583-2.057-3.052-.24-.891 1.92-1.646-.137 3.532-7.407zm1.714 4.527-.823-2.95-1.269 2.778 2.092.172zM34.052 49.552l1.886-.686 5.11 4.012-1.92-5.178 1.474-.549 2.64 7.202-1.886.686-5.11-4.047 1.887 5.213-1.44.548-2.641-7.201zM49.586 46.123l1.543-.206c.172 1.166-.205 2.4-1.165 3.395-1.715 1.715-4.184 1.543-5.727 0-1.543-1.543-1.68-4.046.034-5.727.995-.994 2.229-1.337 3.395-1.166l-.206 1.543c-.754-.137-1.543.035-2.16.652-1.029 1.029-.96 2.538.068 3.566 1.03 1.03 2.572 1.098 3.567.103.617-.617.788-1.406.651-2.16zM46.98 40.499l1.852-4.08 1.166.514-1.2 2.674 1.646.755 1.028-2.264 1.166.515-.994 2.263 1.783.823 1.2-2.675 1.166.549-1.817 4.046-6.996-3.12z" fill="#2FAC66"/></svg>