<svg width="229" height="152" fill="none" xmlns="http://www.w3.org/2000/svg"><path d="M146.36 26.65v81.86h81.86V26.65h-81.86z" fill="#FFEC44"/><path d="M149.86 1c-.82 0-1.46.23-1.91.67-.53.53-.78 1.36-.78 2.54 0 1.44.29 3.34 2.71 3.34.83 0 1.47-.23 1.92-.67.55-.55.8-1.4.79-2.67 0-2.13-.93-3.21-2.74-3.21h.01zm1.27 3.21c0 .95-.12 1.5-.41 1.79-.19.19-.46.28-.84.28-.93 0-1.24-.52-1.25-2.07 0-.87.12-1.37.39-1.65.19-.19.46-.28.84-.28.93 0 1.26.5 1.27 1.92v.01zM159.45 3.14c0-1.28-.87-2.01-2.38-2.01h-2.19l.02 6.3h1.44v-2.3h.39s.03.08.06.12l1.43 2.18h1.73L158.3 4.9c.75-.31 1.15-.91 1.15-1.76zm-1.46 0c0 .22-.05.39-.17.51-.15.15-.39.22-.74.22h-.75V2.39h.74c.81 0 .92.4.92.75zM164.22 2.29c.65 0 1.07.32 1.14.87l.02.15h1.32v-.18c-.09-1.03-.78-2.12-2.49-2.12-.84 0-1.49.24-1.96.7-.54.55-.82 1.41-.81 2.58 0 2.17.95 3.28 2.79 3.28.88 0 1.67-.3 2.4-.92l.06-.05V3.83h-2.85l.34 1.26h1.06v.95c-.25.15-.66.25-1.02.25-.95 0-1.33-.56-1.33-2.02 0-.88.12-1.4.41-1.69.2-.2.5-.3.9-.3l.02.01zM170.97 1.13l-2.26 6.3h1.51l.51-1.51h1.85l.52 1.51h1.53l-2.29-6.3h-1.37zm.19 3.52.49-1.44.49 1.44h-.99.01zM180.46 1.13l.02 3.6-2.61-3.53-.05-.07h-1.2l.02 6.3h1.44l-.01-3.6 2.61 3.53.05.07h1.2l-.02-6.3h-1.45zM184.37 1.13l.02 6.3h1.44l-.02-6.3h-1.44zM191.1 3.52l-1.18-.19c-.34-.06-.42-.14-.42-.46 0-.16.04-.29.13-.38.14-.14.4-.21.77-.21.53 0 .84.15 1.09.52l.08.12 1.21-.63-.1-.15c-.36-.57-.91-1.15-2.29-1.15-.79 0-1.43.22-1.83.62-.33.33-.5.76-.49 1.25 0 1.08.51 1.68 1.56 1.85l1.22.2c.5.08.57.34.57.59 0 .23-.06.4-.17.52-.16.16-.46.25-.87.25-.48 0-.86-.21-1.15-.63l-.08-.12-1.21.63.1.15c.34.54.95 1.25 2.35 1.25.88 0 1.54-.22 1.97-.65.35-.35.53-.83.53-1.41 0-1.12-.62-1.8-1.77-1.98l-.02.01zM196.59 1.13l-2.26 6.3h1.51l.51-1.51h1.85l.52 1.51h1.53l-2.29-6.3h-1.37zm.19 3.52.49-1.44.49 1.44h-.99.01zM205.94 1.13h-4.86v1.26h1.71l.02 5.04h1.45l-.02-5.04h1.71l-.01-1.26zM209.61 6.17V4.75h2.3l.36-1.26h-2.67v-1.1h2.86V1.13h-4.31l.03 6.3h4.31l-.01-1.26h-2.87zM218.4 1.13v3.65c.01.58-.1.98-.33 1.22-.19.19-.46.28-.84.28-.83 0-1.17-.43-1.18-1.49V1.13h-1.46v3.65c.02 1.79.95 2.78 2.64 2.78.81 0 1.46-.23 1.91-.69.48-.48.72-1.18.71-2.1V1.13h-1.46.01zM225.69 4.9c.75-.31 1.15-.91 1.15-1.76 0-1.28-.87-2.01-2.38-2.01h-2.19l.02 6.3h1.44v-2.3h.39s.03.08.06.12l1.43 2.18h1.73l-1.65-2.53zm-.31-1.76c0 .22-.05.39-.17.51-.15.15-.39.22-.74.22h-.75V2.39h.74c.81 0 .92.4.92.75z" fill="#fff"/><path d="M208.72 77.23h1.17c.92 0 1.67-.75 1.67-1.68v-1.58c0-.92-.75-1.67-1.67-1.67h-2v7.58h.83v-2.66.01zm0-4.11h1.14c.47 0 .87.4.87.87v1.6c0 .47-.39.85-.87.85h-1.14v-3.32zM185.86 48.74c.19.08.4.16.61.16.4 0 .74-.27 1.01-.55l.09-.09c.17-.17.28-.38.39-.6.08-.17.17-.33.25-.49.04-.09.13-.21.17-.33v.04c-.03.09-.05.17-.06.24-.08.49.11.78.36 1.09.39.45 1.07.1 1.49-.1.3-.14.59-.29.87-.46.34-.22.73-.48.96-.82l.03-.05c-.1-.1-.1-.11-.23-.08-.21.05-.43.08-.64.14-.2.05-.42.11-.63.15-.14.03-.28.07-.42.1-.15.04-.29.08-.44.11-.08.02-.12.04-.15-.02-.02-.05.01-.17.02-.22.03-.31.11-.6.2-.9.09-.34.29-.79-.06-1.05-.21-.15-.57-.22-.8-.08-.71.43-1.62 1.02-2.42 1.86.03-.03.03-.17.05-.22.04-.13.05-.26.09-.38.04-.12.1-.23.14-.35.09-.23.21-.45.32-.67.18-.36.4-.7.62-1.05.1-.17.47-.66.17-.81l-.16-.08a.47.47 0 0 0-.26.02l-.03.02c-.51.52-.87 1.14-1.23 1.75l-.12.21c-.45.94-1.2 2.51-.19 3.54l.02.02-.02-.05z" fill="#1D1D1B"/><path d="M174.37 42.98c.45.15.92.26 1.29.57.32.24.69.45.98.72l.11.11c.68.65.98 1.71 1.13 2.61.16 2.53.1 2.9.01 3.45-.03.2-.07.43-.1.81.02.4-.26 1.44-.61 2.75-.55 2.07-1.31 4.91-1.36 7.03-.14 1.86.66 3.28 1.38 4.31.35.51.72 1 1.16 1.43.22.21.45.4.7.56.27.17.54.32.87.28.21-.03.52-.17.25-.38-.07-.05-.15-.09-.22-.15-.2-.15-.35-.34-.51-.52-.18-.2-.36-.39-.53-.6-.35-.43-.71-.9-.98-1.39-.22-.41-.46-.86-.55-1.32-.09-.43-.19-.87-.23-1.31-.11-1.08.04-2.18.28-3.24.09-.4.15-.81.23-1.21.18-.89.39-1.77.61-2.65.05-.22.11-.44.17-.65.12-.46.24-.89.25-1.05.11-.33.15-.61.18-.95 0-.06.02-.14.02-.22.01-.15.02-.32.06-.46 0-.03.54-3.43-.44-6 .02 0 .04.02.05.03.03.02.06.04.1.06.6.57 1.32 1.02 2.25 1.41.99.47 1.98 1.08 1.91 2.05-.16.45-.39.88-.61 1.3-.27.5-.55 1.03-.71 1.61-.05.76.16 1.32.65 1.67h.02s.07.05.12.08c.19.12.47.31 1.31.16.84-.17 1.62-.7 2.38-1.21.3-.2.62-.41.93-.59h.01c.08-.09 1.98-1.25 4.66-2.03.46-.15 2.38-.55 2.93-.63.11.02.22 0 .32-.02.08-.02.16-.03.26-.02.21-.04.37-.05.58-.07.07 0 .14 0 .22-.02.55-.03 1.08-.05 1.61-.07l.76-.03c.71.05 2.13 0 3.38-.04.9-.03 1.68-.06 1.92-.04l.38.03-.34-.17a2.88 2.88 0 0 0-.56-.2c-.08-.02-.15-.04-.23-.07-2.47-.62-4.85-.84-7.28-.66-3.7.16-6.95 1.57-9.37 2.78-.5.2-.97.51-1.42.81-.51.33-1.03.68-1.6.87-.04 0-.08.01-.12.02-.07.02-.08 0-.08-.07 0-.17.06-.3.13-.45.06-.14.13-.27.18-.41.08-.21.19-.4.3-.6.09-.16.15-.31.22-.47.16-.35.29-.7.41-1.07.13-.38-.03-.84-.21-1.18-.18-.35-.45-.61-.72-.88-.2-.2-.43-.38-.67-.54-.47-.32-.99-.55-1.51-.79-.32-.14-.64-.29-.94-.45-.28-.15-.54-.39-.8-.57-.28-.2-.56-.39-.84-.58-.6-.4-1.2-.79-1.83-1.14-.29-.16-.55-.35-.83-.52-.29-.17-.61-.27-.93-.37-.28-.09-.84-.26-1.08 0-.1.11-.01.28.08.37.11.1.29.14.43.18h.03z" fill="#1D1D1B"/><path d="M181.56 48.39c.04-.25.09-.52-.09-.75l-.02-.02c-.19-.1-.42-.21-.68-.21-.27-.04-.41.19-.44.42-.04.22-.03.54.11.74.12.18.36.18.56.18.23 0 .44-.05.55-.25l.02-.09-.01-.02zM178.88 72.34h-.17c-1.19 0-2.15.93-2.15 2.04v3.41c0 1.11.96 2.05 2.15 2.05h.17c1.19 0 2.14-.93 2.14-2.04v-3.42c0-1.11-.95-2.04-2.14-2.04zm.82 5.52c0 .43-.4.76-.85.76h-.1c-.46 0-.85-.34-.85-.77v-3.53c0-.43.4-.76.85-.76h.11c.46 0 .84.33.84.76v3.54zM171.21 55.51c.24.06.42.03.66-.03.24-.06.47-.16.69-.25.42-.17.87-.25 1.3-.41.35-.13.78-.32 1.15-.21.12.04.11.22.08.31-.16.53-.43 1.03-.74 1.48-.16.24-.34.47-.52.7-.08.1-.48.47-.42.57.09.14.31 0 .41-.06.16-.08.3-.17.43-.29.27-.24.49-.53.7-.82.17-.24.32-.5.52-.74.12-.15.21-.37.3-.55.08-.16.1-.34.07-.51-.06-.34-.3-.65-.61-.79-.47-.22-1.06-.21-1.56-.13-.19.04-.38.11-.56.17-.16.05-.32.11-.49.15.19-.17.4-.34.6-.51.09-.07.17-.15.25-.23.09-.09.18-.19.29-.28.21-.19.42-.37.63-.56.13-.12.27-.24.4-.41.14-.1.25-.23.36-.35.35-.39 1.15-1 .9-1.62-.28-.68-1.75-.34-2.26-.21-.85.22-1.65.61-2.4 1.06l-.09.06c-.19.13-.65.58-.3.77.14.07.26.06.4 0 .13-.06.25-.12.39-.18.36-.17.72-.34 1.08-.52.34-.17.67-.3 1.04-.43.33-.12.67-.21 1.02-.23-.75.53-1.46 1.11-2.12 1.74-.32.3-.63.62-.92.95-.19.21-.37.42-.54.64-.19.25-.4.45-.51.75-.06.16-.02.41.03.57.05.16.15.32.32.36l.02.04zM171.94 76.29l-.07-1.21h.04l.38 1.16 1.35 3.49h1.37v-7.29h-1.3v3.44l.08 1.22h-.04l-.39-1.21-1.34-3.45h-1.37v7.29h1.29v-3.44zM155.8 73.57h.1c.47 0 .85.36.85.93h1.32c0-1.28-.94-2.16-2.14-2.16h-.17c-1.19 0-2.16.93-2.16 2.04v3.41c0 1.11.97 2.05 2.16 2.05h.17c1.2 0 2.14-.93 2.14-2.04v-2h-2.23v1.21h.91v.85c0 .43-.39.76-.85.76h-.1c-.47 0-.85-.34-.85-.77v-3.52c0-.43.39-.76.85-.76zM162.75 76.99c.51-.31.85-.89.85-1.49v-1.3c0-.98-.82-1.76-1.85-1.76h-2.16v7.29h1.31v-2.48h.54l1.06 2.48h1.44l-1.2-2.74h.01zm-.49-1.45c0 .27-.24.49-.53.49h-.82v-2.37h.82c.29 0 .53.22.53.49v1.4-.01zM165.79 85.96h-.04l-1.15-2.69h-1.47v7.29h1.29v-4.33l-.07-.94h.04l.86 2.06h1.04l.85-2.06h.04l-.07.94v4.33h1.29v-7.29h-1.47l-1.14 2.69zM166.61 76.54h2.38v-1.22h-2.38v-1.66h2.61v-1.22h-3.92v7.29h4v-1.22h-2.69v-1.97zM171.38 87.37h2.37v-1.22h-2.37v-1.66h2.6v-1.22h-3.91v7.29h4v-1.21h-2.69v-1.98zM171.28 82.7h1.19l1.65-1.61h-1.61l-1.23 1.61zM174.85 84.49h1.48v6.07h1.33v-6.07h1.49v-1.22h-4.3v1.22zM184.25 86.34v-1.3c0-.98-.82-1.76-1.85-1.76h-2.16v7.29h1.31v-2.48h.54l1.06 2.48h1.44l-1.2-2.74c.51-.31.85-.89.85-1.49h.01zm-1.34.04c0 .27-.24.49-.53.49h-.82V84.5h.82c.29 0 .53.22.53.49v1.4-.01zM186.63 77.91v-.78c0-.5-.23-.92-.54-1.24.26-.31.47-.71.47-1.14v-.6c0-.96-.79-1.71-1.9-1.71h-2.08v7.29h2.05c1.04 0 2-.73 2-1.82zm-2.72-4.25h.76c.32 0 .58.23.58.51v.62c0 .28-.26.51-.58.51h-.76v-1.65.01zm1.38 4.25c0 .32-.28.6-.66.6h-.72v-1.99h.72c.46 0 .66.41.66.61v.78zM188.15 83.17h-.17c-1.19 0-2.15.93-2.15 2.04v3.41c0 1.11.96 2.05 2.15 2.05h.17c1.19 0 2.14-.93 2.14-2.04v-3.42c0-1.11-.95-2.04-2.14-2.04zm.82 5.52c0 .43-.4.76-.85.76h-.1c-.46 0-.85-.34-.85-.77v-3.53c0-.43.4-.76.85-.76h.11c.46 0 .84.33.84.76v3.54zM189.46 72.44h-1.33v7.29h3.61v-1.22h-2.28v-6.07zM194.01 83.27h-2.16v7.29h1.33V88.2h.82c1.03 0 1.85-.77 1.85-1.77v-1.4c0-.98-.82-1.76-1.85-1.76h.01zm.5 3.24c0 .26-.24.48-.54.48h-.78v-2.5h.78c.3 0 .54.22.54.49v1.53zM194.09 76.54h2.38v-1.22h-2.38v-1.66h2.6v-1.22h-3.91v7.29h4v-1.22h-2.69v-1.97zM196.49 56.6c-.36-.49-1.5-1.79-1.51-1.8-.09-.12-.1-.19-.08-.22.02-.04.13-.04.21-.03 2.38 0 4.08-.58 4.1-.58.51-.23.77-.25.77-.25l.23-.02-.2-.11c-2.29-1.3-6.47-.93-6.52-.93-.26.03-.44.13-.55.28-.14.2-.1.44-.09.49.13 1.66.44 2.01.53 2.08.25.37 1 1.04 1.04 1.08.02.02.04.03.05.04-.02 0-.05.02-.08.02-1.1.04-5.14-.13-5.19-.13-.47.02-.79.13-.96.32-.13.14-.12.28-.12.29l.02 1.07c0 .53.41.72.43.73 3.68 1.67 6.26 3.89 6.28 3.91l.17.15-.06-.22c-.48-1.9-2.94-3.52-3.56-3.91.61-.15 2.06-.12 2.07-.12 1.13.11 2.55-.02 2.56-.02.41 0 .7-.11.85-.3.14-.18.1-.38.1-.39-.24-1.08-.5-1.41-.51-1.42l.02-.01zM199.42 83.17h-.17c-1.19 0-2.15.93-2.15 2.04v3.41c0 1.11.96 2.05 2.15 2.05h.17c1.19 0 2.14-.93 2.14-2.04v-3.42c0-1.11-.95-2.04-2.14-2.04zm.82 5.52c0 .43-.4.76-.85.76h-.1c-.46 0-.85-.34-.85-.77v-3.53c0-.43.4-.76.85-.76h.11c.46 0 .84.33.84.76v3.54zM199.89 72.31l-1.33 4.54v3.04h.82V77.4h2.36v2.49h.83v-3l-1.34-4.58h-1.34zm-.43 4.3 1.01-3.51h.18l1.01 3.51h-2.2zM204.44 83.27h-1.32v7.29h3.6v-1.21h-2.28v-6.08zM204.68 72.31h-.84v7.58h3.24v-.79h-2.4v-6.79zM209.07 87.37h2.38v-1.22h-2.38v-1.66h2.61v-1.22h-3.92v7.29h4v-1.21h-2.69v-1.98zM213.39 76.28h2.48v-.79h-2.48V73.1h2.73v-.79h-3.56v7.58h3.65v-.79h-2.82v-2.82zM219.31 75.54c-.7-.39-1.31-.72-1.31-1.43 0-.61.5-1.09 1.14-1.09.64 0 1.14.49 1.17 1.16v.14h.82v-.15c-.02-1.14-.86-1.96-1.99-1.96s-1.97.86-1.97 1.96c0 1.22.9 1.72 1.7 2.16.77.42 1.49.82 1.49 1.79 0 .6-.52 1.09-1.17 1.09h-.14c-.65 0-1.17-.52-1.17-1.18v-.39h-.83v.39c0 1.08.88 1.97 1.97 1.97h.21c1.08 0 1.96-.88 1.96-1.97 0-1.44-1-2-1.89-2.48l.01-.01zM114.69 1.33h-1.04v125.96h1.04V1.33z" fill="#1D1D1B"/><path d="M114.69 1.33h-1.04v125.96h1.04V1.33z" fill="#1D1D1B"/><path d="M114.69 1.33h-1.04v125.96h1.04V1.33z" fill="#1D1D1B"/><path d="M114.69 1.33h-1.04v125.96h1.04V1.33z" fill="#1D1D1B"/><path d="M114.69 1.33h-1.04v125.96h1.04V1.33z" fill="#1D1D1B"/><path d="M114.69 1.33h-1.04v125.96h1.04V1.33z" fill="#1D1D1B"/><path d="M114.69 1.33h-1.04v125.96h1.04V1.33zM73.24 113.28s2.51 4 2.97 4.73c.46.73.98 1.31 2.84 1.71 1.86.39 2.67.58 2.67.58v.14s-1.18-.25-2.7-.59c-1.52-.34-2.14-.45-2.83-1.42-.58-.8-2.95-4.21-2.95-4.21v-.94zM73.24 117.85s2.29 2.4 2.95 3.08c.7.73 1.6 1 2.84 1.22 1.19.21 2.69.46 2.69.46v.13s-1.41-.23-2.69-.45c-1.25-.21-2.13-.33-2.85-1-.64-.59-2.94-2.75-2.94-2.75v-.7.01z" fill="#1D1D1B"/><path d="M73.24 118.93s2.17 2.02 2.95 2.71c.71.63 1.29.83 2.85 1.11 1.56.28 2.68.45 2.68.45v.14s-1.42-.23-2.69-.43c-1.27-.2-2.08-.28-2.84-.9-.88-.71-2.95-2.42-2.95-2.42v-.66z" fill="#1D1D1B"/><path d="M73.24 120.08s2.48 1.97 2.95 2.32c.46.34 1.08.75 2.86 1 1.77.26 2.67.38 2.67.38v.15s-1.6-.23-2.67-.37c-1.07-.13-1.89-.19-2.85-.83-.94-.62-2.96-2.04-2.96-2.04v-.61z" fill="#1D1D1B"/><path d="M73.24 121.18s2.49 1.66 2.96 1.92c.47.26 1.03.69 2.84.92 1.82.23 2.67.34 2.67.34v.14s-1.5-.16-2.68-.29c-1.18-.13-1.98-.3-2.85-.78-.88-.48-2.95-1.69-2.95-1.69v-.56h.01z" fill="#1D1D1B"/><path d="M73.24 122.29s2.2 1.2 2.95 1.57c.83.42 1.55.62 2.85.77 1.28.15 2.68.3 2.68.3v.13s-1.3-.14-2.68-.27c-1.37-.13-1.86-.19-2.85-.63-.89-.39-2.95-1.35-2.95-1.35v-.53.01z" fill="#1D1D1B"/><path d="M73.24 123.41s1.74.75 2.96 1.23c1.2.48 2.12.52 2.85.6.32.04 2.67.28 2.67.28v.13s-1.4-.11-2.67-.22-1.82-.16-2.85-.5c-1.04-.35-2.96-1.01-2.96-1.01v-.51zM73.24 124.55s1.76.54 2.95.86c1.2.31 2.3.44 2.85.48.55.04 2.67.21 2.67.21v.13s-1.21-.08-2.68-.19c-1.19-.08-2.15-.17-2.85-.33-.78-.17-2.95-.69-2.95-.69v-.47h.01zM73.24 125.68s1.44.25 2.95.5c1.14.19 2.68.31 2.84.32.16 0 2.68.18 2.68.18v.13s-1.61-.08-2.68-.14c-1.11-.06-2.22-.13-2.85-.19-1.41-.15-2.95-.34-2.95-.34v-.45l.01-.01zM73.24 126.84s2.27.09 2.95.1c.69.01 5.53.21 5.53.21v.13h-8.48v-.44zM79.04 120.34c-2.05-.44-2.52-1.19-2.86-1.66-.34-.46-2.94-4.26-2.94-4.26v.86c.1.13 2.32 3.04 2.95 3.84.7.9 1.8 1.11 2.85 1.33 1.05.22 2.68.54 2.68.54v-.12s-2.15-.42-2.68-.54v.01z" fill="#1D1D1B"/><path d="M79.04 120.94c-1.68-.33-2.37-.86-2.86-1.51-.49-.64-2.94-3.87-2.94-3.87v.81c.1.12 2.34 2.78 2.94 3.46.7.8 1.68 1.01 2.86 1.23l2.68.5v-.12s-1.71-.32-2.68-.51v.01z" fill="#1D1D1B"/><path d="M79.04 121.56c-1.75-.34-2.11-.62-2.85-1.43-.47-.51-2.85-3.32-2.95-3.44v.75s2.22 2.37 2.94 3.07c.94.92 1.82.99 2.86 1.18l2.68.49v-.13s-1.98-.35-2.68-.49z" fill="#1D1D1B"/><path d="M59.04 118.89v.02l.17-.02h-.17zM61.26 118.26c.21-.02.42-.05.63-.08.37-.05.69-.11.98-.17.7-.16 1.33-.41 1.88-.74.54-.33 1.02-.79 1.54-1.35.32-.35.68-.84 1.01-1.31v-.2c-.39.54-.77.99-1.14 1.37-.5.52-1.02.94-1.54 1.24-.53.31-1.13.53-1.81.66-.29.06-.6.11-.96.15l-.63.06c-.11 0-.23.02-.34.03-2.58.23-5.14.48-7.54.72v.55c2.42-.29 5-.6 7.57-.9.11-.01.23-.03.34-.04l.01.01zM56.85 120.61l-3.51.24v.55l3.54-.33c.67-.06 1.4-.13 2.15-.19v-.41c-.73.05-1.45.09-2.19.14h.01zM53.34 120.1v.55l5.7-.56v-.41l-5.7.42z" fill="#000"/><path d="M62.73 118.88c.72-.14 1.33-.34 1.88-.62.56-.29 1.12-.76 1.64-1.26.35-.34.69-.77 1.04-1.23v-.18c-.42.52-.81.95-1.21 1.32-.51.47-1.05.85-1.59 1.11-.53.26-1.13.44-1.82.55-.29.05-.6.09-.95.12l-2.53.21h3.46s.04 0 .07-.01l.01-.01zM53.34 119.38v.54l5.7-.6v-.41l-5.7.47zM66.2 118.05c.37-.31.72-.7 1.1-1.13v-.2c-.46.48-.85.87-1.26 1.2-.51.41-.91.71-1.52.96h.53c.39-.23.78-.53 1.14-.84l.01.01zM67.3 117.89c-.45.44-.71.69-1.19 1.01h.34c.42-.37.85-.81.85-.81v-.2zM62.98 117.11c.68-.19 1.31-.47 1.86-.85.53-.36 1.03-.88 1.52-1.45.31-.36.64-.84.94-1.3v-.22c-.36.54-.72 1.01-1.09 1.42-.49.55-1 .99-1.52 1.33-.54.35-1.14.61-1.79.77-.29.07-.61.13-.96.18-.23.03-.47.06-.7.08-.09 0-7.89.84-7.89.84v.55s8.41-1.1 8.65-1.14c.36-.06.69-.13.99-.21h-.01zM53.34 122.33v.55c1.92-.13 3.8-.26 5.69-.38v-.4c-1.87.07-3.77.16-5.69.24v-.01zM53.34 125.99v.55c1.84-.01 3.77-.03 5.69-.05v-.4c-1.88-.03-3.77-.06-5.69-.1zM56.69 125.26h-3.34v.55l3.35-.09c.75-.02 1.54-.04 2.34-.05v-.4h-2.35v-.01zM53.34 121.58v.55c1.92-.15 3.81-.3 5.69-.43v-.41c-1.83.09-3.69.19-5.69.29zM53.34 126.74v.54h5.7v-.4l-5.7-.14zM53.34 123.04v.55l5.7-.3v-.41l-5.7.16zM53.34 123.79v.54l5.7-.25v-.4l-5.7.11zM53.34 124.51v.55c1.83-.06 3.75-.13 5.69-.19v-.4c-1.89.01-3.78.03-5.69.04z" fill="#000"/><path d="m68.19 73.25 1.04-3.18-2.71-1.97h3.35l1.03-3.19 1.04 3.19h3.35l-2.71 1.97 1.03 3.18-2.71-1.96-2.71 1.96zM73.61 85.39l1.54-4.72-4.03-2.92h4.98l1.53-4.73 1.54 4.73h4.97l-4.02 2.92 1.53 4.72-4.02-2.92-4.02 2.92zM76.62 64.12l.68-2.1-1.78-1.3h2.21l.68-2.1.68 2.1h2.21l-1.79 1.3.68 2.1-1.78-1.3-1.79 1.3zM82.41 38.6c-3.06 1.97-13.79 8.35-27.94 10.38-14.51 2.08-24.42 2.9-38.3 11.31C1.54 69.2.03 79.41 0 83.64c0 .57.08 1.38.08 1.38C18 71.26 28.36 79.01 47.92 72.46c25.76-8.62 33.13-29.18 34.5-33.86h-.01zM22.85 54.31a76.905 76.905 0 0 0-7.78 4.16c-3.16 1.91-5.75 3.91-7.87 5.91V45.96l7.83-10.95 7.82 10.95v8.34" fill="#1D1D1B"/><path d="M68.7 43.05c-4.1 1.57-8.91 2.96-14.28 3.76v-9.69l7.14-7.25 7.13 7.25v5.93h.01zM52.56 47.07c-3.08.43-5.98.82-8.79 1.27V31.39h8.79v15.68zM41.91 48.64c-3.17.54-6.25 1.17-9.34 2.04V39.14h9.34v9.5zM30.69 51.24c-1.99.62-3.98 1.35-6.04 2.23V38.26l3.02-16 3.02 16v12.98zM.17 97.5V87.42h6.1v.98H1.2v3.28h4.53l-.27.99H1.12s.08.31.08.56v3.28h5.09v.98H.17v.01zM13.59 97.72c-2.26 0-3.81-1.23-3.81-4.36v-5.94h1.04v5.94c0 2.42.96 3.38 2.76 3.38 1.8 0 2.79-.96 2.79-3.38v-5.94h1.04v5.94c0 3.13-1.55 4.36-3.81 4.36h-.01zM26.73 97.5l-2.27-3.68c-.07-.11-.15-.43-.15-.56h-1.93v4.24h-1.04V87.42h3c2.43 0 3.4 1.2 3.4 2.94 0 1.47-.72 2.5-2.42 2.84l2.67 4.3h-1.27.01zm-2.36-9.1h-1.98v3.87h1.97c1.46 0 2.34-.45 2.34-1.92s-.88-1.96-2.32-1.96l-.01.01zM35.1 97.72c-3.17 0-3.93-2.21-3.93-5.38 0-2.85.76-5.14 3.93-5.14s3.97 2.29 3.97 5.14c0 3.17-.8 5.38-3.97 5.38zm0-9.53c-2.3 0-2.87 1.52-2.87 4.15 0 2.91.58 4.39 2.87 4.39s2.91-1.48 2.91-4.39c0-2.64-.61-4.15-2.91-4.15zM45.93 93.71h-2.12c.03.13.05.32.05.5v3.28h-1.04V87.41h3.11c2.43 0 3.41 1.41 3.41 3.15s-.96 3.15-3.41 3.15zm0-5.31h-2.07v4.33h2.07c1.47 0 2.35-.59 2.35-2.17 0-1.48-.89-2.17-2.35-2.17v.01zM53.1 97.5V87.42h6.11v.98h-5.07v3.28h4.53l-.27.99h-4.34s.08.31.08.56v3.28h5.09v.98h-6.12l-.01.01zM69.66 97.5l-1.1-3.13h-3.94l-1.1 3.13h-1.06l3.55-10.08h1.23l3.53 10.08h-1.11zm-2.79-7.97c-.08-.24-.2-.64-.28-1.01-.08.36-.2.8-.28 1.01l-1.34 3.82h3.23l-1.33-3.82zM80.96 97.5l-5.76-8.37c.04.14.09.34.09.62v7.76h-1.04V87.43h.98l5.75 8.34c-.05-.25-.08-.34-.08-.55v-7.8h1.04V97.5h-.98zM3.06 108.94c-2.04 0-2.88-1.05-2.88-3.09 0-1.9.73-3.09 2.87-3.09 1.6 0 2.34.91 2.44 2.13H4.11c-.07-.52-.35-.9-1.05-.9-1 0-1.36.44-1.36 1.86 0 1.42.36 1.87 1.37 1.87.35 0 .72-.12.94-.26v-.63c0-.06.02-.11.03-.16h-.95l-.33-1.16h2.73v2.54c-.66.5-1.42.89-2.43.89zM11.05 108.82l-1.29-1.97a.501.501 0 0 1-.08-.21h-.33v2.19H7.87v-5.93h2.16c1.64 0 2.37.71 2.37 1.88 0 .82-.38 1.39-1.14 1.67l1.56 2.38h-1.76l-.01-.01zm-1.02-4.77h-.68v1.43h.68c.68 0 .86-.31.86-.71 0-.42-.21-.72-.86-.72zM14.87 108.82v-5.93h4.31v1.22h-2.83v1.02h2.58l-.38 1.23H16.3s.04.09.04.16v1.09h2.83v1.22h-4.31l.01-.01zM21.48 108.82v-5.93h4.31v1.22h-2.83v1.02h2.58l-.38 1.23h-2.25s.04.09.04.16v1.09h2.83v1.22h-4.31l.01-.01zM32.09 108.82l-2.62-3.46c.03.11.07.22.07.34v3.12h-1.46v-5.93h1.27l2.63 3.46c-.04-.13-.07-.24-.07-.39v-3.07h1.46v5.93h-1.28zM41.81 108.94c-2.24 0-2.68-1.56-2.68-3.09 0-1.8.62-3.09 2.68-3.09 1.61 0 2.35.88 2.44 2.17h-1.37c-.1-.67-.4-.94-1.08-.94-.96 0-1.17.56-1.17 1.86 0 1.2.17 1.87 1.17 1.87.62 0 1-.25 1.34-.99l1.14.67c-.38.88-1.04 1.55-2.48 1.55l.01-.01zM50.21 108.82l-.45-1.19h-1.97l-.45 1.19h-1.48l2.3-5.93h1.32l2.29 5.93h-1.56zm-1.37-3.66c-.02-.07-.05-.16-.07-.25-.02.09-.05.19-.07.25l-.47 1.28h1.07l-.46-1.28zM56 106.87h-.78c.04.06.07.16.07.23v1.72h-1.48v-5.93H56c1.6 0 2.39.69 2.39 1.95s-.77 2.03-2.39 2.03zm0-2.82h-.71v1.66H56c.62 0 .89-.25.89-.87 0-.58-.26-.79-.89-.79zM60.63 108.82v-5.93h1.48v5.93h-1.48zM67.51 104.1v4.72h-1.49v-4.72h-1.7v-1.21h4.89v1.21h-1.7zM74.52 108.82l-.45-1.19H72.1l-.45 1.19h-1.48l2.3-5.93h1.32l2.29 5.93h-1.56zm-1.37-3.66c-.02-.07-.05-.16-.07-.25-.02.09-.05.19-.07.25l-.47 1.28h1.07l-.46-1.28zM78.12 108.82v-5.93h1.48v4.65h2.35v1.28h-3.83z" fill="#1D1D1B"/><path d="m24.65 38.26 3.02-16 3.02 16M13.27 122.55l-.22-.94h-1.19l-.49.94h-.48l1.64-3.18h.5l.72 3.18h-.49.01zm-.55-2.41c-.01-.07-.02-.15-.02-.22-.01.05-.05.15-.08.21l-.55 1.07h.88l-.24-1.07.01.01zM16.41 121.04l-.22 1.51h-.47l.22-1.5c0-.07.01-.13.01-.19 0-.27-.12-.37-.35-.37-.22 0-.4.08-.51.15l-.2.13-.26 1.78h-.47l.34-2.37h.37l.04.24c.29-.19.44-.31.81-.31.37 0 .69.21.69.72 0 .07 0 .14-.02.21h.02zM18.46 122.55H18l.34-2.37h.46l-.34 2.37zm.47-2.94s0 .04-.04.04h-.47s-.04 0-.03-.04l.07-.45s0-.04.04-.04h.47s.04 0 .03.04l-.07.45zM21.34 121.04l-.22 1.51h-.47l.22-1.5c0-.07.01-.13.01-.19 0-.27-.12-.37-.35-.37-.22 0-.4.08-.51.15l-.2.13-.26 1.78h-.47l.34-2.37h.37l.04.24c.29-.19.44-.31.81-.31.37 0 .69.21.69.72 0 .07 0 .14-.02.21h.02zM22.2 122.55h-.46l.34-2.37h.46l-.34 2.37zm.47-2.94s0 .04-.04.04h-.47s-.04 0-.03-.04l.07-.45s0-.04.04-.04h.47s.04 0 .03.04l-.07.45zM24.48 120.58h-.71l-.19 1.36v.08c0 .15.07.23.24.23.14 0 .31-.07.43-.16l.23.27c-.24.2-.51.26-.8.26-.34 0-.56-.2-.56-.56v-.14l.17-1.19s.02-.09.07-.15h-.43l.06-.4h.38l.12-.8.48-.14-.14.94h.83l-.18.4zM25.29 122.55h-.46l.34-2.37h.46l-.34 2.37zm.47-2.94s0 .04-.04.04h-.47s-.04 0-.03-.04l.07-.45s0-.04.04-.04h.47s.04 0 .03.04l-.07.45zM28.05 120.83l-.25 1.72h-.38l-.03-.17c-.26.17-.5.24-.78.24-.47 0-.73-.29-.73-.67v-.13c.09-.63.57-.77 1.02-.77.21 0 .44.03.63.07l.04-.3v-.07c0-.18-.12-.26-.4-.26s-.49.07-.67.29l-.32-.21c.26-.36.66-.46 1.07-.46.66 0 .79.31.79.59v.13h.01zm-1.1.59c-.33 0-.6.12-.6.49 0 .25.15.32.32.32.28 0 .47-.07.74-.23l.08-.52c-.21-.04-.36-.06-.55-.06h.01zM29.37 120.58l-.19 1.36v.08c0 .15.07.23.24.23.14 0 .31-.07.43-.16l.23.27c-.24.2-.51.26-.8.26-.34 0-.56-.2-.56-.56v-.14l.17-1.19s.02-.09.07-.15h-.43l.06-.4h.38l.12-.8.49-.14-.14.94h.83l-.18.4h-.72zM30.89 122.55h-.46l.34-2.37h.46l-.34 2.37zm.47-2.94s0 .04-.04.04h-.47s-.04 0-.03-.04l.07-.45s0-.04.04-.04h.47s.04 0 .03.04l-.07.45zM32.7 122.55h-.48l-.56-2.37h.48l.36 1.52c.02.09.04.16.04.32.04-.15.07-.22.12-.31l.8-1.52h.48l-1.25 2.37.01-.01zM36.17 121.37l-.02.15h-1.69c0 .09-.02.15-.02.22 0 .34.15.51.56.51.31 0 .52-.1.68-.35l.37.15c-.25.4-.58.59-1.11.59-.66 0-.96-.31-.96-.92 0-.1 0-.22.02-.34.11-.78.46-1.25 1.31-1.25.72 0 .88.51.88.95 0 .11-.01.22-.03.3l.01-.01zm-.93-.86c-.42 0-.63.15-.73.63h1.19c0-.06.01-.1.01-.14 0-.29-.13-.49-.48-.49h.01zM39.99 121.37c-.11.81-.47 1.26-1.27 1.26-.67 0-.93-.37-.93-.93 0-.1 0-.22.02-.33.12-.84.47-1.25 1.26-1.25.67 0 .93.37.93.93 0 .1 0 .21-.03.33l.02-.01zm-.97-.86c-.44 0-.64.21-.74.86-.02.13-.03.24-.03.33 0 .4.17.53.52.53.43 0 .64-.2.74-.87.02-.13.03-.23.03-.33 0-.4-.17-.53-.52-.53v.01zM42.3 119.57c-.21-.06-.32-.07-.47-.07-.24 0-.41.11-.46.46l-.04.22h.75l-.15.38h-.66l-.38 2.66h-.47l.37-2.49c0-.05.03-.11.06-.17h-.38l.06-.38h.34l.03-.22c.08-.67.54-.85 1-.85.1 0 .19 0 .28.03.09.01.17.04.26.05l-.14.37v.01zM45.01 120.58h-.71l-.19 1.36v.08c0 .15.07.23.24.23.14 0 .31-.07.43-.16l.23.27c-.24.2-.51.26-.8.26-.34 0-.56-.2-.56-.56v-.14l.17-1.19s.02-.09.07-.15h-.43l.06-.4h.38l.12-.8.48-.14-.14.94h.83l-.18.4zM47.6 121.04l-.22 1.51h-.47l.22-1.5c0-.07.01-.13.01-.19 0-.27-.12-.37-.35-.37-.29 0-.47.13-.71.28l-.26 1.78h-.47l.5-3.43h.46l-.15 1.11c-.01.08-.06.18-.08.22.29-.19.47-.33.84-.33s.69.21.69.72c0 .07 0 .14-.02.21l.01-.01zM50.25 121.37l-.02.15h-1.69c0 .09-.02.15-.02.22 0 .34.15.51.56.51.31 0 .52-.1.68-.35l.37.15c-.25.4-.58.59-1.11.59-.66 0-.96-.31-.96-.92 0-.1 0-.22.02-.34.11-.78.46-1.25 1.31-1.25.72 0 .88.51.88.95 0 .11-.01.22-.03.3l.01-.01zm-.93-.86c-.42 0-.63.15-.73.63h1.19c0-.06.01-.1.01-.14 0-.29-.13-.49-.48-.49h.01zM6.35 124.57H4.74l-.12.87h1.45l-.18.43H4.52s.01.1 0 .14l-.13.9H6l-.06.42H3.88l.46-3.18h2.07l-.06.42zM8.48 127.33h-.37l-.04-.24c-.26.17-.48.31-.81.31-.37 0-.69-.21-.69-.72 0-.07 0-.13.01-.21l.22-1.51h.46l-.21 1.5c0 .07-.02.14-.02.19 0 .28.12.37.35.37.29 0 .48-.15.71-.29l.26-1.78h.47l-.35 2.37.01.01zM10.71 125.32c-.07 0-.16-.02-.26-.02-.15 0-.3.03-.41.11l-.18.13-.26 1.8h-.47l.34-2.37h.38l.02.22c.24-.18.34-.29.67-.29.08 0 .15 0 .22.02l-.06.41.01-.01zM13.02 126.14c-.11.81-.47 1.26-1.27 1.26-.67 0-.93-.37-.93-.93 0-.1 0-.22.02-.33.12-.84.47-1.25 1.26-1.25.67 0 .93.37.93.93 0 .1 0 .21-.03.33l.02-.01zm-.96-.86c-.44 0-.64.21-.74.86-.02.13-.03.24-.03.33 0 .4.17.53.52.53.43 0 .64-.2.74-.87.02-.13.03-.23.03-.33 0-.4-.17-.53-.52-.53v.01zM15.7 126.11c-.12.85-.52 1.29-1.31 1.29-.2 0-.37-.06-.5-.15l-.16 1.14h-.47l.5-3.43h.32l.06.23c.3-.24.51-.3.7-.3.63 0 .89.38.89.94 0 .09 0 .18-.02.27l-.01.01zm-.92-.83c-.23 0-.36.06-.64.25l-.19 1.35c.18.13.33.18.5.18.44 0 .69-.27.79-.94.01-.1.02-.2.02-.28 0-.37-.13-.56-.47-.56h-.01zM18.31 126.14l-.02.15H16.6c0 .09-.02.15-.02.22 0 .34.15.51.56.51.31 0 .52-.1.68-.35l.37.15c-.25.4-.58.59-1.11.59-.66 0-.96-.31-.96-.92 0-.1 0-.22.02-.34.11-.78.46-1.25 1.31-1.25.72 0 .88.51.88.95 0 .11-.01.22-.03.3l.01-.01zm-.93-.86c-.42 0-.63.15-.73.63h1.19c0-.06.01-.1.01-.14 0-.29-.13-.49-.48-.49h.01zM20.82 125.61l-.25 1.72h-.38l-.03-.17c-.26.17-.5.24-.78.24-.47 0-.73-.29-.73-.67v-.13c.09-.63.57-.77 1.02-.77.21 0 .44.03.63.07l.04-.3v-.07c0-.18-.12-.26-.4-.26s-.49.07-.67.29l-.32-.21c.26-.36.66-.46 1.07-.46.66 0 .79.31.79.59v.13h.01zm-1.1.59c-.34 0-.6.12-.6.49 0 .25.15.32.32.32.28 0 .47-.07.74-.23l.08-.52c-.21-.04-.36-.06-.55-.06h.01zM23.45 125.82l-.22 1.51h-.47l.22-1.5c0-.07.01-.13.01-.19 0-.27-.12-.37-.35-.37-.22 0-.4.08-.51.15l-.2.13-.26 1.78h-.47l.34-2.37h.37l.04.24c.29-.19.44-.31.81-.31.37 0 .69.21.69.72 0 .07 0 .14-.02.21h.02zM27.25 125.02c0-.32-.12-.54-.61-.54-.73 0-.89.49-1 1.25-.03.17-.04.34-.04.49 0 .45.15.77.72.77.36 0 .62-.15.83-.52l.34.22c-.22.38-.55.71-1.23.71-.83 0-1.12-.5-1.12-1.2 0-.15.01-.3.04-.46.15-1.06.54-1.66 1.52-1.66.71 0 1 .44 1 .87v.07h-.45zM30.16 126.14c-.11.81-.47 1.26-1.27 1.26-.67 0-.93-.37-.93-.93 0-.1 0-.22.02-.33.12-.84.47-1.25 1.26-1.25.67 0 .93.37.93.93 0 .1 0 .21-.03.33l.02-.01zm-.97-.86c-.44 0-.64.21-.74.86-.02.13-.03.24-.03.33 0 .4.17.53.52.53.43 0 .64-.2.74-.87.02-.13.03-.23.03-.33 0-.4-.17-.53-.52-.53v.01zM34.06 125.84l-.22 1.49h-.46l.22-1.5c.01-.08.02-.15.02-.22 0-.21-.07-.34-.25-.34-.27 0-.48.15-.7.29 0 .07-.01.15-.02.21l-.22 1.57h-.47l.22-1.54c0-.07.01-.14.01-.2 0-.21-.07-.32-.26-.32-.26 0-.47.15-.68.27l-.26 1.79h-.46l.34-2.37h.37l.04.23c.2-.13.47-.3.72-.3.31 0 .51.07.64.34.27-.17.46-.34.8-.34.44 0 .62.25.62.68 0 .08 0 .17-.02.27l.02-.01zM38 125.84l-.22 1.49h-.46l.22-1.5c.01-.08.02-.15.02-.22 0-.21-.07-.34-.25-.34-.27 0-.48.15-.7.29 0 .07-.01.15-.02.21l-.22 1.57h-.47l.22-1.54c0-.07.01-.14.01-.2 0-.21-.07-.32-.26-.32-.26 0-.47.15-.68.27l-.26 1.79h-.46l.34-2.37h.37l.04.23c.2-.13.47-.3.72-.3.31 0 .51.07.64.34.27-.17.46-.34.8-.34.44 0 .62.25.62.68 0 .08 0 .17-.02.27l.02-.01zM38.87 127.33h-.46l.34-2.37h.46l-.34 2.37zm.47-2.94s0 .04-.04.04h-.47s-.04 0-.03-.04l.07-.45s0-.04.04-.04h.47s.04 0 .03.04l-.07.45zM41.16 125.51c-.08-.15-.22-.25-.5-.25-.25 0-.52.08-.52.38 0 .1.05.18.2.2l.54.09c.31.05.55.27.55.58 0 .64-.56.88-1.11.88-.41 0-.75-.16-.87-.52l.41-.14c.07.2.25.29.51.29.28 0 .59-.1.59-.43 0-.13-.08-.21-.23-.24l-.57-.1a.565.565 0 0 1-.48-.57c0-.6.52-.8 1.04-.8.43 0 .71.15.83.44l-.38.18-.01.01zM43.53 125.51c-.08-.15-.22-.25-.5-.25-.25 0-.52.08-.52.38 0 .1.05.18.2.2l.54.09c.31.05.55.27.55.58 0 .64-.56.88-1.11.88-.41 0-.75-.16-.87-.52l.41-.14c.08.2.25.29.51.29.28 0 .59-.1.59-.43 0-.13-.08-.21-.22-.24l-.57-.1a.565.565 0 0 1-.48-.57c0-.6.52-.8 1.04-.8.43 0 .71.15.83.44l-.38.18-.02.01zM44.71 127.33h-.46l.34-2.37h.46l-.34 2.37zm.47-2.94s0 .04-.04.04h-.47s-.04 0-.03-.04l.07-.45s0-.04.04-.04h.47s.04 0 .03.04l-.07.45zM47.6 126.14c-.11.81-.47 1.26-1.27 1.26-.67 0-.93-.37-.93-.93 0-.1 0-.22.02-.33.12-.84.47-1.25 1.26-1.25.67 0 .93.37.93.93 0 .1 0 .21-.03.33l.02-.01zm-.97-.86c-.44 0-.64.21-.74.86-.02.13-.03.24-.03.33 0 .4.17.53.52.53.43 0 .64-.2.74-.87.02-.13.03-.23.03-.33 0-.4-.17-.53-.52-.53v.01zM50.22 125.82l-.22 1.51h-.47l.22-1.5c0-.07.01-.13.01-.19 0-.27-.12-.37-.35-.37-.22 0-.4.08-.51.15l-.2.13-.26 1.78h-.47l.34-2.37h.37l.04.24c.29-.19.44-.31.81-.31.37 0 .69.21.69.72 0 .07 0 .14-.02.21h.02zM4.36 10.64C1.53 10.64.44 8.81.44 5.88c0-2.64.91-4.76 3.92-4.76 2.24 0 3.33 1.38 3.44 3.02H6.31c-.11-.86-.73-1.56-1.96-1.56-1.79 0-2.23 1.2-2.23 3.3 0 1.97.42 3.34 2.23 3.34.66 0 1.39-.22 1.79-.51V7.14c0-.1.04-.18.06-.28H4.49l-.37-1.42H7.8v3.84c-.73.63-1.85 1.35-3.45 1.35l.01.01zM15.51 10.45l-2.06-3.22a.838.838 0 0 1-.11-.3H12.3v3.52h-1.66V1.33h3.04c2.27 0 3.31 1.14 3.31 2.82 0 1.24-.6 2.15-1.86 2.56l2.38 3.75h-2v-.01zm-1.84-7.71h-1.38v2.77h1.38c1.17 0 1.62-.53 1.62-1.37 0-.91-.5-1.41-1.62-1.41v.01zM19.67 10.45V1.33h5.95v1.41h-4.29v2.19h3.92l-.41 1.42h-3.56c.04.09.05.19.05.24v2.44h4.3v1.42h-5.97.01zM34.22 10.45l-4.39-6.1c.04.13.05.27.05.37v5.73h-1.66V1.33h1.43l4.4 6.13c-.05-.18-.06-.37-.06-.56V1.33h1.66v9.12h-1.43zM42.03 10.64c-3.1 0-3.8-2.16-3.8-4.86 0-2.43.71-4.66 3.8-4.66s3.83 2.23 3.83 4.66c0 2.7-.74 4.86-3.83 4.86zm0-8.06c-1.64 0-2.11 1.05-2.11 3.2 0 2.4.48 3.42 2.11 3.42s2.15-1.03 2.15-3.42c0-2.15-.5-3.2-2.15-3.2zM51.71 10.45h-3.27V1.33h3.27c1.93 0 2.99.8 2.99 2.49 0 .67-.35 1.38-.98 1.72.78.3 1.38 1.03 1.38 2.06 0 1.99-1.35 2.85-3.39 2.85zM50.1 2.67v2.35h1.74c.79 0 1.19-.46 1.19-1.2s-.4-1.15-1.31-1.15H50.1zm1.73 3.62h-1.74v2.82h1.61c1.35 0 1.7-.71 1.7-1.51 0-.92-.62-1.32-1.58-1.32l.01.01zM57.54 10.45V1.33h1.66v7.56h3.6v1.56h-5.26zM65.37 10.45V1.33h5.95v1.41h-4.29v2.19h3.92l-.41 1.42h-3.56c.04.09.05.19.05.24v2.44h4.3v1.42h-5.97.01zM38.82 25.13c-.32.14-.63.22-.91.24-.96.07-1.89-.66-2.8-2.19-.03-.08-.06-.11-.1-.11-.11 0-.27.42-.49 1.24-.28 1.07-.75 1.8-1.42 2.19-.14.03-.29.05-.42.06-.86.06-1.32-.41-1.39-1.4-.04-.63.07-1.41.35-2.33l.51-1.7c.2-.06.38-.1.54-.11.23-.02.41.03.54.14-.47 1.13-.78 2.18-.94 3.15-.08.47-.11.81-.09 1.04.02.33.15.49.39.47.28-.02.57-.26.85-.71.23-.36.39-.72.48-1.09.12-.45.32-.99.62-1.63.15-.33.31-.51.48-.52.12 0 .24.08.37.25l.34.59c.41.74.89 1.28 1.44 1.64.19.12.39.18.61.16.47-.03 1-.38 1.6-1.05.75-.85 1.14-2.14 1.16-3.88v-.96c.09-.76.19-1.15.29-1.15.11 0 .23.36.36 1.09.07.38.11.76.14 1.14.17 2.4-.67 4.21-2.5 5.43h-.01zM42.76 18.22l-.25.02c-.15-.05-.24-.09-.27-.13-.12-.07-.19-.28-.21-.62.03-.16.2-.25.51-.27.1.04.23.09.39.13.01.05.06.1.14.17l.02.25c0 .06-.11.21-.34.45h.01zm.32 5.21c-.08.04-.24.07-.5.06-.01.09-.03.15-.05.18-.02.09-.04.02-.06-.22 0-.11-.01-.33-.02-.66l-.02-1.73c-.02-.28-.05-.8-.08-1.55.28.09.46.23.53.43.05.12.13.76.24 1.91.03.34.02.87-.05 1.58h.01zM48.14 24.52c-.33-.37-.59-1.03-.79-1.97l-.45-2.28c-.11-.57-.19-.92-.25-1.04-.13-.31-.29-.47-.47-.45-.08 0-.15.04-.23.09-.29.22-.54.57-.75 1.05-.29 1.59-.59 2.74-.89 3.46l-.24-.03c-.18-.07-.27-.14-.28-.22.11-.22.32-1.32.61-3.28.27-1.82.47-2.73.57-2.72l.35.33c.03.4 0 .75-.09 1.04-.06.42-.09.69-.1.82.38-.7.78-1.17 1.18-1.41.1-.03.18-.04.26-.05.27-.02.47.15.6.52.05.14.09.44.14.9.17 1.67.46 3.08.87 4.25.21.56.48.84.82.84.32 0 .67-.28 1.03-.82.18-.27.3-.4.37-.41.03 0 .05.02.05.06 0 .05-.02.14-.05.28-.14.5-.41.89-.81 1.18-.16.11-.33.17-.52.18-.28.02-.59-.09-.92-.32h-.01z" fill="#1D1D1B"/><path d="M53.65 24.13c-.33-.37-.59-1.03-.79-1.97l-.45-2.28c-.11-.57-.19-.92-.25-1.04-.13-.31-.29-.47-.47-.45-.08 0-.15.04-.23.09-.29.22-.54.57-.75 1.05-.29 1.59-.59 2.74-.89 3.46l-.24-.03c-.18-.07-.27-.14-.28-.22.11-.22.31-1.32.61-3.28.27-1.82.47-2.73.57-2.72l.35.33c.03.4 0 .75-.09 1.04-.06.42-.09.69-.1.82.38-.7.78-1.17 1.18-1.41.1-.03.18-.04.26-.05.27-.02.47.15.6.52.05.14.09.44.14.9.17 1.67.46 3.08.87 4.25.21.56.48.84.82.84.32 0 .67-.28 1.03-.82.18-.27.3-.4.37-.41.03 0 .05.02.05.06 0 .05-.01.14-.05.28-.14.5-.41.89-.81 1.17-.16.11-.33.17-.52.18-.28.02-.59-.09-.92-.32l-.01.01z" fill="#1D1D1B"/><path d="M58.86 23.43c-.45.52-.98.8-1.58.85-.5.03-.94-.13-1.32-.48-.33-.42-.55-.94-.67-1.56-.51.07-.78.03-.8-.11-.04-.23.12-.36.46-.39h.31c.05-1.02.39-1.72 1.03-2.1.39-.22.72-.33 1.01-.31.72.06 1.24.48 1.56 1.27.03.14.05.26.06.38.01.18 0 .32-.04.44-.02.38-.67.62-1.95.71-.27.02-.58.04-.91.06.03.46.17.85.4 1.16.27.37.63.53 1.07.47.39-.04.71-.2.96-.48.16-.18.31-.27.45-.28.06 0 .11.01.16.05l-.2.29v.03zm-2.12-3.4c-.42.15-.65.54-.7 1.19-.02.09-.03.17-.03.24.02.21.18.31.49.29.12 0 .25-.02.41-.03.18-.01.33-.02.47-.03.64-.05.95-.27.92-.68-.03-.44-.21-.75-.55-.93-.18-.09-.36-.14-.52-.14-.14 0-.3.05-.49.11v-.02z" fill="#1D1D1B"/><path d="M62.06 18.51c-.27.36-.45.93-.56 1.7-.09.66-.18 1-.27 1.02-.28-.06-.42-.25-.44-.57-.01-.15-.02-.39-.02-.72 0-.3 0-.54-.02-.7-.05-.69-.23-1.04-.56-1.04-.23 0-.54.21-.96.6-.13.13-.4.41-.82.84-.13.1-.22.15-.25.15 0 0-.02 0-.02-.01 0-.05.14-.25.44-.6.43-.52.71-.83.83-.93.28-.24.55-.38.83-.4.52-.04.87.38 1.06 1.24.29-.66.64-1.17 1.05-1.54.41-.37.95-.65 1.62-.85.09.14.14.26.14.36.01.17-.11.26-.36.29-.4.04-.96.43-1.7 1.18l.01-.02zM69.9 21.14h-.13c-.09.02-.2-.01-.33-.07l-.21-.07-.7.05c-.15.01-.64.24-1.47.69-.17.09-.29.14-.36.14l-.42.03c-.11-.07-.22-.15-.31-.24v-.15c-.03-.26.14-.71.5-1.34.14-.24.39-.67.75-1.3.86-1.51 1.27-2.78 1.24-3.79h-.28c-.11 0-.43.27-.97.8-.54.52-.87.88-1.01 1.06l-.5.03a.584.584 0 0 1-.13-.14l-.02-.34c.43-.46.7-.74.81-.85.37-.37.66-.61.88-.72.23-.36.47-.55.71-.56l.83-.06c.21.23.33.5.35.81.07 1.04-.5 2.72-1.71 5.03-.06.11-.16.31-.3.58l.63-.24c.32-.12.57-.19.72-.2l.59-.04c.29-.02.61.17.95.58l-.11.3v.01zM73.88 16.72c-.02.22-.09.63-.19 1.23-.42 2.3-1.1 3.49-2.06 3.56-.1 0-.25-.02-.46-.09a.756.756 0 0 0-.25-.19c-.22-.37-.37-.66-.44-.88-.07-.22-.13-.54-.16-.96-.05-.75.09-1.61.44-2.59.38-1.08.85-1.79 1.41-2.14.19-.05.38-.09.55-.1.27-.02.52 0 .73.08.14.16.27.39.39.71.08.15.13.46.17.91 0 .05-.04.2-.12.45l-.01.01zm-.6-1.46c-.06-.05-.12-.11-.17-.17a1.199 1.199 0 0 0-.86.12c-.09.1-.15.16-.18.17-.06.06-.13.15-.2.25-.37.99-.61 1.64-.7 1.97-.2.73-.28 1.42-.24 2.07.03.36.19.76.48 1.21.1.02.16.03.18.03l.28-.02c.49-.44.89-1.19 1.2-2.25.29-.97.42-1.83.37-2.56-.02-.34-.07-.61-.15-.82h-.01zM78.64 20.53h-.13c-.09.02-.2-.01-.33-.07l-.21-.07-.7.05c-.15.01-.64.24-1.47.69-.17.09-.29.14-.36.14l-.42.03c-.11-.07-.22-.15-.31-.24v-.15c-.03-.26.14-.71.5-1.35.14-.23.39-.67.75-1.3.86-1.51 1.27-2.78 1.23-3.79h-.28c-.11 0-.43.27-.97.8s-.87.88-1.01 1.06l-.5.03a.584.584 0 0 1-.13-.14l-.02-.34c.43-.46.7-.74.81-.85.37-.37.66-.61.88-.72.23-.36.47-.55.71-.56l.83-.06c.21.23.33.5.35.81.07 1.04-.5 2.72-1.71 5.03-.06.11-.16.31-.3.58l.63-.24c.32-.12.57-.19.72-.2l.59-.04c.29-.02.61.17.95.58l-.11.3.01.02zM82.97 20.23h-.13c-.09.02-.2-.01-.33-.07l-.21-.07-.7.05c-.15.01-.64.24-1.47.69-.17.09-.29.14-.36.14l-.42.03c-.11-.07-.22-.15-.31-.24v-.15c-.03-.26.14-.71.5-1.34.14-.24.39-.67.75-1.3.86-1.51 1.27-2.78 1.24-3.79h-.28c-.11 0-.43.27-.97.8-.54.52-.87.88-1.01 1.06l-.5.03a.584.584 0 0 1-.13-.14l-.02-.34c.43-.46.7-.74.81-.85.37-.37.66-.61.88-.72.23-.36.47-.55.71-.56l.83-.06c.21.23.33.5.35.81.07 1.04-.5 2.72-1.71 5.03-.06.11-.16.31-.3.58l.63-.24c.32-.12.57-.19.72-.2l.59-.04c.29-.02.61.17.95.58l-.11.3v.01zM59.25 119.11v7.96h12.01v-7.96H59.25zm8.38 2.02.13.4h.43l-.34.26.13.41-.34-.25-.34.25.13-.41-.35-.26h.42l.13-.4zm-1.13-.6.13-.4.13.4h.43l-.34.26.13.41-.34-.25-.34.25.13-.41-.35-.26h.42zm-2.74 0 .13-.4.13.4h.43l-.34.26.13.41-.34-.25-.34.25.13-.41-.35-.26h.42zm-.97 1 .13-.4.13.4h.43l-.34.26.13.41-.34-.25-.34.25.13-.41-.35-.26h.42zm-.79 1.35h.42l.13-.4.13.4h.43l-.34.26.13.41-.34-.25-.34.25.13-.41-.35-.26zm.91 1.8-.34.25.13-.41-.35-.26h.42l.13-.4.13.4h.43l-.34.26.13.41-.34-.25zm1.33 1.24-.34-.25-.34.25.13-.41-.35-.26h.42l.13-.4.13.4h.43l-.34.26.13.41zm.89-5.76.13-.41.13.41h.43l-.34.27.13.42-.34-.26-.34.26.13-.42-.35-.27h.42zm.49 6.12-.34-.25-.34.25.13-.41-.35-.26h.42l.13-.4.13.4h.43l-.34.26.13.41zm1.35-.36-.34-.25-.34.25.13-.41-.35-.26h.42l.13-.4.13.4h.43l-.34.26.13.41zm1-.99-.34-.25-.34.25.13-.41-.35-.26h.42l.13-.4.13.4h.43l-.34.26.13.41zm.38-1.39-.34-.25-.34.25.13-.41-.35-.26h.42l.13-.4.13.4h.43l-.34.26.13.41z" fill="#1D1D1B"/><path d="m68.19 73.25 1.04-3.18-2.71-1.97h3.35l1.03-3.19 1.04 3.19h3.35l-2.71 1.97 1.03 3.18-2.71-1.96-2.71 1.96zM73.61 85.39l1.54-4.72-4.03-2.92h4.98l1.53-4.73 1.54 4.73h4.97l-4.02 2.92 1.53 4.72-4.02-2.92-4.02 2.92zM76.62 64.12l.68-2.1-1.78-1.3h2.21l.68-2.1.68 2.1h2.21l-1.79 1.3.68 2.1-1.78-1.3-1.79 1.3zM82.41 38.6c-3.06 1.97-13.79 8.35-27.94 10.38-14.51 2.08-24.42 2.9-38.3 11.31C1.54 69.2.03 79.41 0 83.64c0 .57.08 1.38.08 1.38C18 71.26 28.36 79.01 47.92 72.46c25.76-8.62 33.13-29.18 34.5-33.86h-.01zM22.85 54.31a76.905 76.905 0 0 0-7.78 4.16c-3.16 1.91-5.75 3.91-7.87 5.91V45.96l7.83-10.95 7.82 10.95v8.34" fill="#fff"/><path d="M68.7 43.05c-4.1 1.57-8.91 2.96-14.28 3.76v-9.69l7.14-7.25 7.13 7.25v5.93h.01zM52.56 47.07c-3.08.43-5.98.82-8.79 1.27V31.39h8.79v15.68zM41.91 48.64c-3.17.54-6.25 1.17-9.34 2.04V39.14h9.34v9.5zM30.69 51.24c-1.99.62-3.98 1.35-6.04 2.23V38.26l3.02-16 3.02 16v12.98zM.17 97.5V87.42h6.1v.98H1.2v3.28h4.53l-.27.99H1.12s.08.31.08.56v3.28h5.09v.98H.17v.01zM13.59 97.72c-2.26 0-3.81-1.23-3.81-4.36v-5.94h1.04v5.94c0 2.42.96 3.38 2.76 3.38 1.8 0 2.79-.96 2.79-3.38v-5.94h1.04v5.94c0 3.13-1.55 4.36-3.81 4.36h-.01zM26.73 97.5l-2.27-3.68c-.07-.11-.15-.43-.15-.56h-1.93v4.24h-1.04V87.42h3c2.43 0 3.4 1.2 3.4 2.94 0 1.47-.72 2.5-2.42 2.84l2.67 4.3h-1.27.01zm-2.36-9.1h-1.98v3.87h1.97c1.46 0 2.34-.45 2.34-1.92s-.88-1.96-2.32-1.96l-.01.01zM35.1 97.72c-3.17 0-3.93-2.21-3.93-5.38 0-2.85.76-5.14 3.93-5.14s3.97 2.29 3.97 5.14c0 3.17-.8 5.38-3.97 5.38zm0-9.53c-2.3 0-2.87 1.52-2.87 4.15 0 2.91.58 4.39 2.87 4.39s2.91-1.48 2.91-4.39c0-2.64-.61-4.15-2.91-4.15zM45.93 93.71h-2.12c.03.13.05.32.05.5v3.28h-1.04V87.41h3.11c2.43 0 3.41 1.41 3.41 3.15s-.96 3.15-3.41 3.15zm0-5.31h-2.07v4.33h2.07c1.47 0 2.35-.59 2.35-2.17 0-1.48-.89-2.17-2.35-2.17v.01zM53.1 97.5V87.42h6.11v.98h-5.07v3.28h4.53l-.27.99h-4.34s.08.31.08.56v3.28h5.09v.98h-6.12l-.01.01zM69.66 97.5l-1.1-3.13h-3.94l-1.1 3.13h-1.06l3.55-10.08h1.23l3.53 10.08h-1.11zm-2.79-7.97c-.08-.24-.2-.64-.28-1.01-.08.36-.2.8-.28 1.01l-1.34 3.82h3.23l-1.33-3.82zM80.96 97.5l-5.76-8.37c.04.14.09.34.09.62v7.76h-1.04V87.43h.98l5.75 8.34c-.05-.25-.08-.34-.08-.55v-7.8h1.04V97.5h-.98zM3.06 108.94c-2.04 0-2.88-1.05-2.88-3.09 0-1.9.73-3.09 2.87-3.09 1.6 0 2.34.91 2.44 2.13H4.11c-.07-.52-.35-.9-1.05-.9-1 0-1.36.44-1.36 1.86 0 1.42.36 1.87 1.37 1.87.35 0 .72-.12.94-.26v-.63c0-.06.02-.11.03-.16h-.95l-.33-1.16h2.73v2.54c-.66.5-1.42.89-2.43.89zM11.05 108.82l-1.29-1.97a.501.501 0 0 1-.08-.21h-.33v2.19H7.87v-5.93h2.16c1.64 0 2.37.71 2.37 1.88 0 .82-.38 1.39-1.14 1.67l1.56 2.38h-1.76l-.01-.01zm-1.02-4.77h-.68v1.43h.68c.68 0 .86-.31.86-.71 0-.42-.21-.72-.86-.72zM14.87 108.82v-5.93h4.31v1.22h-2.83v1.02h2.58l-.38 1.23H16.3s.04.09.04.16v1.09h2.83v1.22h-4.31l.01-.01zM21.48 108.82v-5.93h4.31v1.22h-2.83v1.02h2.58l-.38 1.23h-2.25s.04.09.04.16v1.09h2.83v1.22h-4.31l.01-.01zM32.09 108.82l-2.62-3.46c.03.11.07.22.07.34v3.12h-1.46v-5.93h1.27l2.63 3.46c-.04-.13-.07-.24-.07-.39v-3.07h1.46v5.93h-1.28zM41.81 108.94c-2.24 0-2.68-1.56-2.68-3.09 0-1.8.62-3.09 2.68-3.09 1.61 0 2.35.88 2.44 2.17h-1.37c-.1-.67-.4-.94-1.08-.94-.96 0-1.17.56-1.17 1.86 0 1.2.17 1.87 1.17 1.87.62 0 1-.25 1.34-.99l1.14.67c-.38.88-1.04 1.55-2.48 1.55l.01-.01zM50.21 108.82l-.45-1.19h-1.97l-.45 1.19h-1.48l2.3-5.93h1.32l2.29 5.93h-1.56zm-1.37-3.66c-.02-.07-.05-.16-.07-.25-.02.09-.05.19-.07.25l-.47 1.28h1.07l-.46-1.28zM56 106.87h-.78c.04.06.07.16.07.23v1.72h-1.48v-5.93H56c1.6 0 2.39.69 2.39 1.95s-.77 2.03-2.39 2.03zm0-2.82h-.71v1.66H56c.62 0 .89-.25.89-.87 0-.58-.26-.79-.89-.79zM60.63 108.82v-5.93h1.48v5.93h-1.48zM67.51 104.1v4.72h-1.49v-4.72h-1.7v-1.21h4.89v1.21h-1.7zM74.52 108.82l-.45-1.19H72.1l-.45 1.19h-1.48l2.3-5.93h1.32l2.29 5.93h-1.56zm-1.37-3.66c-.02-.07-.05-.16-.07-.25-.02.09-.05.19-.07.25l-.47 1.28h1.07l-.46-1.28zM78.12 108.82v-5.93h1.48v4.65h2.35v1.28h-3.83z" fill="#fff"/><path d="m24.65 38.26 3.02-16 3.02 16" fill="#fff"/><path d="M53.34 118.47s8.41-1.1 8.65-1.14c.36-.06.69-.13.99-.21.68-.19 1.31-.47 1.86-.85.53-.36 1.03-.88 1.52-1.45.31-.36.64-.84.94-1.3v-.22c-.36.54-.72 1.01-1.09 1.42-.49.54-1 .99-1.52 1.33-.54.35-1.14.61-1.8.77-.29.07-.61.13-.96.18-.23.03-.47.06-.7.08l-7.89.84v.55z" fill="#C6C6C6"/><path d="M64.62 117.04c-.53.3-1.13.53-1.81.66-.29.06-.6.11-.96.14l-.63.06c-.11 0-.23.02-.34.03-2.58.23-5.14.48-7.54.72v.55c2.42-.29 5-.6 7.57-.9.11-.01.23-.03.34-.04.21-.02.42-.05.63-.08.37-.05.69-.11.98-.17.7-.16 1.33-.41 1.87-.74s1.02-.79 1.54-1.35c.32-.35.68-.84 1.01-1.31v-.2c-.39.54-.77.99-1.14 1.37-.5.52-1.02.94-1.54 1.24" fill="#C6C6C6"/><path d="M66.09 116.91c-.51.47-1.05.85-1.59 1.11-.53.26-1.13.44-1.82.55-.29.05-.6.09-.95.12l-8.39.69v.55l7.46-.8.96-.1c.36-.04.68-.09.97-.14.72-.14 1.33-.34 1.88-.62.56-.29 1.12-.76 1.64-1.26.35-.34.68-.77 1.04-1.23v-.18c-.42.52-.81.95-1.21 1.32" fill="#C6C6C6"/><path d="M64.06 119.76c-.49.27-.85.43-1.55.51-.42.05-.85.07-1.27.09l-.61.03c-1.27.07-2.51.15-3.78.24l-3.5.24v.55l3.54-.33c1.14-.1 2.47-.22 3.77-.33l.94-.07c.37-.03.67-.06.95-.1a7.77 7.77 0 0 0 1.87-.45c.59-.22 1.14-.56 1.69-.96.5-.36 1.19-1.08 1.19-1.09v-.19c-.45.44-.71.69-1.2 1.02-.59.39-1.59.6-2.03.85" fill="#C6C6C6"/><path d="M64.24 120.8c-.53.16-1.12.26-1.82.32-.28.02-.59.04-.93.06l-.94.04c-2.33.11-4.65.23-7.21.37v.55c2.44-.19 4.84-.38 7.23-.55l.94-.06c.36-.02.66-.05.94-.08.71-.08 1.32-.2 1.87-.38.6-.19 1.19-.47 1.74-.83.41-.26.82-.57 1.24-.95-.47.39-.91.48-1.36.75-.54.33-1.12.59-1.7.76z" fill="#C6C6C6"/><path d="M64.15 121.71c-.53.13-1.11.21-1.82.25-.27.02-.57.03-.92.04l-.93.03c-2.34.09-4.71.19-7.14.3v.55c2.41-.17 4.77-.33 7.16-.48l.93-.06c.36-.02.66-.04.93-.07.72-.07 1.31-.16 1.85-.31.61-.16 1.21-.39 1.77-.69.43-.23.87-.51 1.31-.85v-.23c-.48.35-.95.64-1.41.87-.55.28-1.13.49-1.73.63" fill="#C6C6C6"/><path d="M64.07 122.6c-.53.1-1.11.16-1.81.2-.26.01-.55.02-.92.03l-8 .22v.55l7.1-.37.92-.05c.36-.02.65-.03.92-.06.71-.05 1.3-.13 1.84-.25.62-.13 1.22-.32 1.78-.56.46-.19.91-.43 1.39-.72v-.22c-.51.3-.99.54-1.47.73-.56.22-1.15.39-1.75.5z" fill="#C6C6C6"/><path d="M64.01 123.49c-.98.13-1.99.15-2.97.16-.22 0-.45 0-.67.01l-7.03.13v.55l7.04-.31.67-.03c.98-.04 2-.08 3-.24.63-.1 1.24-.25 1.8-.44.47-.16.95-.36 1.45-.6v-.21c-.52.24-1.02.44-1.51.6-.56.17-1.15.3-1.77.39M63.95 124.39c-.92.08-1.86.08-2.77.08h-.85c-2.33.01-4.64.03-6.99.05v.55c2.24-.08 4.62-.16 7-.23.28 0 .56-.02.85-.02.92-.02 1.86-.05 2.79-.15.65-.07 1.24-.17 1.81-.31.49-.12 1-.29 1.51-.48v-.2c-.53.19-1.05.34-1.56.46-.56.12-1.14.21-1.78.26M63.92 125.28c-.38.02-.8.02-1.27.02h-.53l-1.81-.02c-1.24 0-2.47-.01-3.62-.01h-3.34v.55l3.35-.09c1.15-.03 2.39-.06 3.62-.08l1.81-.02c.5 0 1.15-.02 1.82-.07.65-.04 1.24-.11 1.81-.2.51-.08 1.03-.19 1.55-.33v-.19c-.54.12-1.07.22-1.59.29-.56.08-1.15.13-1.79.15M62.09 126.14l-1.8-.02c-2.3-.03-4.6-.08-6.95-.12v.55c2.24-.02 4.61-.03 6.95-.06l1.81-.03c.61-.01 1.2-.02 1.81-.04 1.24-.04 2.35-.13 3.39-.27v-.19c-1.04.11-2.16.17-3.4.18h-1.8M67.3 127.1l-13.96-.35v.54H67.3v-.19zM66.04 117.94c-.53.43-.94.73-1.59.99-.56.23-1.17.32-1.86.41-.45.06-.91.16-1.36.19-.18.01-.37.02-.55.04l-7.34.54v.55l7.37-.72.96-.09c.35-.03.67-.07.96-.12.71-.12 1.33-.29 1.88-.54.57-.25 1.15-.67 1.69-1.13.37-.31.72-.7 1.1-1.13v-.2c-.46.48-.85.87-1.26 1.2M73.23 113.29s2.51 4 2.97 4.73c.46.73.98 1.31 2.84 1.71 1.86.39 2.67.58 2.67.58v.14s-1.18-.25-2.7-.59c-1.52-.34-2.14-.45-2.83-1.42-.58-.8-2.95-4.21-2.95-4.21v-.94zM73.23 117.86s2.29 2.4 2.95 3.08c.7.73 1.6 1 2.84 1.22 1.19.21 2.69.46 2.69.46v.14s-1.41-.23-2.69-.45c-1.25-.21-2.13-.33-2.85-1-.64-.59-2.94-2.75-2.94-2.75v-.7z" fill="#C6C6C6"/><path d="M73.23 118.94s2.17 2.02 2.95 2.71c.71.63 1.29.83 2.85 1.11 1.56.28 2.68.45 2.68.45v.14s-1.41-.23-2.69-.43c-1.27-.2-2.08-.28-2.84-.9-.88-.71-2.95-2.42-2.95-2.42v-.66z" fill="#C6C6C6"/><path d="M73.23 120.09s2.48 1.97 2.95 2.31c.46.34 1.08.75 2.86 1 1.77.25 2.67.38 2.67.38v.15s-1.6-.23-2.67-.37c-1.07-.14-1.89-.19-2.85-.83-.94-.62-2.96-2.04-2.96-2.04v-.61.01z" fill="#C6C6C6"/><path d="M73.23 121.19s2.49 1.66 2.96 1.92c.47.26 1.03.69 2.84.92 1.82.23 2.67.34 2.67.34v.14s-1.5-.16-2.68-.29c-1.18-.13-1.98-.3-2.85-.78-.88-.48-2.95-1.69-2.95-1.69v-.56h.01z" fill="#C6C6C6"/><path d="M73.23 122.3s2.2 1.2 2.95 1.57c.83.42 1.55.62 2.85.77 1.28.15 2.68.3 2.68.3v.14s-1.3-.14-2.68-.27c-1.37-.13-1.86-.19-2.85-.63-.89-.39-2.95-1.35-2.95-1.35v-.53z" fill="#C6C6C6"/><path d="M73.23 123.42s1.74.75 2.96 1.23c1.2.48 2.12.52 2.85.6.32.04 2.66.28 2.66.28v.14s-1.4-.11-2.67-.22-1.82-.16-2.85-.5c-1.04-.35-2.96-1.01-2.96-1.01v-.5l.01-.02zM73.23 124.56s1.76.54 2.95.86c1.2.31 2.3.44 2.85.48.55.04 2.67.21 2.67.21v.13s-1.21-.08-2.68-.19c-1.19-.08-2.15-.17-2.85-.33-.78-.17-2.95-.69-2.95-.69v-.47h.01zM73.23 125.69s1.44.25 2.95.5c1.14.19 2.68.31 2.84.32.17 0 2.68.18 2.68.18v.13s-1.61-.08-2.68-.14c-1.11-.06-2.22-.13-2.85-.19-1.41-.15-2.95-.34-2.95-.34v-.45l.01-.01zM73.23 126.85s2.27.09 2.95.1c.69.02 5.52.21 5.52.21v.13h-8.48v-.44h.01zM79.03 120.35c-2.05-.44-2.52-1.19-2.86-1.66-.34-.46-2.94-4.26-2.94-4.26v.86c.1.13 2.32 3.04 2.95 3.84.7.9 1.8 1.11 2.85 1.33 1.05.23 2.68.54 2.68.54v-.12s-2.15-.42-2.68-.54" fill="#C6C6C6"/><path d="M79.03 120.95c-1.68-.33-2.37-.86-2.86-1.51-.49-.64-2.94-3.87-2.94-3.87v.81c.1.12 2.34 2.77 2.94 3.46.7.8 1.68 1.01 2.86 1.23l2.68.5v-.12s-1.71-.32-2.68-.51" fill="#C6C6C6"/><path d="M79.03 121.57c-1.75-.34-2.11-.62-2.85-1.43-.47-.51-2.85-3.32-2.95-3.44v.75s2.22 2.37 2.94 3.07c.94.92 1.82.99 2.86 1.18l2.68.49v-.13s-1.98-.35-2.68-.49z" fill="#C6C6C6"/><path d="M71.36 119.12H59.14v8.18h12.22v-8.18z" fill="#164194"/><path d="M65.39 120.28h.42l-.34.26.13.43-.34-.26-.34.26.13-.43-.34-.26h.42l.13-.42.13.42zM65.4 125.73h.43l-.35.26.14.41-.34-.25-.35.25.14-.41-.35-.26h.43l.13-.4.12.4zM66.75 125.37h.43l-.35.26.14.41-.34-.26-.35.26.14-.41-.35-.26h.43l.13-.4.12.4zM66.75 120.64h.43l-.35.26.14.41-.34-.26-.35.26.14-.41-.35-.26h.43l.13-.4.12.4zM67.75 121.64h.43l-.35.26.14.41-.34-.25-.34.25.13-.41-.35-.26h.43l.13-.39.12.39zM67.75 124.38h.43l-.35.26.14.41-.34-.25-.34.25.13-.41-.35-.26h.43l.13-.4.12.4zM68.13 122.99h.42l-.34.26.13.41-.34-.26-.34.26.13-.41-.34-.26h.42l.13-.4.13.4zM64.01 120.64h.43l-.35.26.14.41-.35-.25-.34.25.14-.41-.35-.26h.43l.12-.39.13.39zM63.04 121.65h.42l-.34.25.13.41-.34-.25-.34.25.13-.41-.34-.25h.42l.13-.4.13.4zM62.68 122.99h.42l-.34.26.13.41-.34-.25-.34.25.13-.41-.34-.26h.42l.13-.39.13.39zM63.04 124.39h.42l-.34.25.13.41-.34-.25-.34.25.13-.41-.34-.25h.42l.13-.4.13.4zM64.02 125.37h.43l-.34.26.13.41-.34-.25-.34.25.13-.41-.34-.26h.42l.13-.39.12.39z" fill="#FFEC44"/><path d="m13.27 122.55-.22-.94h-1.19l-.49.94h-.48l1.64-3.18h.5l.72 3.18h-.49.01zm-.55-2.41c-.01-.07-.02-.15-.02-.22-.01.05-.05.15-.08.21l-.55 1.07h.88l-.24-1.07.01.01zM16.41 121.04l-.22 1.51h-.47l.22-1.5c0-.07.01-.13.01-.19 0-.27-.12-.37-.35-.37-.22 0-.4.08-.51.15l-.2.13-.26 1.78h-.47l.34-2.37h.37l.04.24c.29-.19.44-.31.81-.31.37 0 .69.21.69.72 0 .07 0 .14-.02.21h.02zM18.46 122.55H18l.34-2.37h.46l-.34 2.37zm.47-2.94s0 .04-.04.04h-.47s-.04 0-.03-.04l.07-.45s0-.04.04-.04h.47s.04 0 .03.04l-.07.45zM21.34 121.04l-.22 1.51h-.47l.22-1.5c0-.07.01-.13.01-.19 0-.27-.12-.37-.35-.37-.22 0-.4.08-.51.15l-.2.13-.26 1.78h-.47l.34-2.37h.37l.04.24c.29-.19.44-.31.81-.31.37 0 .69.21.69.72 0 .07 0 .14-.02.21h.02zM22.2 122.55h-.46l.34-2.37h.46l-.34 2.37zm.47-2.94s0 .04-.04.04h-.47s-.04 0-.03-.04l.07-.45s0-.04.04-.04h.47s.04 0 .03.04l-.07.45zM24.48 120.58h-.71l-.19 1.36v.08c0 .15.07.23.24.23.14 0 .31-.07.43-.16l.23.27c-.24.2-.51.26-.8.26-.34 0-.56-.2-.56-.56v-.14l.17-1.19s.02-.09.07-.15h-.43l.06-.4h.38l.12-.8.48-.14-.14.94h.83l-.18.4zM25.29 122.55h-.46l.34-2.37h.46l-.34 2.37zm.47-2.94s0 .04-.04.04h-.47s-.04 0-.03-.04l.07-.45s0-.04.04-.04h.47s.04 0 .03.04l-.07.45zM28.05 120.83l-.25 1.72h-.38l-.03-.17c-.26.17-.5.24-.78.24-.47 0-.73-.29-.73-.67v-.13c.09-.63.57-.77 1.02-.77.21 0 .44.03.63.07l.04-.3v-.07c0-.18-.12-.26-.4-.26s-.49.07-.67.29l-.32-.21c.26-.36.66-.46 1.07-.46.66 0 .79.31.79.59v.13h.01zm-1.1.59c-.33 0-.6.12-.6.49 0 .25.15.32.32.32.28 0 .47-.07.74-.23l.08-.52c-.21-.04-.36-.06-.55-.06h.01zM29.37 120.58l-.19 1.36v.08c0 .15.07.23.24.23.14 0 .31-.07.43-.16l.23.27c-.24.2-.51.26-.8.26-.34 0-.56-.2-.56-.56v-.14l.17-1.19s.02-.09.07-.15h-.43l.06-.4h.38l.12-.8.49-.14-.14.94h.83l-.18.4h-.72zM30.89 122.55h-.46l.34-2.37h.46l-.34 2.37zm.47-2.94s0 .04-.04.04h-.47s-.04 0-.03-.04l.07-.45s0-.04.04-.04h.47s.04 0 .03.04l-.07.45zM32.7 122.55h-.48l-.56-2.37h.48l.36 1.52c.02.09.04.16.04.32.04-.15.07-.22.12-.31l.8-1.52h.48l-1.25 2.37.01-.01zM36.17 121.37l-.02.15h-1.69c0 .09-.02.15-.02.22 0 .34.15.51.56.51.31 0 .52-.1.68-.35l.37.15c-.25.4-.58.59-1.11.59-.66 0-.96-.31-.96-.92 0-.1 0-.22.02-.34.11-.78.46-1.25 1.31-1.25.72 0 .88.51.88.95 0 .11-.01.22-.03.3l.01-.01zm-.93-.86c-.42 0-.63.15-.73.63h1.19c0-.06.01-.1.01-.14 0-.29-.13-.49-.48-.49h.01zM39.99 121.37c-.11.81-.47 1.26-1.27 1.26-.67 0-.93-.37-.93-.93 0-.1 0-.22.02-.33.12-.84.47-1.25 1.26-1.25.67 0 .93.37.93.93 0 .1 0 .21-.03.33l.02-.01zm-.97-.86c-.44 0-.64.21-.74.86-.02.13-.03.24-.03.33 0 .4.17.53.52.53.43 0 .64-.2.74-.87.02-.13.03-.23.03-.33 0-.4-.17-.53-.52-.53v.01zM42.3 119.57c-.21-.06-.32-.07-.47-.07-.24 0-.41.11-.46.46l-.04.22h.75l-.15.38h-.66l-.38 2.66h-.47l.37-2.49c0-.05.03-.11.06-.17h-.38l.06-.38h.34l.03-.22c.08-.67.54-.85 1-.85.1 0 .19 0 .28.03.09.01.17.04.26.05l-.14.37v.01zM45.01 120.58h-.71l-.19 1.36v.08c0 .15.07.23.24.23.14 0 .31-.07.43-.16l.23.27c-.24.2-.51.26-.8.26-.34 0-.56-.2-.56-.56v-.14l.17-1.19s.02-.09.07-.15h-.43l.06-.4h.38l.12-.8.48-.14-.14.94h.83l-.18.4zM47.6 121.04l-.22 1.51h-.47l.22-1.5c0-.07.01-.13.01-.19 0-.27-.12-.37-.35-.37-.29 0-.47.13-.71.28l-.26 1.78h-.47l.5-3.43h.46l-.15 1.11c-.01.08-.06.18-.08.22.29-.19.47-.33.84-.33s.69.21.69.72c0 .07 0 .14-.02.21l.01-.01zM50.25 121.37l-.02.15h-1.69c0 .09-.02.15-.02.22 0 .34.15.51.56.51.31 0 .52-.1.68-.35l.37.15c-.25.4-.58.59-1.11.59-.66 0-.96-.31-.96-.92 0-.1 0-.22.02-.34.11-.78.46-1.25 1.31-1.25.72 0 .88.51.88.95 0 .11-.01.22-.03.3l.01-.01zm-.93-.86c-.42 0-.63.15-.73.63h1.19c0-.06.01-.1.01-.14 0-.29-.13-.49-.48-.49h.01zM6.35 124.57H4.74l-.12.87h1.45l-.18.43H4.52s.01.1 0 .14l-.13.9H6l-.06.42H3.88l.46-3.18h2.07l-.06.42zM8.48 127.33h-.37l-.04-.24c-.26.17-.48.31-.81.31-.37 0-.69-.21-.69-.72 0-.07 0-.13.01-.21l.22-1.51h.46l-.21 1.5c0 .07-.02.14-.02.19 0 .28.12.37.35.37.29 0 .48-.15.71-.29l.26-1.78h.47l-.35 2.37.01.01zM10.71 125.32c-.07 0-.16-.02-.26-.02-.15 0-.3.03-.41.11l-.18.13-.26 1.8h-.47l.34-2.37h.38l.02.22c.24-.18.34-.29.67-.29.08 0 .15 0 .22.02l-.06.41.01-.01zM13.02 126.14c-.11.81-.47 1.26-1.27 1.26-.67 0-.93-.37-.93-.93 0-.1 0-.22.02-.33.12-.84.47-1.25 1.26-1.25.67 0 .93.37.93.93 0 .1 0 .21-.03.33l.02-.01zm-.96-.86c-.44 0-.64.21-.74.86-.02.13-.03.24-.03.33 0 .4.17.53.52.53.43 0 .64-.2.74-.87.02-.13.03-.23.03-.33 0-.4-.17-.53-.52-.53v.01zM15.7 126.11c-.12.85-.52 1.29-1.31 1.29-.2 0-.37-.06-.5-.15l-.16 1.14h-.47l.5-3.43h.32l.06.23c.3-.24.51-.3.7-.3.63 0 .89.38.89.94 0 .09 0 .18-.02.27l-.01.01zm-.92-.83c-.23 0-.36.06-.64.25l-.19 1.35c.18.13.33.18.5.18.44 0 .69-.27.79-.94.01-.1.02-.2.02-.28 0-.37-.13-.56-.47-.56h-.01zM18.31 126.14l-.02.15H16.6c0 .09-.02.15-.02.22 0 .34.15.51.56.51.31 0 .52-.1.68-.35l.37.15c-.25.4-.58.59-1.11.59-.66 0-.96-.31-.96-.92 0-.1 0-.22.02-.34.11-.78.46-1.25 1.31-1.25.72 0 .88.51.88.95 0 .11-.01.22-.03.3l.01-.01zm-.93-.86c-.42 0-.63.15-.73.63h1.19c0-.06.01-.1.01-.14 0-.29-.13-.49-.48-.49h.01zM20.82 125.61l-.25 1.72h-.38l-.03-.17c-.26.17-.5.24-.78.24-.47 0-.73-.29-.73-.67v-.13c.09-.63.57-.77 1.02-.77.21 0 .44.03.63.07l.04-.3v-.07c0-.18-.12-.26-.4-.26s-.49.07-.67.29l-.32-.21c.26-.36.66-.46 1.07-.46.66 0 .79.31.79.59v.13h.01zm-1.1.59c-.34 0-.6.12-.6.49 0 .25.15.32.32.32.28 0 .47-.07.74-.23l.08-.52c-.21-.04-.36-.06-.55-.06h.01zM23.45 125.82l-.22 1.51h-.47l.22-1.5c0-.07.01-.13.01-.19 0-.27-.12-.37-.35-.37-.22 0-.4.08-.51.15l-.2.13-.26 1.78h-.47l.34-2.37h.37l.04.24c.29-.19.44-.31.81-.31.37 0 .69.21.69.72 0 .07 0 .14-.02.21h.02zM27.25 125.02c0-.32-.12-.54-.61-.54-.73 0-.89.49-1 1.25-.03.17-.04.34-.04.49 0 .45.15.77.72.77.36 0 .62-.15.83-.52l.34.22c-.22.38-.55.71-1.23.71-.83 0-1.12-.5-1.12-1.2 0-.15.01-.3.04-.46.15-1.06.54-1.66 1.52-1.66.71 0 1 .44 1 .87v.07h-.45zM30.16 126.14c-.11.81-.47 1.26-1.27 1.26-.67 0-.93-.37-.93-.93 0-.1 0-.22.02-.33.12-.84.47-1.25 1.26-1.25.67 0 .93.37.93.93 0 .1 0 .21-.03.33l.02-.01zm-.97-.86c-.44 0-.64.21-.74.86-.02.13-.03.24-.03.33 0 .4.17.53.52.53.43 0 .64-.2.74-.87.02-.13.03-.23.03-.33 0-.4-.17-.53-.52-.53v.01zM34.06 125.84l-.22 1.49h-.46l.22-1.5c.01-.08.02-.15.02-.22 0-.21-.07-.34-.25-.34-.27 0-.48.15-.7.29 0 .07-.01.15-.02.21l-.22 1.57h-.47l.22-1.54c0-.07.01-.14.01-.2 0-.21-.07-.32-.26-.32-.26 0-.47.15-.68.27l-.26 1.79h-.46l.34-2.37h.37l.04.23c.2-.13.47-.3.72-.3.31 0 .51.07.64.34.27-.17.46-.34.8-.34.44 0 .62.25.62.68 0 .08 0 .17-.02.27l.02-.01zM38 125.84l-.22 1.49h-.46l.22-1.5c.01-.08.02-.15.02-.22 0-.21-.07-.34-.25-.34-.27 0-.48.15-.7.29 0 .07-.01.15-.02.21l-.22 1.57h-.47l.22-1.54c0-.07.01-.14.01-.2 0-.21-.07-.32-.26-.32-.26 0-.47.15-.68.27l-.26 1.79h-.46l.34-2.37h.37l.04.23c.2-.13.47-.3.72-.3.31 0 .51.07.64.34.27-.17.46-.34.8-.34.44 0 .62.25.62.68 0 .08 0 .17-.02.27l.02-.01zM38.87 127.33h-.46l.34-2.37h.46l-.34 2.37zm.47-2.94s0 .04-.04.04h-.47s-.04 0-.03-.04l.07-.45s0-.04.04-.04h.47s.04 0 .03.04l-.07.45zM41.16 125.51c-.08-.15-.22-.25-.5-.25-.25 0-.52.08-.52.38 0 .1.05.18.2.2l.54.09c.31.05.55.27.55.58 0 .64-.56.88-1.11.88-.41 0-.75-.16-.87-.52l.41-.14c.07.2.25.29.51.29.28 0 .59-.1.59-.43 0-.13-.08-.21-.23-.24l-.57-.1a.565.565 0 0 1-.48-.57c0-.6.52-.8 1.04-.8.43 0 .71.15.83.44l-.38.18-.01.01zM43.53 125.51c-.08-.15-.22-.25-.5-.25-.25 0-.52.08-.52.38 0 .1.05.18.2.2l.54.09c.31.05.55.27.55.58 0 .64-.56.88-1.11.88-.41 0-.75-.16-.87-.52l.41-.14c.08.2.25.29.51.29.28 0 .59-.1.59-.43 0-.13-.08-.21-.22-.24l-.57-.1a.565.565 0 0 1-.48-.57c0-.6.52-.8 1.04-.8.43 0 .71.15.83.44l-.38.18-.02.01zM44.71 127.33h-.46l.34-2.37h.46l-.34 2.37zm.47-2.94s0 .04-.04.04h-.47s-.04 0-.03-.04l.07-.45s0-.04.04-.04h.47s.04 0 .03.04l-.07.45zM47.6 126.14c-.11.81-.47 1.26-1.27 1.26-.67 0-.93-.37-.93-.93 0-.1 0-.22.02-.33.12-.84.47-1.25 1.26-1.25.67 0 .93.37.93.93 0 .1 0 .21-.03.33l.02-.01zm-.97-.86c-.44 0-.64.21-.74.86-.02.13-.03.24-.03.33 0 .4.17.53.52.53.43 0 .64-.2.74-.87.02-.13.03-.23.03-.33 0-.4-.17-.53-.52-.53v.01zM50.22 125.82l-.22 1.51h-.47l.22-1.5c0-.07.01-.13.01-.19 0-.27-.12-.37-.35-.37-.22 0-.4.08-.51.15l-.2.13-.26 1.78h-.47l.34-2.37h.37l.04.24c.29-.19.44-.31.81-.31.37 0 .69.21.69.72 0 .07 0 .14-.02.21h.02zM4.36 10.64C1.53 10.64.44 8.81.44 5.88c0-2.64.91-4.76 3.92-4.76 2.24 0 3.33 1.38 3.44 3.02H6.31c-.11-.86-.73-1.56-1.96-1.56-1.79 0-2.23 1.2-2.23 3.3 0 1.97.42 3.34 2.23 3.34.66 0 1.39-.22 1.79-.51V7.14c0-.1.04-.18.06-.28H4.49l-.37-1.42H7.8v3.84c-.73.63-1.85 1.35-3.45 1.35l.01.01zM15.51 10.45l-2.06-3.22a.838.838 0 0 1-.11-.3H12.3v3.52h-1.66V1.33h3.04c2.27 0 3.31 1.14 3.31 2.82 0 1.24-.6 2.15-1.86 2.56l2.38 3.75h-2v-.01zm-1.84-7.71h-1.38v2.77h1.38c1.17 0 1.62-.53 1.62-1.37 0-.91-.5-1.41-1.62-1.41v.01zM19.67 10.45V1.33h5.95v1.41h-4.29v2.19h3.92l-.41 1.42h-3.56c.04.09.05.19.05.24v2.44h4.3v1.42h-5.97.01zM34.22 10.45l-4.39-6.1c.04.13.05.27.05.37v5.73h-1.66V1.33h1.43l4.4 6.13c-.05-.18-.06-.37-.06-.56V1.33h1.66v9.12h-1.43zM42.03 10.64c-3.1 0-3.8-2.16-3.8-4.86 0-2.43.71-4.66 3.8-4.66s3.83 2.23 3.83 4.66c0 2.7-.74 4.86-3.83 4.86zm0-8.06c-1.64 0-2.11 1.05-2.11 3.2 0 2.4.48 3.42 2.11 3.42s2.15-1.03 2.15-3.42c0-2.15-.5-3.2-2.15-3.2zM51.71 10.45h-3.27V1.33h3.27c1.93 0 2.99.8 2.99 2.49 0 .67-.35 1.38-.98 1.72.78.3 1.38 1.03 1.38 2.06 0 1.99-1.35 2.85-3.39 2.85zM50.1 2.67v2.35h1.74c.79 0 1.19-.46 1.19-1.2s-.4-1.15-1.31-1.15H50.1zm1.73 3.62h-1.74v2.82h1.61c1.35 0 1.7-.71 1.7-1.51 0-.92-.62-1.32-1.58-1.32l.01.01zM57.54 10.45V1.33h1.66v7.56h3.6v1.56h-5.26zM65.37 10.45V1.33h5.95v1.41h-4.29v2.19h3.92l-.41 1.42h-3.56c.04.09.05.19.05.24v2.44h4.3v1.42h-5.97.01zM38.82 25.13c-.32.14-.63.22-.91.24-.96.07-1.89-.66-2.8-2.19-.03-.08-.06-.11-.1-.11-.11 0-.27.42-.49 1.24-.28 1.07-.75 1.8-1.42 2.19-.14.03-.29.05-.42.06-.86.06-1.32-.41-1.39-1.4-.04-.63.07-1.41.35-2.33l.51-1.7c.2-.06.38-.1.54-.11.23-.02.41.03.54.14-.47 1.13-.78 2.18-.94 3.15-.08.47-.11.81-.09 1.04.02.33.15.49.39.47.28-.02.57-.26.85-.71.23-.36.39-.72.48-1.09.12-.45.32-.99.62-1.63.15-.33.31-.51.48-.52.12 0 .24.08.37.25l.34.59c.41.74.89 1.28 1.44 1.64.19.12.39.18.61.16.47-.03 1-.38 1.6-1.05.75-.85 1.14-2.14 1.16-3.88v-.96c.09-.76.19-1.15.29-1.15.11 0 .23.36.36 1.09.07.38.11.76.14 1.14.17 2.4-.67 4.21-2.5 5.43h-.01zM42.76 18.22l-.25.02c-.15-.05-.24-.09-.27-.13-.12-.07-.19-.28-.21-.62.03-.16.2-.25.51-.27.1.04.23.09.39.13.01.05.06.1.14.17l.02.25c0 .06-.11.21-.34.45h.01zm.32 5.21c-.08.04-.24.07-.5.06-.01.09-.03.15-.05.18-.02.09-.04.02-.06-.22 0-.11-.01-.33-.02-.66l-.02-1.73c-.02-.28-.05-.8-.08-1.55.28.09.46.23.53.43.05.12.13.76.24 1.91.03.34.02.87-.05 1.58h.01zM48.14 24.52c-.33-.37-.59-1.03-.79-1.97l-.45-2.28c-.11-.57-.19-.92-.25-1.04-.13-.31-.29-.47-.47-.45-.08 0-.15.04-.23.09-.29.22-.54.57-.75 1.05-.29 1.59-.59 2.74-.89 3.46l-.24-.03c-.18-.07-.27-.14-.28-.22.11-.22.32-1.32.61-3.28.27-1.82.47-2.73.57-2.72l.35.33c.03.4 0 .75-.09 1.04-.06.42-.09.69-.1.82.38-.7.78-1.17 1.18-1.41.1-.03.18-.04.26-.05.27-.02.47.15.6.52.05.14.09.44.14.9.17 1.67.46 3.08.87 4.25.21.56.48.84.82.84.32 0 .67-.28 1.03-.82.18-.27.3-.4.37-.41.03 0 .05.02.05.06 0 .05-.02.14-.05.28-.14.5-.41.89-.81 1.18-.16.11-.33.17-.52.18-.28.02-.59-.09-.92-.32h-.01z" fill="#fff"/><path d="M53.65 24.13c-.33-.37-.59-1.03-.79-1.97l-.45-2.28c-.11-.57-.19-.92-.25-1.04-.13-.31-.29-.47-.47-.45-.08 0-.15.04-.23.09-.29.22-.54.57-.75 1.05-.29 1.59-.59 2.74-.89 3.46l-.24-.03c-.18-.07-.27-.14-.28-.22.11-.22.31-1.32.61-3.28.27-1.82.47-2.73.57-2.72l.35.33c.03.4 0 .75-.09 1.04-.06.42-.09.69-.1.82.38-.7.78-1.17 1.18-1.41.1-.03.18-.04.26-.05.27-.02.47.15.6.52.05.14.09.44.14.9.17 1.67.46 3.08.87 4.25.21.56.48.84.82.84.32 0 .67-.28 1.03-.82.18-.27.3-.4.37-.41.03 0 .05.02.05.06 0 .05-.01.14-.05.28-.14.5-.41.89-.81 1.17-.16.11-.33.17-.52.18-.28.02-.59-.09-.92-.32l-.01.01z" fill="#fff"/><path d="M58.86 23.43c-.45.52-.98.8-1.58.85-.5.03-.94-.13-1.32-.48-.33-.42-.55-.94-.67-1.56-.51.07-.78.03-.8-.11-.04-.23.12-.36.46-.39h.31c.05-1.02.39-1.72 1.03-2.1.39-.22.72-.33 1.01-.31.72.06 1.24.48 1.56 1.27.03.14.05.26.06.38.01.18 0 .32-.04.44-.02.38-.67.62-1.95.71-.27.02-.58.04-.91.06.03.46.17.85.4 1.16.27.37.63.53 1.07.47.39-.04.71-.2.96-.48.16-.18.31-.27.45-.28.06 0 .11.01.16.05l-.2.29v.03zm-2.12-3.4c-.42.15-.65.54-.7 1.19-.02.09-.03.17-.03.24.02.21.18.31.49.29.12 0 .25-.02.41-.03.18-.01.33-.02.47-.03.64-.05.95-.27.92-.68-.03-.44-.21-.75-.55-.93-.18-.09-.36-.14-.52-.14-.14 0-.3.05-.49.11v-.02z" fill="#fff"/><path d="M62.06 18.51c-.27.36-.45.93-.56 1.7-.09.66-.18 1-.27 1.02-.28-.06-.42-.25-.44-.57-.01-.15-.02-.39-.02-.72 0-.3 0-.54-.02-.7-.05-.69-.23-1.04-.56-1.04-.23 0-.54.21-.96.6-.13.13-.4.41-.82.84-.13.1-.22.15-.25.15 0 0-.02 0-.02-.01 0-.05.14-.25.44-.6.43-.52.71-.83.83-.93.28-.24.55-.38.83-.4.52-.04.87.38 1.06 1.24.29-.66.64-1.17 1.05-1.54.41-.37.95-.65 1.62-.85.09.14.14.26.14.36.01.17-.11.26-.36.29-.4.04-.96.43-1.7 1.18l.01-.02zM69.9 21.14h-.13c-.09.02-.2-.01-.33-.07l-.21-.07-.7.05c-.15.01-.64.24-1.47.69-.17.09-.29.14-.36.14l-.42.03c-.11-.07-.22-.15-.31-.24v-.15c-.03-.26.14-.71.5-1.34.14-.24.39-.67.75-1.3.86-1.51 1.27-2.78 1.24-3.79h-.28c-.11 0-.43.27-.97.8-.54.52-.87.88-1.01 1.06l-.5.03a.584.584 0 0 1-.13-.14l-.02-.34c.43-.46.7-.74.81-.85.37-.37.66-.61.88-.72.23-.36.47-.55.71-.56l.83-.06c.21.23.33.5.35.81.07 1.04-.5 2.72-1.71 5.03-.06.11-.16.31-.3.58l.63-.24c.32-.12.57-.19.72-.2l.59-.04c.29-.02.61.17.95.58l-.11.3v.01zM73.88 16.72c-.02.22-.09.63-.19 1.23-.42 2.3-1.1 3.49-2.06 3.56-.1 0-.25-.02-.46-.09a.756.756 0 0 0-.25-.19c-.22-.37-.37-.66-.44-.88-.07-.22-.13-.54-.16-.96-.05-.75.09-1.61.44-2.59.38-1.08.85-1.79 1.41-2.14.19-.05.38-.09.55-.1.27-.02.52 0 .73.08.14.16.27.39.39.71.08.15.13.46.17.91 0 .05-.04.2-.12.45l-.01.01zm-.6-1.46c-.06-.05-.12-.11-.17-.17a1.199 1.199 0 0 0-.86.12c-.09.1-.15.16-.18.17-.06.06-.13.15-.2.25-.37.99-.61 1.64-.7 1.97-.2.73-.28 1.42-.24 2.07.03.36.19.76.48 1.21.1.02.16.03.18.03l.28-.02c.49-.44.89-1.19 1.2-2.25.29-.97.42-1.83.37-2.56-.02-.34-.07-.61-.15-.82h-.01zM78.64 20.53h-.13c-.09.02-.2-.01-.33-.07l-.21-.07-.7.05c-.15.01-.64.24-1.47.69-.17.09-.29.14-.36.14l-.42.03c-.11-.07-.22-.15-.31-.24v-.15c-.03-.26.14-.71.5-1.35.14-.23.39-.67.75-1.3.86-1.51 1.27-2.78 1.23-3.79h-.28c-.11 0-.43.27-.97.8s-.87.88-1.01 1.06l-.5.03a.584.584 0 0 1-.13-.14l-.02-.34c.43-.46.7-.74.81-.85.37-.37.66-.61.88-.72.23-.36.47-.55.71-.56l.83-.06c.21.23.33.5.35.81.07 1.04-.5 2.72-1.71 5.03-.06.11-.16.31-.3.58l.63-.24c.32-.12.57-.19.72-.2l.59-.04c.29-.02.61.17.95.58l-.11.3.01.02zM82.97 20.23h-.13c-.09.02-.2-.01-.33-.07l-.21-.07-.7.05c-.15.01-.64.24-1.47.69-.17.09-.29.14-.36.14l-.42.03c-.11-.07-.22-.15-.31-.24v-.15c-.03-.26.14-.71.5-1.34.14-.24.39-.67.75-1.3.86-1.51 1.27-2.78 1.24-3.79h-.28c-.11 0-.43.27-.97.8-.54.52-.87.88-1.01 1.06l-.5.03a.584.584 0 0 1-.13-.14l-.02-.34c.43-.46.7-.74.81-.85.37-.37.66-.61.88-.72.23-.36.47-.55.71-.56l.83-.06c.21.23.33.5.35.81.07 1.04-.5 2.72-1.71 5.03-.06.11-.16.31-.3.58l.63-.24c.32-.12.57-.19.72-.2l.59-.04c.29-.02.61.17.95.58l-.11.3v.01z" fill="#fff"/><path d="M114.69 1.33h-1.04v125.96h1.04V1.33z" fill="#575756"/><path d="M114.69 1.33h-1.04v125.96h1.04V1.33z" fill="#575756"/><path d="M114.69 1.33h-1.04v125.96h1.04V1.33z" fill="#575756"/><path d="M114.69 1.33h-1.04v125.96h1.04V1.33z" fill="#575756"/><path d="M114.69 1.33h-1.04v125.96h1.04V1.33z" fill="#575756"/><path d="M114.69 1.33h-1.04v125.96h1.04V1.33z" fill="#575756"/><path d="M114.69 1.33h-1.04v125.96h1.04V1.33zM48.18 148.19l.17.6h1.66c0 .06-.05.17-.05.28v1.35c-.5.34-.88.49-1.51.49-1.66 0-1.97-1-1.98-2.66 0-1.78.35-2.65 1.97-2.65 1.05 0 1.46.49 1.54 1.05h.63c-.06-.77-.63-1.67-2.17-1.67-2.03 0-2.67 1.15-2.66 3.27 0 2.01.54 3.28 2.69 3.28 1.11 0 1.75-.5 2.17-.86v-2.49h-2.46v.01zM55.54 148.15h-1.29v-2.41h1.29c.95 0 1.52.31 1.53 1.22 0 .91-.57 1.19-1.53 1.19zm2.22-1.19c0-1.08-.64-1.83-2.23-1.83h-1.97l.02 6.27h.68v-2.64h1.25c0 .08.05.28.1.35l1.49 2.29h.83l-1.76-2.68c1.11-.21 1.58-.85 1.58-1.77M61.39 150.79v-2.04c0-.16-.06-.35-.06-.35h2.84l.17-.62h-2.96v-2.04h3.31v-.61h-4l.02 6.27h4.01v-.61h-3.33zM68.16 150.79v-2.04c0-.16-.06-.35-.06-.35h2.84l.17-.62h-2.96v-2.04h3.31v-.61h-4l.02 6.27h4.01v-.61h-3.33zM78.6 145.13l.02 4.85c0 .13.02.18.05.34l-3.78-5.19h-.64l.02 6.27h.68l-.02-4.83c0-.17-.04-.3-.06-.38l3.79 5.21h.64l-.02-6.27h-.68zM84.64 146.25c.65 0 1.07.32 1.15.88l.02.14h1.32v-.18c-.09-1.03-.78-2.12-2.49-2.12-.83 0-1.49.24-1.96.7-.55.55-.82 1.41-.82 2.58 0 2.17.95 3.28 2.79 3.28.89 0 1.67-.3 2.41-.92l.06-.05v-2.75h-2.85l.34 1.26h1.06v.95c-.25.15-.66.26-1.02.26-.95 0-1.33-.57-1.33-2.02 0-.88.12-1.41.41-1.7.2-.2.5-.3.9-.3M92.7 147.11c0 .23-.06.39-.17.51-.15.15-.4.22-.75.22h-.75v-1.48h.75c.82 0 .92.4.92.75zm1.46 0c0-1.28-.87-2.01-2.38-2.01h-2.19l.02 6.3h1.44v-2.3h.4l.06.12 1.38 2.1.05.08h1.73l-1.65-2.53c.75-.31 1.15-.91 1.15-1.76M96.53 145.1l.02 6.3h4.31v-1.26h-2.87l-.01-1.42h2.3l.37-1.26h-2.67l-.01-1.1h2.87l-.01-1.26h-4.3zM107 145.1l.01 3.61-2.61-3.54-.05-.07h-1.2l.02 6.3h1.44l-.02-3.6 2.62 3.54.05.06h1.2l-.02-6.3H107zM114.72 148.18c0 .95-.12 1.51-.41 1.79-.19.19-.46.28-.85.28-.93 0-1.24-.52-1.25-2.07 0-.87.12-1.38.39-1.65.18-.19.46-.28.84-.28.93 0 1.27.5 1.27 1.93h.01zm-1.29-3.21c-.82 0-1.46.23-1.91.67-.53.53-.78 1.36-.78 2.54 0 1.43.29 3.34 2.71 3.34.83 0 1.47-.23 1.92-.67.55-.55.8-1.4.79-2.67 0-2.13-.93-3.21-2.74-3.21M120.92 148.68c.89 0 .89.52.89.7 0 .26-.06.46-.19.59-.15.15-.41.23-.77.23h-.91v-1.52h.99-.01zm-.99-1.16v-1.21h.91c.59 0 .71.23.71.59 0 .21-.05.36-.15.46-.1.1-.26.16-.47.16h-1zm2.59.48c.31-.27.49-.67.49-1.1 0-.82-.38-1.8-2.17-1.8h-2.35l.02 6.3h2.35c.85 0 1.49-.21 1.91-.63.34-.34.51-.81.51-1.4 0-.59-.28-1.09-.76-1.38M125.46 145.1l.03 6.3h3.84l-.01-1.35h-2.4l-.02-4.95h-1.44zM131.6 145.1l.02 6.3h4.32l-.01-1.26h-2.87l-.01-1.42h2.31l.36-1.26h-2.67v-1.1h2.86l-.01-1.26h-4.3zM142.52 146.75c0-1.13-.82-1.75-1.88-1.75-1.62 0-2.09.95-2.14 1.66h.63c.08-.57.4-1.05 1.51-1.05.7 0 1.17.36 1.18 1.14 0 1.65-3.4 1.91-3.39 4.65h4.09v-1.53h-.64v.92h-2.67c.4-1.74 3.32-2.1 3.31-4.04zM147.63 150.94c-1.28 0-1.4-1.05-1.41-2.75 0-1.63.12-2.58 1.39-2.58s1.4.96 1.41 2.58c0 1.7-.11 2.75-1.39 2.75zm-.02-5.95c-1.76 0-2.1 1.35-2.09 3.2 0 1.91.29 3.35 2.12 3.35s2.1-1.43 2.09-3.35c0-1.85-.36-3.2-2.12-3.2zM156.75 146.75c0-1.13-.82-1.75-1.88-1.75-1.62 0-2.09.95-2.14 1.66h.63c.08-.57.4-1.05 1.51-1.05.7 0 1.17.36 1.18 1.14 0 1.65-3.4 1.91-3.39 4.65h4.09v-1.53h-.64v.92h-2.67c.4-1.74 3.31-2.1 3.31-4.04zM163.87 146.75c0-1.13-.82-1.75-1.88-1.75-1.62 0-2.09.95-2.14 1.66h.63c.08-.57.4-1.05 1.51-1.05.7 0 1.17.36 1.18 1.14 0 1.65-3.4 1.91-3.39 4.65h4.09v-1.53h-.64v.92h-2.67c.4-1.74 3.31-2.1 3.31-4.04zM168.08 149.81H167c-.23 0-.26.14-.26.27v1.05c0 .19.08.26.26.26h1.08c.22 0 .25-.13.25-.27v-1.05c0-.13-.02-.27-.25-.27M170.82 145.1l.02 6.3h4.32l-.01-1.26h-2.87l-.01-1.42h2.3l.37-1.26h-2.67l-.01-1.1h2.87v-1.26h-4.31zM182.52 145.1h-1.44v3.65c.02.58-.1.98-.33 1.22-.19.19-.46.28-.84.28-.84 0-1.18-.43-1.18-1.5v-3.65h-1.46v3.65c.02 1.79.95 2.78 2.64 2.78.81 0 1.46-.23 1.91-.69.48-.48.72-1.19.71-2.1v-3.65l-.01.01z" fill="#fff"/></svg>