<svg width="187" height="44" fill="none" xmlns="http://www.w3.org/2000/svg"><path d="M65.438.258h-65V43.6h65V.26z" fill="#034EA2"/><path d="m31.563 9.701 1.375-1.008L34.29 9.7l-.504-1.627 1.375-.985h-1.696l-.527-1.65-.527 1.65h-1.719l1.398.985-.527 1.627zM24.458 11.604l1.375-1.009 1.375 1.009-.527-1.605 1.398-1.008H26.36l-.527-1.65-.527 1.65h-1.72l1.399 1.008-.527 1.605zM20.63 12.543l-.527 1.65h-1.696l1.375 1.01-.527 1.604 1.375-.986 1.375.986-.527-1.605 1.398-1.008h-1.719l-.527-1.65zM18.728 22.903l1.375 1.009-.527-1.628 1.398-1.008h-1.719l-.527-1.628-.527 1.628h-1.72l1.399 1.008-.527 1.628 1.375-1.009zM21.157 28.38l-.527-1.626-.527 1.65-1.696-.023 1.375 1.008-.527 1.628 1.375-1.009 1.375 1.009-.527-1.628 1.398-1.008h-1.719zM26.36 33.606l-.527-1.65-.527 1.65H23.61l1.375.986-.504 1.627 1.352-1.008 1.375 1.008-.527-1.627 1.398-.986H26.36zM33.465 35.486l-.527-1.65-.527 1.65h-1.719l1.398.985-.527 1.628 1.375-1.009L34.29 38.1l-.504-1.628 1.375-.985h-1.696zM40.547 33.606l-.527-1.65-.527 1.65h-1.719l1.398.986-.527 1.627 1.375-1.008 1.375 1.008-.527-1.627 1.398-.986h-1.719zM45.75 28.38l-.527-1.626-.527 1.65-1.72-.023 1.399 1.008-.527 1.628 1.375-1.009 1.375 1.009-.527-1.628 1.398-1.008H45.75zM49.349 21.253h-1.72l-.527-1.628-.527 1.628h-1.719l1.398 1.008-.527 1.628 1.375-1.009 1.376 1.009-.528-1.628 1.398-1.008zM43.848 16.784l1.375-.986 1.375.986-.527-1.605 1.398-1.008H45.75l-.527-1.627-.527 1.627h-1.72l1.399 1.008-.527 1.605zM40.043 7.34l-.527 1.65h-1.719L39.195 10l-.527 1.604 1.375-1.009 1.376 1.009-.528-1.605 1.398-1.008H40.57l-.527-1.65z" fill="#FFEC44"/><path d="M75.62 10.89V2.257h5.93v1.453h-4.172v2.045h3.6v1.452h-3.6v3.66H75.62v.021zM82.982 3.792V2.258h1.657v1.534h-1.657zm0 7.097V4.631h1.657v6.258h-1.657zM92.022 10.89h-1.657V7.698c0-.675-.04-1.105-.102-1.31a.895.895 0 0 0-.348-.47 1.046 1.046 0 0 0-.572-.163c-.287 0-.553.082-.778.245a1.214 1.214 0 0 0-.47.634c-.082.266-.123.737-.123 1.432v2.843h-1.656V4.63h1.534v.921c.552-.716 1.227-1.063 2.065-1.063.368 0 .696.061 1.002.204.307.123.532.307.696.512.163.204.266.43.327.695.061.266.082.634.082 1.104v3.886zM94.926 6.553l-1.493-.265c.164-.614.45-1.044.88-1.35.409-.287 1.022-.43 1.84-.43.737 0 1.289.082 1.657.266.368.184.614.389.757.675.143.266.225.757.225 1.473l-.02 1.922c0 .552.02.961.081 1.207.061.266.143.531.307.838h-1.636a4.45 4.45 0 0 1-.164-.49.828.828 0 0 0-.061-.205c-.287.266-.594.49-.9.613a2.538 2.538 0 0 1-1.023.205c-.654 0-1.145-.184-1.513-.532-.368-.348-.553-.797-.553-1.33 0-.347.082-.674.246-.94.163-.286.409-.49.716-.634.306-.143.736-.266 1.309-.389.777-.143 1.309-.286 1.615-.409v-.163c0-.327-.081-.552-.245-.675-.164-.143-.45-.205-.9-.205-.286 0-.532.062-.695.184a1.28 1.28 0 0 0-.43.634zm2.23 1.33a8.941 8.941 0 0 1-1.003.245c-.45.102-.756.205-.9.287a.667.667 0 0 0-.327.593c0 .225.082.43.266.593.164.163.389.245.655.245.306 0 .593-.102.859-.286a.957.957 0 0 0 .388-.552c.041-.144.062-.41.062-.798v-.327zM106.093 10.89h-1.657V7.698c0-.675-.041-1.105-.102-1.31a.893.893 0 0 0-.348-.47 1.043 1.043 0 0 0-.572-.163 1.3 1.3 0 0 0-.777.245 1.216 1.216 0 0 0-.471.634c-.082.266-.123.737-.123 1.432v2.843h-1.656V4.63h1.534v.921c.552-.716 1.227-1.063 2.065-1.063.369 0 .696.061 1.003.204.306.123.531.307.695.512.164.204.266.43.327.695.062.266.082.634.082 1.104v3.886zM113.231 6.492l-1.636.286c-.062-.327-.184-.572-.368-.736-.205-.163-.45-.245-.757-.245-.409 0-.736.143-.982.43-.245.286-.368.756-.368 1.43 0 .737.123 1.269.368 1.576.246.307.593.45 1.002.45.307 0 .573-.082.777-.266.205-.184.348-.491.43-.92l1.636.286c-.164.736-.491 1.309-.982 1.697-.47.389-1.124.573-1.922.573-.92 0-1.636-.286-2.188-.859-.553-.573-.819-1.37-.819-2.393 0-1.043.266-1.84.819-2.413.552-.573 1.288-.86 2.208-.86.757 0 1.371.164 1.821.492.45.286.777.797.961 1.472zM118.119 8.905l1.657.287a2.741 2.741 0 0 1-1.003 1.39c-.449.307-1.022.471-1.718.471-1.083 0-1.902-.348-2.413-1.064-.409-.572-.613-1.288-.613-2.147 0-1.043.265-1.84.818-2.434.552-.593 1.227-.88 2.065-.88.941 0 1.657.307 2.209.921.532.614.798 1.554.777 2.822h-4.151c.02.491.143.88.409 1.146.245.266.572.409.961.409.266 0 .47-.062.654-.205.184-.143.246-.409.348-.716zm.082-1.677c-.021-.47-.143-.838-.368-1.084a1.145 1.145 0 0 0-.859-.368c-.368 0-.655.123-.9.389-.246.266-.348.613-.348 1.063h2.475zm-2.107-3.354.818-1.759h1.861l-1.615 1.76h-1.064zM124.5 4.63h1.534v.921c.204-.307.47-.572.818-.756.348-.205.716-.287 1.145-.287.737 0 1.35.287 1.841.86.511.572.757 1.37.757 2.372 0 1.043-.246 1.86-.757 2.433-.511.573-1.125.86-1.861.86-.348 0-.655-.062-.941-.205-.286-.143-.573-.368-.879-.716v3.15H124.5V4.63zm1.636 3.028c0 .695.143 1.227.409 1.554.286.327.614.511 1.023.511.388 0 .695-.163.961-.47.245-.307.389-.818.389-1.513 0-.655-.123-1.146-.389-1.452a1.2 1.2 0 0 0-.982-.47c-.409 0-.736.163-1.002.47-.266.286-.409.756-.409 1.37zM133.151 6.553l-1.493-.265c.164-.614.45-1.044.88-1.35.409-.287 1.022-.43 1.84-.43.737 0 1.289.082 1.657.266.368.184.614.389.757.675.143.266.225.757.225 1.473l-.021 1.922c0 .552.021.961.082 1.207.062.266.143.531.307.838h-1.636a4.563 4.563 0 0 1-.164-.49.832.832 0 0 0-.061-.205c-.287.266-.593.49-.9.613a2.539 2.539 0 0 1-1.023.205c-.654 0-1.145-.184-1.513-.532-.368-.348-.552-.797-.552-1.33 0-.347.081-.674.245-.94.164-.286.409-.49.716-.634.307-.143.736-.266 1.309-.389.777-.143 1.309-.286 1.616-.409v-.163c0-.327-.082-.552-.246-.675-.164-.143-.45-.205-.9-.205-.286 0-.532.062-.695.184a1.285 1.285 0 0 0-.43.634zm2.23 1.33a8.983 8.983 0 0 1-1.003.245c-.449.102-.756.205-.899.287a.667.667 0 0 0-.328.593c0 .225.082.43.266.593.164.163.389.245.655.245.306 0 .593-.102.859-.286a.956.956 0 0 0 .388-.552c.041-.144.062-.41.062-.798v-.327zM140.228 10.89h-1.657V4.63h1.534v.9c.266-.429.491-.695.716-.838.204-.143.45-.204.716-.204.368 0 .736.102 1.084.307l-.512 1.452c-.286-.184-.531-.266-.777-.266a.975.975 0 0 0-.593.184c-.164.123-.286.368-.389.695-.102.327-.143 1.043-.143 2.107v1.922h.021zM75.599 25.37v-8.631h1.656v8.63H75.6zM78.912 16.759h1.657v1.186c0 .47-.041.86-.123 1.125a1.575 1.575 0 0 1-.47.736c-.225.225-.512.389-.88.512l-.327-.675c.327-.102.573-.266.716-.45.143-.184.225-.45.225-.798h-.798V16.76zM82.307 16.739h1.739v4.683c0 .737.02 1.227.061 1.452.082.348.245.634.532.86.286.204.654.327 1.145.327.49 0 .86-.103 1.125-.307.245-.205.409-.45.45-.736.04-.287.082-.778.082-1.473v-4.786h1.738v4.54c0 1.044-.04 1.78-.143 2.189-.102.43-.266.798-.511 1.084a2.52 2.52 0 0 1-1.023.695c-.43.184-.982.266-1.657.266-.818 0-1.452-.102-1.881-.286a2.513 2.513 0 0 1-1.002-.736 2.392 2.392 0 0 1-.491-.962c-.123-.49-.164-1.227-.164-2.188v-4.622zM96.705 25.37H95.05v-3.191c0-.675-.041-1.104-.103-1.309a.896.896 0 0 0-.347-.47 1.046 1.046 0 0 0-.573-.164c-.286 0-.552.082-.777.245a1.214 1.214 0 0 0-.47.634c-.082.266-.123.737-.123 1.432v2.843h-1.657V19.11h1.534v.92c.552-.715 1.227-1.063 2.066-1.063.368 0 .695.061 1.002.204.307.123.532.307.695.512.164.204.266.43.328.695.06.266.081.634.081 1.105v3.885zM98.383 18.273v-1.534h1.656v1.534h-1.656zm0 7.097V19.11h1.656v6.259h-1.656zM101.368 22.159c0-.553.144-1.084.409-1.596a2.91 2.91 0 0 1 1.146-1.186 3.427 3.427 0 0 1 1.656-.41c.941 0 1.718.308 2.332.921.614.614.9 1.391.9 2.332 0 .94-.307 1.738-.92 2.352-.614.613-1.371.94-2.312.94a3.51 3.51 0 0 1-1.636-.388c-.511-.266-.92-.634-1.186-1.145-.266-.491-.389-1.105-.389-1.82zm1.698.081c0 .614.143 1.105.45 1.432.286.327.654.49 1.084.49.429 0 .798-.163 1.084-.49.286-.327.429-.818.429-1.432 0-.613-.143-1.084-.429-1.41a1.389 1.389 0 0 0-1.084-.492c-.43 0-.798.164-1.084.491-.307.327-.45.798-.45 1.411zM114.806 25.37h-1.657v-3.191c0-.675-.041-1.104-.102-1.309a.898.898 0 0 0-.348-.47 1.048 1.048 0 0 0-.573-.164c-.286 0-.552.082-.777.245a1.214 1.214 0 0 0-.47.634c-.082.266-.123.737-.123 1.432v2.843h-1.657V19.11h1.534v.92c.553-.715 1.228-1.063 2.066-1.063.368 0 .695.061 1.002.204.307.123.532.307.696.512.163.204.265.43.327.695.061.266.082.634.082 1.105v3.885zM123.457 23.386l1.656.286a2.734 2.734 0 0 1-1.002 1.39c-.45.328-1.022.471-1.718.471-1.084 0-1.902-.348-2.413-1.063-.409-.573-.614-1.289-.614-2.148 0-1.043.266-1.84.818-2.434.553-.593 1.228-.88 2.066-.88.941 0 1.657.308 2.209.921.532.614.798 1.555.777 2.823h-4.152c.021.49.144.879.409 1.145.246.266.573.409.962.409.266 0 .47-.061.654-.205.184-.143.266-.409.348-.715zm.102-1.677c-.02-.47-.143-.839-.368-1.084a1.145 1.145 0 0 0-.859-.369c-.368 0-.655.123-.9.389s-.348.614-.348 1.064h2.475zM130.677 25.37v-.941a2.617 2.617 0 0 1-.9.797 2.584 2.584 0 0 1-1.166.287 2.24 2.24 0 0 1-1.125-.287 1.645 1.645 0 0 1-.716-.777c-.143-.327-.225-.798-.225-1.39V19.11h1.657v2.884c0 .88.02 1.411.082 1.615a.858.858 0 0 0 .327.47c.164.124.368.165.613.165.287 0 .532-.082.757-.226.225-.163.368-.347.45-.572.082-.225.123-.798.123-1.698v-2.638h1.656v6.258h-1.533zM135.503 25.37h-1.656V19.11h1.534v.9c.265-.43.49-.695.715-.838.205-.144.45-.205.716-.205.368 0 .737.102 1.084.307l-.511 1.452c-.286-.184-.532-.266-.777-.266a.973.973 0 0 0-.593.184c-.164.123-.287.368-.389.695-.102.328-.143 1.044-.143 2.107v1.922h.02zM138.244 22.159c0-.553.143-1.084.409-1.596.266-.511.654-.9 1.145-1.186a3.428 3.428 0 0 1 1.657-.41c.941 0 1.718.308 2.331.921.614.614.9 1.391.9 2.332 0 .94-.307 1.738-.92 2.352-.614.613-1.37.94-2.311.94a3.504 3.504 0 0 1-1.636-.388c-.512-.266-.921-.634-1.187-1.145-.265-.491-.388-1.105-.388-1.82zm1.677.081c0 .614.143 1.105.45 1.432.286.327.654.49 1.084.49a1.39 1.39 0 0 0 1.084-.49c.286-.327.429-.818.429-1.432 0-.613-.143-1.084-.429-1.41a1.39 1.39 0 0 0-1.084-.492c-.43 0-.798.164-1.084.491-.286.327-.45.798-.45 1.411zM145.934 19.111h1.534v.92c.204-.306.47-.572.818-.756.348-.205.716-.287 1.145-.287.736 0 1.35.287 1.841.86.511.572.757 1.37.757 2.372 0 1.043-.246 1.861-.757 2.434-.511.572-1.125.859-1.861.859-.348 0-.655-.062-.941-.205-.286-.143-.573-.368-.88-.716v3.15h-1.656v-8.63zm1.636 3.027c0 .695.143 1.227.409 1.554.286.328.614.512 1.023.512.388 0 .695-.164.961-.47.245-.308.389-.819.389-1.514 0-.655-.123-1.145-.389-1.452a1.2 1.2 0 0 0-.982-.47c-.409 0-.736.163-1.002.47-.266.286-.409.756-.409 1.37zM156.978 23.386l1.657.286a2.74 2.74 0 0 1-1.002 1.39c-.45.328-1.023.471-1.718.471-1.084 0-1.902-.348-2.414-1.064-.409-.572-.613-1.288-.613-2.147 0-1.043.266-1.84.818-2.434.552-.593 1.227-.88 2.065-.88.941 0 1.657.308 2.209.921.532.614.798 1.555.777 2.823h-4.151c.02.49.143.879.409 1.145.245.266.572.409.961.409.266 0 .47-.061.654-.205.184-.143.266-.409.348-.715zm.102-1.677c-.02-.47-.143-.84-.368-1.084a1.145 1.145 0 0 0-.859-.369 1.15 1.15 0 0 0-.9.389c-.245.266-.347.614-.347 1.064h2.474zm-2.127-3.355.818-1.759h1.862l-1.616 1.76h-1.064zM163.686 23.386l1.657.286a2.734 2.734 0 0 1-1.002 1.39c-.45.328-1.023.471-1.718.471-1.084 0-1.902-.348-2.413-1.063-.41-.573-.614-1.289-.614-2.148 0-1.043.266-1.84.818-2.434.552-.593 1.227-.88 2.066-.88.941 0 1.656.308 2.209.921.531.614.797 1.555.777 2.823h-4.152c.02.49.143.879.409 1.145.245.266.573.409.961.409.266 0 .471-.061.655-.205.184-.143.266-.409.347-.715zm.103-1.677c-.021-.47-.143-.839-.368-1.084a1.145 1.145 0 0 0-.859-.369c-.369 0-.655.123-.9.389-.246.266-.348.614-.348 1.064h2.475zM172.481 25.37h-1.657v-3.191c0-.675-.041-1.104-.102-1.309a.893.893 0 0 0-.348-.47 1.042 1.042 0 0 0-.572-.164c-.287 0-.553.082-.778.245a1.214 1.214 0 0 0-.47.634c-.082.266-.123.737-.123 1.432v2.843h-1.656V19.11h1.534v.92c.552-.715 1.227-1.063 2.065-1.063.368 0 .696.061 1.002.204.307.123.532.307.696.512.163.204.266.43.327.695.061.266.082.634.082 1.105v3.885zM179.844 25.37h-1.657v-3.191c0-.675-.041-1.104-.102-1.309a.898.898 0 0 0-.348-.47 1.048 1.048 0 0 0-.573-.164c-.286 0-.552.082-.777.245a1.214 1.214 0 0 0-.47.634c-.082.266-.123.737-.123 1.432v2.843h-1.657V19.11h1.534v.92c.553-.715 1.228-1.063 2.066-1.063.368 0 .695.061 1.002.204.307.123.532.307.696.512.163.204.265.43.327.695.061.266.082.634.082 1.105v3.885zM185.141 23.386l1.656.286a2.734 2.734 0 0 1-1.002 1.39c-.45.328-1.022.471-1.718.471-1.084 0-1.902-.348-2.413-1.063-.409-.573-.614-1.289-.614-2.148 0-1.043.266-1.84.818-2.434.553-.593 1.227-.88 2.066-.88.941 0 1.657.308 2.209.921.532.614.798 1.555.777 2.823h-4.152c.021.49.143.879.409 1.145.246.266.573.409.962.409.265 0 .47-.061.654-.205.184-.143.266-.409.348-.715zm.102-1.677c-.02-.47-.143-.839-.368-1.084a1.145 1.145 0 0 0-.859-.369c-.368 0-.655.123-.9.389s-.348.614-.348 1.064h2.475zM75.616 40.483v-7.466h1.013l3.922 5.862v-5.862h.947v7.466h-1.013l-3.922-5.867v5.867h-.947zM86.75 38.741l.947.117c-.15.554-.427.983-.83 1.289-.405.305-.92.458-1.549.458-.791 0-1.42-.243-1.884-.728-.462-.49-.693-1.173-.693-2.053 0-.91.234-1.616.703-2.118.468-.503 1.076-.754 1.823-.754.723 0 1.314.246 1.773.738.458.493.687 1.185.687 2.078 0 .055-.002.136-.005.245h-4.034c.034.594.202 1.049.505 1.365a1.5 1.5 0 0 0 1.13.473c.336 0 .623-.088.861-.264.238-.177.426-.459.565-.846zm-3.01-1.482h3.02c-.041-.455-.157-.796-.347-1.024a1.405 1.405 0 0 0-1.136-.53c-.42 0-.776.142-1.064.423-.285.282-.443.66-.474 1.131zM88.242 40.483l1.976-2.811-1.829-2.598h1.146l.83 1.268c.157.241.282.443.377.606.15-.224.287-.422.413-.596l.912-1.278h1.095l-1.87 2.547 2.012 2.862h-1.126l-1.11-1.68-.295-.454-1.421 2.134h-1.11zM96.07 39.663l.132.81a3.401 3.401 0 0 1-.693.081c-.332 0-.59-.052-.774-.158a.887.887 0 0 1-.387-.412c-.075-.173-.112-.535-.112-1.085v-3.112h-.672v-.713h.672v-1.34l.912-.55v1.89h.922v.713h-.922v3.163c0 .261.015.43.046.504a.401.401 0 0 0 .157.178c.075.044.18.067.316.067.102 0 .236-.012.403-.036zM100.582 37.554v-.876l3.163-.005v2.771a5.64 5.64 0 0 1-1.503.876 4.488 4.488 0 0 1-1.589.29c-.733 0-1.4-.156-2.001-.468a3.131 3.131 0 0 1-1.355-1.365c-.305-.594-.458-1.258-.458-1.992 0-.726.15-1.404.453-2.032.305-.631.743-1.1 1.314-1.406.57-.305 1.227-.458 1.971-.458.54 0 1.027.088 1.462.265.438.173.781.416 1.029.728.247.313.436.72.565 1.223l-.891.244c-.112-.38-.252-.679-.418-.896-.166-.218-.404-.39-.713-.52a2.587 2.587 0 0 0-1.029-.198c-.452 0-.842.07-1.171.208-.33.136-.596.316-.8.54-.2.224-.357.47-.469.739-.19.462-.285.962-.285 1.502 0 .666.114 1.223.341 1.67.231.449.566.782 1.004.999.438.217.903.326 1.395.326.428 0 .846-.081 1.253-.245.408-.166.717-.342.927-.53v-1.39h-2.195zM108.792 38.741l.947.117c-.149.554-.426.983-.83 1.289-.404.305-.92.458-1.548.458-.791 0-1.419-.243-1.884-.728-.462-.49-.693-1.173-.693-2.053 0-.91.234-1.616.703-2.118.468-.503 1.076-.754 1.823-.754.723 0 1.314.246 1.772.738.459.493.688 1.185.688 2.078 0 .055-.002.136-.005.245h-4.034c.034.594.202 1.049.504 1.365.303.316.679.473 1.131.473.336 0 .623-.088.861-.264.237-.177.426-.459.565-.846zm-3.01-1.482h3.02c-.04-.455-.156-.796-.346-1.024a1.406 1.406 0 0 0-1.136-.53c-.421 0-.776.142-1.064.423-.285.282-.443.66-.474 1.131zM110.896 40.483v-5.409h.825v.77c.397-.595.971-.892 1.721-.892.326 0 .625.06.896.178.276.116.481.268.617.459.136.19.231.415.285.677.034.17.051.467.051.891v3.326h-.917v-3.29c0-.374-.036-.652-.107-.835a.861.861 0 0 0-.382-.444 1.18 1.18 0 0 0-.636-.168c-.391 0-.729.124-1.014.372-.282.248-.423.718-.423 1.411v2.954h-.916zM120.404 38.741l.948.117c-.15.554-.426.983-.831 1.289-.404.305-.92.458-1.548.458-.791 0-1.419-.243-1.884-.728-.462-.49-.693-1.173-.693-2.053 0-.91.234-1.616.703-2.118.469-.503 1.076-.754 1.823-.754.723 0 1.314.246 1.773.738.458.493.687 1.185.687 2.078 0 .055-.001.136-.005.245h-4.034c.034.594.202 1.049.505 1.365a1.5 1.5 0 0 0 1.13.473c.336 0 .623-.088.861-.264.238-.177.426-.459.565-.846zm-3.01-1.482h3.021c-.041-.455-.157-.796-.347-1.024a1.404 1.404 0 0 0-1.136-.53c-.421 0-.775.142-1.064.423-.285.282-.443.66-.474 1.131zM122.498 40.483v-5.409h.825v.82c.21-.384.404-.637.58-.759a1.03 1.03 0 0 1 .591-.183c.309 0 .623.098.942.295l-.315.85a1.317 1.317 0 0 0-.673-.198c-.2 0-.38.061-.54.184a.97.97 0 0 0-.341.499 3.567 3.567 0 0 0-.153 1.07v2.83h-.916zM129.511 39.816c-.34.288-.667.492-.983.61a2.816 2.816 0 0 1-1.009.18c-.594 0-1.05-.145-1.37-.434a1.445 1.445 0 0 1-.478-1.115c0-.265.059-.506.178-.723.122-.221.28-.398.474-.53.196-.132.417-.233.662-.3a6.53 6.53 0 0 1 .815-.138c.74-.088 1.285-.194 1.634-.316.004-.125.005-.205.005-.24 0-.373-.086-.636-.259-.789-.235-.207-.583-.31-1.044-.31-.432 0-.751.076-.958.229-.204.15-.355.416-.453.8l-.897-.123c.082-.383.216-.692.403-.927.187-.237.457-.419.81-.545a3.567 3.567 0 0 1 1.227-.193c.462 0 .837.054 1.126.163.288.108.5.246.636.412.136.163.231.37.285.622.031.156.046.438.046.845v1.223c0 .852.019 1.392.056 1.62.041.223.119.439.235.646h-.958a1.941 1.941 0 0 1-.183-.667zm-.077-2.048c-.332.136-.831.252-1.497.347-.377.054-.643.115-.8.183a.792.792 0 0 0-.489.733c0 .245.092.449.276.612.186.163.458.244.814.244.354 0 .668-.076.943-.23.275-.155.477-.367.606-.636.098-.207.147-.513.147-.916v-.337zM133.789 39.663l.132.81a3.401 3.401 0 0 1-.692.081c-.333 0-.591-.052-.774-.158a.88.88 0 0 1-.387-.412c-.075-.173-.113-.535-.113-1.085v-3.112h-.672v-.713h.672v-1.34l.912-.55v1.89h.922v.713h-.922v3.163c0 .261.015.43.046.504a.403.403 0 0 0 .158.178c.075.044.18.067.316.067.101 0 .236-.012.402-.036zM134.696 34.07v-1.053h.916v1.054h-.916zm0 6.413v-5.409h.916v5.409h-.916zM136.672 37.779c0-1.002.278-1.744.835-2.226.465-.4 1.032-.601 1.701-.601.744 0 1.351.244 1.823.733.472.486.708 1.158.708 2.017 0 .696-.105 1.245-.316 1.645a2.203 2.203 0 0 1-.911.927 2.64 2.64 0 0 1-1.304.331c-.757 0-1.37-.243-1.839-.728-.465-.486-.697-1.185-.697-2.099zm.942 0c0 .692.151 1.212.453 1.558.302.343.683.514 1.141.514.455 0 .834-.173 1.136-.52.302-.345.453-.873.453-1.583 0-.669-.153-1.175-.458-1.518a1.44 1.44 0 0 0-1.131-.52c-.458 0-.839.172-1.141.515-.302.343-.453.86-.453 1.553zM142.819 40.483v-5.409h.825v.77c.397-.595.971-.892 1.722-.892.325 0 .624.06.896.178.275.116.48.268.616.459.136.19.231.415.285.677.034.17.051.467.051.891v3.326h-.916v-3.29c0-.374-.036-.652-.107-.835a.87.87 0 0 0-.382-.444 1.183 1.183 0 0 0-.637-.168c-.39 0-.728.124-1.014.372-.281.248-.422.718-.422 1.411v2.954h-.917zM148.763 40.483v-7.466h5.398v.88h-4.41v2.287h4.13v.876h-4.13v2.542h4.583v.88h-5.571zM160.599 33.017h.988v4.313c0 .75-.085 1.347-.255 1.788-.169.441-.477.801-.922 1.08-.441.275-1.022.412-1.741.412-.7 0-1.272-.12-1.717-.361a2.068 2.068 0 0 1-.952-1.044c-.19-.459-.285-1.084-.285-1.875v-4.313h.988v4.308c0 .649.059 1.127.178 1.436.122.306.329.542.621.708.296.167.656.25 1.08.25.727 0 1.244-.165 1.553-.494.309-.33.464-.963.464-1.9v-4.309z" fill="#fff"/></svg>