<svg xmlns="http://www.w3.org/2000/svg" viewBox="0 0 255 150"><path d="M23.26,25.54c-6.9,5.2-13.08,13.09-17.94,24.84A51.57,51.57,0,0,0,2,73.65" style="fill:#d1e5e8"/><path d="M2,73.65c1.35,18.71,11.24,39.89,31,55.84,28.78,23.2,122.64,20.63,156.76,9.26,48.24-16.09,54.67-52.4,54.67-82.57S219.38,1.42,180.86,1.42c-22.74,0-40.31,30.92-87.42,25.47-14.69-1.7-25.52-10.67-38.52-10.67-10.84,0-22,2-31.66,9.32" style="fill:#d1e5e8"/><circle cx="100.68" cy="67.69" r="11.07" transform="translate(17.74 156.22) rotate(-80.78)" style="fill:#e1f1f2"/><path d="M170.07,47.34H6.67c-.45,1-.91,2-1.35,3s-.79,2.34-1.16,3.52H170.07A27.91,27.91,0,0,1,198,81.81h6.56A34.5,34.5,0,0,0,170.07,47.34Z" style="fill:#e1f1f2"/><path d="M170.07,41.5H9.66c-1,1.82-2,3.77-3,5.84h163.4a34.5,34.5,0,0,1,34.47,34.47h5.85A40.32,40.32,0,0,0,170.07,41.5Z" style="fill:#afdadc"/><path d="M100.68,55.57A1.67,1.67,0,0,1,99,53.9V18.43a1.67,1.67,0,1,1,3.34,0V53.9A1.67,1.67,0,0,1,100.68,55.57Z" style="fill:#9bd1d3"/><path d="M95,27.72h11.39a1.17,1.17,0,0,1,1.17,1.17V41.46a0,0,0,0,1,0,0H93.81a0,0,0,0,1,0,0V28.89A1.17,1.17,0,0,1,95,27.72Z" style="fill:#9bd1d3"/><path d="M100.68,53.9a13.79,13.79,0,1,0,13.78,13.79A13.78,13.78,0,0,0,100.68,53.9Zm0,24.85a11.07,11.07,0,1,1,11.06-11.06A11.06,11.06,0,0,1,100.68,78.75Z" style="fill:#9bd1d3"/><path d="M92.12,68.72a1,1,0,0,1-1-1,9.6,9.6,0,0,1,4.12-7.88,1,1,0,1,1,1.17,1.69,7.56,7.56,0,0,0-3.24,6.19A1,1,0,0,1,92.12,68.72Z" style="fill:#ffd600"/><path d="M100.68,77.28a9.6,9.6,0,0,1-9.59-9.59,1,1,0,1,1,2,0,7.53,7.53,0,0,0,15.06.22,1,1,0,0,1,1.07-1,1,1,0,0,1,1,1.06A9.54,9.54,0,0,1,100.68,77.28Z" style="fill:#ee7321"/><path d="M109.23,68.85a.94.94,0,0,1-1-.91,7.63,7.63,0,0,0-3.32-6.5,1,1,0,1,1,1.16-1.7,9.57,9.57,0,0,1,4.23,7.95A1.16,1.16,0,0,1,109.23,68.85Z" style="fill:#e84626"/><path d="M87.35,21.9a3.41,3.41,0,0,1-2.39-1,3.22,3.22,0,0,0,3.09,2.3h25.3a3.23,3.23,0,0,0,3.09-2.3,3.43,3.43,0,0,1-2.39,1Z" style="fill:#9bd1d3"/><path d="M113.35,16.76H88.05A3.22,3.22,0,0,0,85,20.92a3.41,3.41,0,0,0,2.39,1h26.7a3.43,3.43,0,0,0,2.39-1,3.22,3.22,0,0,0-3.09-4.16Z" style="fill:#afdadc"/><path d="M100.81,68.92l4.57,3.68a.15.15,0,0,0,.18,0l-4.2-4.2Z" style="fill:#4b7186"/><path d="M101.36,68.37l4.2,4.2a.14.14,0,0,0,0-.18l-3.67-4.57Z" style="fill:#9bd1d3"/><circle cx="100.68" cy="67.69" r="2.53" style="fill:#9bd1d3"/><path d="M77.26,71a5.24,5.24,0,0,0,2,1c1,.15-.63,1.61-.63,1.61l-2.81-.86Z" style="fill:#f6af95"/><path d="M75.93,73s-11.35-4.61-13.08-5.38-2.6-1.08-3.54-4S52.66,49,52.06,47.13c-1-3.26-4.76-4.49-2.62-4.91,5.61-1.11,11.92,4.19,12.49,7.47S63.31,58.16,64.64,61a14.79,14.79,0,0,0,3.66,3.9l9.13,6.07Z" style="fill:#ee7765"/><path d="M56.62,123s4.86,2.11,5.5,1.9.58-.53.23-.85-2.87-2.35-2.87-2.35l.36-.7-2.22-.76Z" style="fill:#1d1e1c"/><polygon points="59.67 120.97 64.12 113.87 60.64 112.47 57.62 120.27 59.67 120.97" style="fill:#f6af95"/><path d="M46.31,88.16s16,4.94,17.15,5.6,1.77,1.22.66,4.65S58.48,117,57.84,118.5c-.32.73,3.3,2.08,3.52,1.57.48-1.15,12-21.59,12.68-23.32s2.18-6-2.41-10.3-18.94-16.25-26.88-16Z" style="fill:#19576e"/><path d="M83.3,72.55v.88c.37,0,1.39.16,1.44.65a1.21,1.21,0,0,1-1,1.47l-1,.12h-2.9L80,77h2.74c1.72,0,3.37-.4,3.37-2.28C86.08,73.3,85.38,72.55,83.3,72.55Z" style="fill:#e1f1f2"/><rect x="76.75" y="72.07" width="5.7" height="2.14" style="fill:#1d1e1c"/><path d="M78.36,74.76c.85.37,2.47.13,2.66-.54a3.65,3.65,0,0,0-.19-2,3.25,3.25,0,0,0-2.6-.06c-.62.48-.07,1.61-.66,1.91S78.36,74.76,78.36,74.76Z" style="fill:#f6af95"/><rect x="82.33" y="71.78" width="1.59" height="2.73" style="fill:#1d1e1c"/><path d="M48.47,98s-2.41-7.9-2.54-8.36-.59-.72-2.09-1.28-1.71.56-1.68.75.33,1.53,1.52,1.31a1.06,1.06,0,0,1,1.07.59l2.44,7.25Z" style="fill:#d8d8d8"/><path d="M38.74,82.76a3,3,0,0,0-3.31,3.18c0,1.61,2.27,2.11,4.76,2.86a9.28,9.28,0,0,0,6.12-.64c1.28-.51-.19-3.87-2.06-3.87S41.34,82.76,38.74,82.76Z" style="fill:#1d1e1c"/><path d="M38.08,88c0,.61.24,3.63,1.76,3.63s2-2.16,2-3" style="fill:#1d1e1c"/><path d="M40.94,90.41c1.68,0,4.73-.24,5.23-.24s3.4-3.72,3.4-3.72" style="fill:none;stroke:#1d1e1c;stroke-miterlimit:10;stroke-width:0.4822594717240139px"/><path d="M122.82,123.44a.2.2,0,0,0-.15-.06h-19l17.61-7.21a.2.2,0,0,0,.11-.11.2.2,0,0,0,0-.17l0-.07-.07,0h-.16L103.48,123l13.46-13.46a.2.2,0,0,0,.06-.15.22.22,0,0,0-.06-.15l-.07,0h-.17l-.07,0-13.44,13.45,7.24-17.59a.22.22,0,0,0,0-.16.23.23,0,0,0-.12-.12.22.22,0,0,0-.16,0,.28.28,0,0,0-.12.12l-7.24,17.58v-19a.2.2,0,0,0-.06-.15.2.2,0,0,0-.3,0,.2.2,0,0,0-.06.15v19L95.09,105a.2.2,0,0,0-.11-.11.2.2,0,0,0-.17,0,.25.25,0,0,0-.11.12.18.18,0,0,0,0,.16L102,122.68,88.53,109.23a.22.22,0,0,0-.15-.06.2.2,0,0,0-.15.06.23.23,0,0,0-.07.15.21.21,0,0,0,.07.15L101.66,123l-17.53-7.32-.08,0a.15.15,0,0,0-.09,0l-.07,0a.25.25,0,0,0,0,.07.31.31,0,0,0,0,.08.29.29,0,0,0,0,.09s0,0,0,.06L84,116l17.58,7.34H82.49a.22.22,0,0,0-.15.06.23.23,0,0,0-.06.16.21.21,0,0,0,.21.21h19L83.91,131a.24.24,0,0,0-.1.1.17.17,0,0,0,0,.14.19.19,0,0,0,.07.12.21.21,0,0,0,.13,0h.08l17.61-7.21L88.23,137.64a.24.24,0,0,0-.06.11.17.17,0,0,0,0,.12.25.25,0,0,0,.08.1.21.21,0,0,0,.12,0h.08a.18.18,0,0,0,.07-.05L102,124.49l-7.24,17.59a.18.18,0,0,0,0,.16.22.22,0,0,0,.11.12h.08a.21.21,0,0,0,.12,0,.16.16,0,0,0,.08-.1l7.24-17.57v19a.2.2,0,0,0,.06.15.2.2,0,0,0,.3,0,.2.2,0,0,0,.06-.15v-19l7.29,17.57a.27.27,0,0,0,.08.1.24.24,0,0,0,.12,0h.08a.26.26,0,0,0,.12-.12.32.32,0,0,0,0-.16L103.2,124.5l13.43,13.44.07.05h.09a.2.2,0,0,0,.11,0,.16.16,0,0,0,.08-.1.25.25,0,0,0,0-.12.24.24,0,0,0-.06-.11L103.5,124.2,121,131.53h.08a.23.23,0,0,0,.14,0,.27.27,0,0,0,.07-.13.22.22,0,0,0,0-.14.18.18,0,0,0-.11-.1l-17.53-7.32h19a.2.2,0,0,0,.15-.06.22.22,0,0,0,.06-.15A.23.23,0,0,0,122.82,123.44Z" style="fill:#ebf6f6"/><path d="M102.58,101.26a22.11,22.11,0,1,0,15.63,6.47A22.1,22.1,0,0,0,102.58,101.26Zm0,3.78a18.35,18.35,0,1,1-13,5.37A18.32,18.32,0,0,1,102.58,105Z" style="fill:#1d1e1c"/><path d="M120.1,116.1a18.93,18.93,0,0,0-17.52-11.7v0a19,19,0,0,0-19,19h0a19,19,0,1,0,36.49-7.26Zm-5,19.77a17.69,17.69,0,1,1,4.84-9.06A17.74,17.74,0,0,1,115.09,135.87Z" style="fill:#ebf6f6"/><path d="M105,123.92a2.47,2.47,0,1,0-3,1.83A2.47,2.47,0,0,0,105,123.92Z" style="fill:#ffd600"/><path d="M50,122.66a24,24,0,0,0-46.23-9.2" style="fill:none;stroke:#1d1e1c;stroke-miterlimit:10;stroke-width:0.9284574958344156px"/><path d="M47.34,123.1a.23.23,0,0,0-.15-.07H27.86l17.89-7.32a.23.23,0,0,0,.12-.12.25.25,0,0,0,0-.17.25.25,0,0,0,0-.07l-.07,0h-.17L27.7,122.63,41.36,109a.2.2,0,0,0,0-.3.18.18,0,0,0-.07,0l-.08,0-.08,0a.18.18,0,0,0-.07,0L27.4,122.32l7.35-17.87a.22.22,0,0,0,0-.16.18.18,0,0,0-.12-.12.22.22,0,0,0-.16,0,.18.18,0,0,0-.12.12L27,122.15V102.84a.23.23,0,0,0-.07-.15.22.22,0,0,0-.3,0,.23.23,0,0,0-.07.15v19.3l-7.39-17.83a.22.22,0,0,0-.11-.12.25.25,0,0,0-.17,0,.2.2,0,0,0-.12.12.22.22,0,0,0,0,.16l7.4,17.85L12.51,108.66a.24.24,0,0,0-.16-.07.23.23,0,0,0-.15.07.22.22,0,0,0,0,.3l13.65,13.65L8,115.17H7.87a.26.26,0,0,0-.12.12.25.25,0,0,0,0,.08.28.28,0,0,0,0,.09l0,.07.07,0L25.72,123H6.38a.24.24,0,0,0-.16.07.22.22,0,0,0,0,.3.24.24,0,0,0,.16.07H25.66l-17.84,7.3a.22.22,0,0,0-.11.1.23.23,0,0,0,0,.14.21.21,0,0,0,.07.13.24.24,0,0,0,.14.05.11.11,0,0,0,.08,0l17.88-7.32L12.2,137.52a.2.2,0,0,0-.06.11.25.25,0,0,0,0,.12.27.27,0,0,0,.08.1.28.28,0,0,0,.12,0l.09,0,.07-.05,13.66-13.66L18.81,142a.22.22,0,0,0,0,.16.23.23,0,0,0,.12.12l.08,0a.21.21,0,0,0,.12,0,.16.16,0,0,0,.08-.1l7.35-17.85v19.31a.24.24,0,0,0,.07.16.22.22,0,0,0,.3,0,.24.24,0,0,0,.07-.16V124.32l7.4,17.85a.27.27,0,0,0,.08.1l.12,0a.11.11,0,0,0,.08,0,.13.13,0,0,0,.07,0,.12.12,0,0,0,0-.07.24.24,0,0,0,0-.08.29.29,0,0,0,0-.09l-7.39-17.83,13.65,13.65a.18.18,0,0,0,.07.05l.08,0a.25.25,0,0,0,.12,0,.16.16,0,0,0,.08-.1.17.17,0,0,0,0-.12.15.15,0,0,0-.06-.11L27.71,123.86l17.82,7.44a.11.11,0,0,0,.08,0,.23.23,0,0,0,.14,0,.26.26,0,0,0,.08-.13.26.26,0,0,0,0-.15.29.29,0,0,0-.12-.1l-17.8-7.43h19.3a.23.23,0,0,0,.15-.07.22.22,0,0,0,0-.3Z" style="fill:#ebf6f6"/><path d="M89.19,144H80.13C55.55,144,3,144.38,3,145.86c0,1.22,24.32,2.7,77.14,2.7L87,147Z" style="fill:#d1e5e8"/><path d="M26.78,100.56a22.45,22.45,0,1,0,15.88,6.57A22.41,22.41,0,0,0,26.78,100.56Zm0,3.84a18.62,18.62,0,1,1-13.16,5.45A18.65,18.65,0,0,1,26.78,104.4Z" style="fill:#1d1e1c"/><path d="M44.58,115.64a19.25,19.25,0,0,0-17.8-11.9v0A19.29,19.29,0,0,0,7.51,123h0a19.27,19.27,0,1,0,37.07-7.37Zm-5.1,20.08a18,18,0,1,1,4.92-9.2A17.93,17.93,0,0,1,39.48,135.72Z" style="fill:#ebf6f6"/><polygon points="26.56 122.14 22.65 95.11 29.79 95.11 26.56 122.14" style="fill:none;stroke:#1d1e1c;stroke-miterlimit:10;stroke-width:0.9284574958344156px"/><line x1="29.79" y1="95.11" x2="38.82" y2="95.11" style="fill:none;stroke:#1d1e1c;stroke-miterlimit:10;stroke-width:0.9284574958344156px"/><polyline points="22.65 95.11 15.84 95.11 11.03 93.29" style="fill:none;stroke:#1d1e1c;stroke-miterlimit:10;stroke-width:0.9284574958344156px"/><path d="M15.84,95.11s-.8,9.36-.91,11.17,1.34,3.42,3.53,4.49S21,112.06,21,112.06l4.28,2" style="fill:none;stroke:#1d1e1c;stroke-miterlimit:10;stroke-width:0.9284574958344156px"/><path d="M29.22,123.58a2.51,2.51,0,1,0-3,1.86A2.52,2.52,0,0,0,29.22,123.58Z" style="fill:#ffd600"/><polygon points="46.47 97.44 48.19 102.73 50.32 102.09 48.55 96.51 46.47 97.44" style="fill:#ffd600"/><path d="M48.55,103.93l7.54,23.17h9c6.66,0,8.9-4.41,11.63-9.62s7.78-16,7.78-16h.8l3-4.09,1,2.16,2.48-1-1.47-4.36-2.86-7.54L85,87.79l.75,1.6S74.4,113,74,113.71a4,4,0,0,1-1.39,1.55c-.51.35-2.41,1.55-3.29,2.09A9,9,0,0,1,65,118.71a6.54,6.54,0,0,1-3.1-.48c-.72-.32-3.61-1.6-4.44-2s-.91-.48-1.28-1.84c-.57-2.09-3.85-12.27-3.85-12.27l-2.16-.56-2.3.18L28.8,118.58l-1.95,3.18,1.74-.13,12-10.67Z" style="fill:#ffd600"/><path d="M62.8,121.73a7.73,7.73,0,0,0,4.06.14,2.84,2.84,0,0,1,.11.48,11.16,11.16,0,0,1-3.45.4Z"/><path d="M57.13,119.33a7.79,7.79,0,1,0,7.79,7.79A7.79,7.79,0,0,0,57.13,119.33Zm0,13.22a5.44,5.44,0,1,1,5.44-5.43A5.43,5.43,0,0,1,57.13,132.55Z" style="fill:#ffd600"/><polygon points="30.38 119.65 55.61 119.65 56.09 127.11 27.01 125.05 27.01 123.34 55.4 124.89 54.81 123.18 26.85 122.8 30.38 119.65" style="fill:#ffd600"/><rect x="45.11" y="96.23" width="4.89" height="1.04" transform="translate(-22.43 14.75) rotate(-14.31)" style="fill:#d8d8d8"/><path d="M103,100.35a23.85,23.85,0,0,0-23.39,28.49" style="fill:none;stroke:#1d1e1c;stroke-miterlimit:10;stroke-width:0.964518943448026px"/><path d="M91.5,99.05l4.77,13.07a15.87,15.87,0,0,0,2.57,4.75c.86,1.27,3.58,4.78,3.58,4.78s-.64,1.62-1.7.48-3.31-4.07-3.93-4.85a23.74,23.74,0,0,1-2.4-4.48c-.75-1.76-4.74-13.17-4.74-13.17Z" style="fill:#ffd600"/><polygon points="91.83 98.98 91.69 98.64 89.21 99.6 89.35 99.94 91.83 98.98" style="fill:#c6c6c5"/><path d="M93.38,98.37c-1.58.55-2-.08-2.42-1.05-.66-1.73.12-2.49.84-2.88Z" style="fill:#1d1e1c"/><path d="M91.8,94.44c.47.07,1.86,2.19,1.58,3.93C92.47,98.33,91.16,95.28,91.8,94.44Z" style="fill:#ebf6f6"/><polygon points="87.36 86.75 87.08 85.93 84.54 87.03 84.96 87.79 87.36 86.75" style="fill:#1d1e1c"/><path d="M86.48,86.17c-.34-.7-1.2-2.67-1.35-3a.84.84,0,0,1,.21-1.07A29.69,29.69,0,0,0,88,79.37a.82.82,0,0,0,0-1.06c-.48-.5-2.87-2.84-2.87-2.84l-.65,1.19s1.41,1.21,2,1.93c.32.36-.5,1.12-.5,1.12S84.7,81,84.14,81.46A1.22,1.22,0,0,0,83.83,83c.23.5,1,2.63,1.47,3.65" style="fill:#e1f1f2"/><rect x="71.94" y="75.04" width="6.41" height="2.41" style="fill:#1d1e1c"/><rect x="78.32" y="74.71" width="2.12" height="3.07" style="fill:#1d1e1c"/><path d="M71.23,76.49a24,24,0,0,0-2.48-1.19l.92-1.88a9,9,0,0,0,2.76.79l-.49,1.86Z" style="fill:#f6af95"/><path d="M71.57,74.75c.35-.42.91-.9,1.3-.76a9.17,9.17,0,0,0,1.57.44c.23,0,0,.66-.4.61s-2.83.26-2.83.26Z" style="fill:#f6af95"/><path d="M71.57,74.75c1-.29,3.75.54,3.87,1.27A3.85,3.85,0,0,1,75,78.11a3.4,3.4,0,0,1-2.77-.25c-.6-.58-.41-1-1-1.37S71.57,74.75,71.57,74.75Z" style="fill:#f6af95"/><path d="M80.82,72.19c.16-.22-.76-.86-1.37-.81s-.45.84-.45.84Z" style="fill:#f6af95"/><path d="M74.44,74.43a.64.64,0,0,1,.41.61H74Z" style="fill:#f6af95"/><path d="M46.81,134.48s5.13,1.28,5.73,1,.48-.63.09-.88-3.22-1.85-3.22-1.85l.25-.75-2.32-.39Z" style="fill:#1d1e1c"/><polygon points="49.47 131.95 52.7 124.21 49.03 123.41 47.34 131.59 49.47 131.95" style="fill:#f6af95"/><path d="M44.75,70.45c-2.59.53-4.69,4-5.51,9.24a18.17,18.17,0,0,0,4.19,14.14c4.17,4.56,9.59,9.11,10.31,9.91,1.42,1.58-5.59,21.25-6.55,25.87-.18.87,3.38,1.51,3.66.81.76-1.82,16-28,13.27-32S51.7,81.07,51.7,81.07Z" style="fill:#19576e"/><path d="M39.08,71.78c.09,2.66.12,4.85,4,4.83a52.57,52.57,0,0,1,13,1.68c4.78,1.54,6.5-2.42,7-5.15,2.19-11.56-1-14.92-1-21.61S55.89,42.17,52.4,42,45.18,43,44,47.19,38.68,61.38,39.08,71.78Z" style="fill:#f18773"/><path d="M69.7,76.07S57.55,71.68,55.82,70.9s-2.6-1.08-3.54-4S45.63,52.35,45,50.46a6,6,0,0,1,3.23-7.13c2.06-.71,6.19,1.17,6.76,4.45s4,16.24,4.26,17.4a4.64,4.64,0,0,0,2,3c1.12.75,9.26,5.25,9.26,5.25Z" style="fill:#f18773"/><path d="M55.12,43.25,55.69,42,57,41.45c2.81-1.13,4.54-4.89,4.13-7.08-.37-1.94.41-7-4.43-7-3,0-6.62,6.71-6.62,6.71l.52,9.06Z" style="fill:#f9c0aa"/><polygon points="60.86 31.4 62.09 34.02 60.82 34.24 60.86 31.4" style="fill:#f9c0aa"/><path d="M48.79,35.23a1.92,1.92,0,0,0,1.81.56A2.82,2.82,0,0,0,52,34c.2-.58.53-2.09,2.12-2s2.87,0,3.51-.81,1.06-1.4,2.23-1.3S62,30,62.26,30a2.83,2.83,0,0,0,1.33-.41c.58-.33,1.15-.63,1.15-.78s-.95-.65-1.66-1.09c-14.19-8.75-15.44.8-15.49,1S47.17,33.25,48.79,35.23Z" style="fill:#1d1e1c"/><path d="M55.87,45l.26,1.81s-2.89-3.62-5.53-3.62c1.26-1,6.34-1.58,5.86-.53A6.54,6.54,0,0,0,55.87,45Z" style="fill:#f9c0aa"/><path d="M57,41.45c0,1-1.57,2.44-2.43,2.24S53.65,40,53.65,40Z" style="fill:#f9c0aa"/><path d="M214.83,63.2c-1.82,1-6.58,3.72-6.15,4.79.61,1.52,1.36-.38,1.74.53.14.34-.19,1.06-.85,1.59-.43.35-1.4.91,0,1.57,2.06,1,3.46,1.1,4.61-1.68s2.57-5.45,2.57-5.45Z" style="fill:#f6af95"/><path d="M225.79,58.06c-3.69,3.25-8,7-9.22,7.14s-3.64-1.28-1.27-3.19a78,78,0,0,0,6.6-6.75" style="fill:#ffea9f"/><path d="M226.57,30.23c-3.59,0-6.25,4.92-5,13.7S226.57,30.23,226.57,30.23Z" style="fill:#ffea9f"/><path d="M243.84,31.31s-.07-.22-4.69-.34c-2.43,1.87-7.73,1.74-8.72-.34a18.24,18.24,0,0,0-3.86-.4c-4.27,0-7.43,29.38-2.18,41.4l2.51.32c3.76.81,16.75,4.58,16.16-4.2s-2.68-24,1.17-31.1C245.17,34.88,245.49,31.77,243.84,31.31Z" style="fill:#ffd600"/><path d="M230,111.18c.19-13.42,1.41-27.82,3-31.09l.8.24a127.46,127.46,0,0,0-.07,16.51c.15,2.62.34,5.11.56,7.52a82,82,0,0,0,9-28.82l.16-1.29c0-2.64-.19-4.77-.39-6.5l-18.67,3.88c-1,4.17-2.77,12.4-2.77,26.14a113.41,113.41,0,0,0,2,20.94A65.51,65.51,0,0,0,230,111.18Z" style="fill:#ee7765"/><path d="M233,30c-3.19-.73-4.94-5.6-3.47-11.95s6-5.73,7.75-5.36,6.47,2,5,8.37-5.53,9.9-8.71,9.08Z" style="fill:#f6af95"/><path d="M234,23.17a3.82,3.82,0,0,1,3.5,1.27c.59.57,2,1.36,2.5,0a4,4,0,0,1,2.1-2.11c-1,6.75-4.56,9.85-7.49,9.36L234,31.6c-2.44-.35-5.89-3.69-5-9.26C230.62,23.77,232.38,23.49,234,23.17Z" style="fill:#885e53"/><path d="M236.39,55.68h2.27c-.77-7,.38-15.48,4.64-24.45-.48-.07-1.26-.18-2.19-.27C236.89,39.9,235.62,48.67,236.39,55.68Z" style="fill:#ffe172"/><path d="M224.36,55.68h2.28A47.29,47.29,0,0,1,230.69,31a1.75,1.75,0,0,1-.26-.39,9.2,9.2,0,0,0-1.8-.28A48.42,48.42,0,0,0,224.36,55.68Z" style="fill:#ffe172"/><path d="M242.29,58.05c-.06-.78-.11-1.58-.15-2.37A132,132,0,0,0,222,55.49c.07.8.14,1.59.23,2.37A123.19,123.19,0,0,1,242.29,58.05Z" style="fill:#ffe172"/><path d="M222.85,61.61c.16.8.34,1.59.53,2.34a125.87,125.87,0,0,1,19.4.2c-.07-.77-.13-1.56-.2-2.37A134,134,0,0,0,222.85,61.61Z" style="fill:#ffe172"/><path d="M243.52,65.21c-1.61,1.33-5.88,4.74-5.28,5.73.85,1.4,1.28-.59,1.8.24.2.31,0,1.07-.58,1.7-.37.42-1.24,1.13.26,1.55,2.2.62,3.6.53,4.28-2.41s1.65-5.78,1.65-5.78Z" style="fill:#f6af95"/><path d="M253.61,51l.06,0A63.89,63.89,0,0,1,247,37.38c-1.33-4.44-.87-5.34-3.13-6.07l-1.92,7.32a19.15,19.15,0,0,0,7.4,13.78s-4.24,9.25-5.89,11.81,1.12,3.12,2.2,2.63,5.37-7.4,7.86-11.63C254.59,53.33,254.34,52,253.61,51Z" style="fill:#ffea9f"/><path d="M242.46,42c-.27-1.85,1.26-11.89,3.53-8.3,0-.52-.58-2.4-2.15-2.4s-2.3,8.68-2.3,8.68Z" style="fill:#ffd600"/><path d="M242.19,19.51a5.61,5.61,0,0,0-.33-1.36c-1.64-5.42-12.12-4.66-11.92-2.43.19,1-1.61,2.94-1.3,4.76.48.25,2.19-1.42,1.85-3.27,2,2.08,6.31,1.22,7.48,1s1.55,2,1.55,2l.6.43c.59.42.1,2.68,1.31,2.88.81-.35.95-2.1.81-3.56C242.23,19.82,242.22,19.68,242.19,19.51Z" style="fill:#885e53"/><path d="M229.36,15.86c.06-1.24,3.28-7.82,9.91-5.74s3.87,9.82,3.87,9.82Z" style="fill:#ee7321"/><path d="M229,18.12c1.71,0,8.3.35,13.34,4.17.34.19.46-.21.48-.33s.93-1.92.69-2.14-5.22-4.06-14.35-4a.29.29,0,0,0-.32.25c0,.1-.07,1.56-.08,1.7S228.78,18.12,229,18.12Z" style="fill:#ee7321"/><line x1="229.64" y1="16.37" x2="229.55" y2="17.59" style="fill:none;stroke:#e84626;stroke-linecap:round;stroke-miterlimit:10;stroke-width:0.23913597850881732px"/><line x1="230.4" y1="16.37" x2="230.32" y2="17.59" style="fill:none;stroke:#e84626;stroke-linecap:round;stroke-miterlimit:10;stroke-width:0.23913597850881732px"/><line x1="231.2" y1="16.41" x2="231.11" y2="17.64" style="fill:none;stroke:#e84626;stroke-linecap:round;stroke-miterlimit:10;stroke-width:0.23913597850881732px"/><line x1="232.01" y1="16.47" x2="231.92" y2="17.69" style="fill:none;stroke:#e84626;stroke-linecap:round;stroke-miterlimit:10;stroke-width:0.23913597850881732px"/><line x1="232.88" y1="16.55" x2="232.8" y2="17.77" style="fill:none;stroke:#e84626;stroke-linecap:round;stroke-miterlimit:10;stroke-width:0.23913597850881732px"/><line x1="233.85" y1="16.69" x2="233.7" y2="17.9" style="fill:none;stroke:#e84626;stroke-linecap:round;stroke-miterlimit:10;stroke-width:0.23913597850881732px"/><line x1="234.93" y1="16.89" x2="234.77" y2="18.11" style="fill:none;stroke:#e84626;stroke-linecap:round;stroke-miterlimit:10;stroke-width:0.23913597850881732px"/><line x1="236.11" y1="17.17" x2="235.88" y2="18.38" style="fill:none;stroke:#e84626;stroke-linecap:round;stroke-miterlimit:10;stroke-width:0.23913597850881732px"/><line x1="237.48" y1="17.53" x2="237.18" y2="18.72" style="fill:none;stroke:#e84626;stroke-linecap:round;stroke-miterlimit:10;stroke-width:0.23913597850881732px"/><line x1="238.61" y1="17.93" x2="238.27" y2="19.14" style="fill:none;stroke:#e84626;stroke-linecap:round;stroke-miterlimit:10;stroke-width:0.23913597850881732px"/><line x1="239.65" y1="18.33" x2="239.27" y2="19.64" style="fill:none;stroke:#e84626;stroke-linecap:round;stroke-miterlimit:10;stroke-width:0.23913597850881732px"/><line x1="240.69" y1="18.77" x2="240.27" y2="20.13" style="fill:none;stroke:#e84626;stroke-linecap:round;stroke-miterlimit:10;stroke-width:0.23913597850881732px"/><line x1="241.61" y1="19.14" x2="241.13" y2="20.53" style="fill:none;stroke:#e84626;stroke-linecap:round;stroke-miterlimit:10;stroke-width:0.23913597850881732px"/><line x1="242.66" y1="19.75" x2="242.14" y2="21.17" style="fill:none;stroke:#e84626;stroke-linecap:round;stroke-miterlimit:10;stroke-width:0.23913597850881732px"/><path d="M189.77,138.75c1.68-.57,3.25-1.18,4.84-1.79h-56.8c0,.75.71,2.77,2.61,2.77h46.15C187.68,139.41,188.75,139.08,189.77,138.75Z" style="fill:#f6af95"/><path d="M210.28,81.25h8.06a0,0,0,0,1,0,0V85.1a0,0,0,0,1,0,0h-8.06a.89.89,0,0,1-.89-.89V82.14a.89.89,0,0,1,.89-.89Z" transform="translate(427.73 166.35) rotate(-180)" style="fill:#1d1e1c"/><path d="M128.34,81.25h8.06a0,0,0,0,1,0,0V85.1a0,0,0,0,1,0,0h-8.06a.89.89,0,0,1-.89-.89V82.14A.89.89,0,0,1,128.34,81.25Z" style="fill:#1d1e1c"/><path d="M131.36,69.37h83.07a.66.66,0,0,1,.64.66v3.22a.65.65,0,0,1-.64.66H131.36a.65.65,0,0,1-.64-.66V70A.66.66,0,0,1,131.36,69.37Z" style="fill:#ec7765"/><path d="M134.13,68.38c0-1.79,1.35-5,2.64-5H209c1.29,0,2.64,3.22,2.64,5Z" style="fill:#ec7765"/><path d="M192.13,137.87A94.11,94.11,0,0,0,210.76,129c.79-14.71,3-55.46,3-55.46H132s3.19,58.8,3.27,60.65,1.29,3.73,4.84,3.73h52Z" style="fill:#ec7765"/><ellipse cx="146.26" cy="142.26" rx="3.64" ry="3.75" style="fill:#1d1e1c"/><ellipse cx="146.26" cy="142.26" rx="2.26" ry="2.32" style="fill:#9d9b9b"/><path d="M145.48,137.87v2.77c.82.42,1.62,1.32.94,2s-2.47-.55-3.53-1.89v-2.9Z" style="fill:#9d9b9b"/><path d="M164.57,65.38h16.6c3.63,0,4.25,2.06,4.78,2.6H159.79C160.32,67.44,160.93,65.38,164.57,65.38Z" style="fill:#f6af95"/><path d="M132.59,67.86H213.2a.64.64,0,0,1,.64.65v.86H132v-.86A.64.64,0,0,1,132.59,67.86Z" style="fill:#f6af95"/><path d="M132.59,75.46H213.2a.65.65,0,0,0,.64-.66v-.86H132v.86A.65.65,0,0,0,132.59,75.46Z" style="fill:#f6af95"/><path d="M163.14,88.15l.14.59L165.21,97l.15.62.52-.26,7.4-3.62.53-.25-.52-.27-1.59-.8c.21-.46.53-1.12,1-1.86l3,3.71.1.14.17,0,7.46-1.5.45-.09-.28-.37-.22-.29-.22.18h0l.22-.18c-.12-.16-3.38-4.39-4.22-5.32a4.34,4.34,0,0,0-1.25-1,3.38,3.38,0,0,0-.43-.19l-.13,0h-.24l-.75.06-5.93.31h0a6.24,6.24,0,0,0-4.93,3.37l-1.77-.89Zm10,1.53a9.86,9.86,0,0,1,1.47-1.85,6.3,6.3,0,0,1,1.8-1.17l.62,0a2.86,2.86,0,0,1,1.29.92h0c.62.65,2.7,3.33,3.68,4.59l-5.92,1.18Z" style="fill:#fde8df"/><path d="M164.64,115.18l.48-.36,6.7-5,.5-.37-.44-.4-6-5.69-.43-.41,0,.61-.12,1.81a20.5,20.5,0,0,1-2-.2l2.22-4.26.07-.15-.09-.15-4.16-6.54-.26-.39-.23.4-.17.31.24.15h0l-.25-.14c-.09.17-2.67,4.87-3.19,6A4.8,4.8,0,0,0,157,102c0,.2,0,.36,0,.48s0,.11,0,.15v0l0,.08,0,0v0h0l0,.06.33.69,2.52,5.53h0a6.23,6.23,0,0,0,4.89,3.42l-.12,2ZM162.23,105a9.43,9.43,0,0,1-2.21-.7,6.25,6.25,0,0,1-1.74-1.28l-.28-.57a3,3,0,0,1,.34-1.57h0c.35-.84,2-3.84,2.74-5.24l3.3,5.19Z" style="fill:#fde8df"/><path d="M188.65,100.62l-.52-.3-7.26-4-.55-.3-.15.58-2.33,8.08-.17.57.55-.22,1.64-.69c.19.47.45,1.16.71,2l-4.69-.19h-.17l-.09.14L171.73,113l-.24.41.46,0,.35,0,0-.29h0l0,.29c.19,0,5.43.34,6.67.32a4.51,4.51,0,0,0,1.56-.29,2.81,2.81,0,0,0,.42-.2l.12-.08,0,0,0,0,0,0h0l0-.06.46-.61,3.72-4.75h0a6.56,6.56,0,0,0,.84-6l1.83-.77Zm-7.81,6.66a10.5,10.5,0,0,1,.36,2.36,6.81,6.81,0,0,1-.36,2.17l-.37.5a2.83,2.83,0,0,1-1.53.37h0c-.89,0-4.22-.15-5.78-.24l3.09-5.32Z" style="fill:#fde8df"/><path d="M155.65,135.05a19.4,19.4,0,0,0-3.83-2.88,6.54,6.54,0,0,0-4.65-.67,22,22,0,0,0-2.54,1.11c-2.87,1.23-9.6,2.09-11-1.71-1.18-3.15.45-5.79-2.7-8.56a4.76,4.76,0,0,0-1.49-.94,6.6,6.6,0,0,0-1.88-.24,6.8,6.8,0,0,0-7,2.77c-2.54,2.89-4.32,6.26-7.91,3.12-3.2-2.8-4.75-8-6-11.87-3-9.11-15.49-9.94-21.23-6.23-2.2,1.42-3.42,3.51-2.72,6,.08.3.15.64.22,1a27.33,27.33,0,0,0-2.15-3.29A14.68,14.68,0,0,0,62,109.6,17.58,17.58,0,0,0,54.85,120c-1.53,5.84-.4,10.61,1.08,16.15.2.73.4,1.45.61,2.17a19.77,19.77,0,0,0,1,2.73c3.45,7.28,14.32,7.58,21,7.58,10.6,0,19.94-2.5,30.54-2.5,11.07,0,21.31,2.38,32.38,2.38,3.39,0,11.8-.85,14.45-3.43C158.19,142.93,157.77,136.94,155.65,135.05Z" style="fill:#49b3b5"/></svg>