<svg xmlns="http://www.w3.org/2000/svg" viewBox="0 0 255 150"><path d="M67.83,148.21c28.93,0,42.47-17.43,77.19-16.71.91,0,1.86,0,2.84,0H148c.94,0,1.92.06,2.93.12l.35,0c1,.07,1.95.15,3,.26l.65.07c1,.11,1.95.23,3,.38l1.1.17c.94.14,1.88.29,2.88.46l1.66.31c.88.17,1.76.33,2.69.52l2.56.56c.74.17,1.45.31,2.22.49,1.67.39,3.4.81,5.22,1.28,2.62.67,5.15,1.2,7.6,1.64.54.1,1,.16,1.55.23l.83.12c1.6.24,3.2.47,4.72.62.76.07,1.47.1,2.2.14l.43,0c1.35.08,2.69.15,4,.16.89,0,1.74,0,2.6-.07,1.2-.05,2.38-.11,3.53-.23.83-.08,1.64-.19,2.45-.3,1.09-.16,2.17-.35,3.21-.57l1.23-.29c.34-.08.69-.15,1-.24,1-.27,2-.57,2.95-.9.69-.23,1.38-.46,2-.72,1-.38,1.87-.81,2.77-1.24l.44-.22c.44-.21.9-.41,1.32-.65.94-.51,1.82-1.08,2.69-1.65.47-.3,1-.58,1.41-.9a38.26,38.26,0,0,0,3.12-2.53l.34-.27.2-.17a41.34,41.34,0,0,0,3.25-3.37c.16-.19.3-.4.46-.59l.42-.54c.67-.84,1.34-1.69,2-2.58.21-.31.39-.63.59-.94s.26-.4.38-.6c.52-.82,1-1.64,1.49-2.49.31-.57.6-1.16.89-1.75.42-.84.82-1.68,1.2-2.54.27-.63.52-1.27.77-1.9.33-.87.65-1.75.95-2.65.22-.66.43-1.32.63-2,.27-.91.52-1.84.75-2.77,0-.2.09-.39.14-.59.12-.48.24-1,.34-1.44.21-1,.39-1.95.56-2.94.11-.66.24-1.33.34-2,.15-1.06.27-2.14.38-3.21,0-.43.09-.85.13-1.28l.06-.55c.1-1.32.16-2.65.21-4a1.77,1.77,0,0,1,0-.23c0-.3,0-.61,0-.91,0-1.71,0-3.43,0-5.15,0-.47-.06-.94-.08-1.41-.07-1.25-.14-2.5-.25-3.75,0-.1,0-.2,0-.3-.05-.54-.12-1.08-.18-1.63-.12-1.07-.24-2.14-.39-3.21-.1-.69-.22-1.37-.34-2-.16-1-.34-2-.54-3-.08-.42-.17-.83-.26-1.24l-.18-.86c-.22-1-.44-1.91-.68-2.86-.18-.69-.36-1.38-.55-2.07-.26-.93-.53-1.85-.82-2.76,0-.09-.05-.17-.08-.25-.18-.59-.37-1.17-.56-1.74-.31-.92-.64-1.81-1-2.7-.23-.62-.46-1.24-.7-1.84-.37-.92-.77-1.81-1.16-2.69-.24-.53-.46-1.06-.71-1.58a.08.08,0,0,0,0,0c-.48-1-1-2-1.5-2.93,0-.09-.09-.18-.14-.27-.14-.28-.28-.57-.44-.84-.72-1.3-1.48-2.54-2.26-3.73-.15-.22-.3-.42-.45-.63a.86.86,0,0,1-.07-.1,36.94,36.94,0,0,0-10.79-10.83c-33.83-20.59-46.2.74-77.47.74S121.76,1.37,71.26,1.37,46,47,46,67.38,8,66.5,8,106.46C8,121.17,19.3,148.21,67.83,148.21Z" style="fill:#d1e5e8"/><rect x="77.61" y="27.68" width="0.56" height="37.15" style="fill:#8dbfc5"/><rect x="174.5" y="39.18" width="5.11" height="4.05" style="fill:#5fa5ad"/><path d="M176.5,39.4a.61.61,0,0,1,.14-.65l6.23-6a.62.62,0,0,1,.65-.12.6.6,0,0,1,.36.55v6a.59.59,0,0,1-.59.59h-6.24A.6.6,0,0,1,176.5,39.4Zm6.19-4.84-4.17,4h4.17Z" style="fill:#5fa5ad"/><path d="M209.44,18.17v4.17a.43.43,0,0,0,.43.43h1.85V26.4h-1.59a.44.44,0,0,0-.44.43v8.38a.44.44,0,0,0,.44.43h4.29a.43.43,0,0,0,.43-.43v-8h1.66a.49.49,0,0,0,.49-.49V22.5s0-.06,0-.08,0-.05,0-.08V18.17a.43.43,0,0,0-.43-.43h-6.7A.43.43,0,0,0,209.44,18.17Zm3.27,8V23H216v3.18Z" style="fill:#5fa5ad"/><path d="M178.5,136.64v-5.09h3.81l-2.78,5.32,1.2.26,2-3.76v4.2l1.19.22v-6.85h0v-10.3h0V110.33h0V100h0V89.73h0V79.43h0V69.13h0V58.82h0V47.72h3l-2.12-4.49h-6.86l1.85,3.9h-1.85a.6.6,0,0,0-.59.59v88.66C177.72,136.48,178.11,136.55,178.5,136.64Zm4.19-6.27h-3.8l3.8-7.3Zm0-10.31h-3.8l3.8-7.29Zm0-10.3h-3.8l3.8-7.29Zm0-10.3h-3.8l3.8-7.3Zm0-10.3h-3.8l3.8-7.3Zm0-10.31h-3.8l3.8-7.29Zm0-10.3h-3.8l3.8-7.29Zm0-20.24v5.56l-1.34-5.56Zm-.16,9.94h-3.86l1.93-8Zm-4-9.94h1.35l-1.35,5.56Zm0,11.12h3.81l-3.81,7.3Zm0,10.31h3.81L178.5,77Zm0,10.3h3.81l-3.81,7.29Zm0,10.3h3.81l-3.81,7.3Zm0,10.3h3.81l-3.81,7.3Zm0,10.31h3.81l-3.81,7.29Zm0,10.3h3.81l-3.81,7.29Z" style="fill:#5fa5ad"/><path d="M65,27.26h4a2,2,0,0,0,1.92,1.53H86.05A2,2,0,0,0,88,27.26h78.27v1.53h-8.81V40.28a1.84,1.84,0,0,0,1.84,1.84h2.6v1.82h1.23l-1.79,3.78h1.54v85.45l1.18.22v-1.84h12l-4.76,3.39,1.52.37,4.5-3.2v4.27c.4.1.79.17,1.18.26V47.72H180l-2.13-4.49h1.7v-4h-2V33.76H201a.59.59,0,0,0,.44-.2v1.49a.59.59,0,0,0,.59.59h8.1a.59.59,0,0,0,.59-.59V27.26h1.49a.58.58,0,0,0,.59-.59V22.5a.58.58,0,0,0-.59-.59H211V18.33a.58.58,0,0,0-.59-.59H197.82a.59.59,0,0,0-.59.59v2.93L172.6,1.47l0,0-.16-.07-.07,0h0a.63.63,0,0,0-.24,0l-60.9,16.37H69.64a.61.61,0,0,0-.35.06.6.6,0,0,0-.31.58l-4.46,8a.59.59,0,0,0,.52.88Zm54.45-1.83L116,18.92H123Zm1,.65L124,19.57l3.54,6.51Zm8.08-.65L125,18.92h7.09Zm1,.65,3.54-6.51,3.55,6.51Zm8.08-.65-3.54-6.51h7.08Zm1,.65,3.54-6.51,3.54,6.51Zm8.08-.65-3.54-6.51h7.08Zm1,.65,3.55-6.51,3.54,6.51Zm8.08-.65-3.54-6.51h7.09Zm1,.65,3.63-6.68,5.2,6.68ZM164,48.31h5.55L164,56.85Zm10.85-14.55-7.46,4.38V33.76Zm-6-1.18,7.59-4.83v4.83Zm7.59,1.62v4.39H169Zm-5.78,14.61,6.14,9.44H164.53ZM164,59.43h12L164,68Zm0,10.31h12L164,78.3ZM164,80h12L164,88.6Zm0,10.3h12L164,98.9Zm0,10.3h12l-12,8.57ZM164,111h12l-12,8.56Zm0,10.3h12l-12,8.56Zm13.29,9.12h-12l12-8.57Zm0-10.31h-12l12-8.56Zm0-10.3h-12l12-8.56Zm0-10.3h-12l12-8.56Zm0-10.3h-12l12-8.56Zm0-10.3h-12l12-8.57Zm0-10.31h-12l12-8.56Zm0-11.7-5.55-8.54h5.55Zm.33-24.27V29.39l1.45,3.19Zm2.37-.84L178,27.26h4.1Zm-.33-5.66v-3h3v3Zm1.25,6.5L183,28.09l2,4.49Zm5-.84-2-4.48H188Zm-2.09-5.66v-3h3v3Zm3,6.5,2-4.49L191,32.58Zm1.16-6.5v-3h3v3Zm3.86,5.66-2-4.48h4.09Zm.31-5.66v-3h3v3Zm.61,6.5,2-4.49,2.05,4.49Zm4.42-2.13-1.46-3.19h1.46Zm11.65-7.36h2.74v3h-2.74Zm-4.17,0h3v3h-3Zm-4.17,0h3v3h-3Zm-.13,9.49h-2V27.26h2Zm-4-9.49h3v3h-3ZM172.82,3.17l23.32,18.74h-17a.59.59,0,0,0-.6.59v3.58h-1.2l-4.48-4.45Zm0,20.13,2.8,2.78h-2.8Zm2.2,4-7.6,4.83V27.26Zm-7.45-1.18L169,19.51l2.64,2.62v3.95Zm4.07-5.62-2.34-2.32,2.34-10.72Zm-.2-17.7-4.92,22.55L160.8,18h0a.65.65,0,0,0-.18-.15h0l-.07,0a.47.47,0,0,0-.17,0H115.72ZM118.49,26.08h-7.08L115,19.57ZM114,18.92l-3.55,6.51-3.54-6.51Zm-4.54,7.16h-7.08l3.54-6.51Zm-4.54-7.16-3.54,6.51L97.8,18.92Zm-4.54,7.16H93.26l3.54-6.51Zm-4.53-7.16-3.55,6.51-3.54-6.51Zm-4.54,7.16H84.18l3.55-6.51Zm-4.54-7.16-3.54,6.51-3.55-6.51Zm-4.54,7.16H75.11l3.54-6.51Zm-4.54-7.16-3.54,6.51-3.54-6.51Zm-8,.75,3.49,6.41H66Z" style="fill:#8dbfc5"/><path d="M206.67,27.26v7.79a.59.59,0,0,1-1.18,0V27.26Z" style="fill:#8dbfc5"/><rect x="157.98" y="29.92" width="5.3" height="9.02" style="fill:#11263d"/><path d="M140.82,123l2.05-40.76a.81.81,0,0,1,.8-.76h0a.71.71,0,0,1,.72.75l-2,40.77Z" style="fill:#f7af79"/><path d="M167.23,72c.14,11.28-6.38,12.86-10.6,14.92C151,89.66,167.54,95.57,158,104c-6.1,5.41-10.22-4.8-15.43-4.8-4.6,0-10.36,7.2-17.05,2.22C114.75,93,108.7,77.23,116.4,69.78c4.25-4.12,7.6-6.64,6.72-11.39-1.78-9.61,4.8-15.1,16.74-14.27s13,8.49,16,11.52C161.4,61.27,167.09,60.26,167.23,72Z" style="fill:#fbcba7"/><path d="M75.92,116.48a6.75,6.75,0,0,0,8.37,4.75c3.7-1.13,5.35-5.55,9-3.8s9.22,5.4,17,3,12.43-11.52,11.25-20c-.73-5.34-5.24-10-11.5-7.88-8.76,2.92-8,7.72-13.26,9.35S71.81,103.05,75.92,116.48Z" style="fill:#4d949a"/><path d="M104.11,144.43l.48,0c25.09-6.42,26.08-18,62.11-10.48,2.29-9.85-3.64-15.86-9.1-14.18-7.15,2.2-14.48-.37-12.1-8.25,2.08-6.88-5.22-11.87-11.8-12.53-7.33-.73-19.31,1-17.88,10.06.86,5.39-1.28,9.07-4.36,8.1-4.61-1.44-4.48-10.69-14-7.18s-5.19,11-12.56,10.87-7.7,12-4.08,15.93C85.31,141.59,93.36,144.43,104.11,144.43Z" style="fill:#00666e"/><polygon points="95.66 86.56 83.46 64.26 21.49 64.26 21.49 64.26 9.29 86.56 95.66 86.56" style="fill:#fff"/><path d="M53.59,75.61l-7.75-.2,5.64,11.16H95.66L83.46,64.26H48S53.86,74.14,53.59,75.61Z" style="fill:#f3914c"/><path d="M67.83,148.21A178.23,178.23,0,0,0,94,146.52v-60H35.27v56.07C43.6,146,54.21,148.21,67.83,148.21Z" style="fill:#fff"/><rect x="45.95" y="97.71" width="6.65" height="10.15" transform="translate(98.56 205.58) rotate(-180)" style="fill:#ee7321"/><rect x="45.95" y="115.12" width="6.65" height="10.15" transform="translate(98.56 240.38) rotate(-180)" style="fill:#ee7321"/><rect x="61.13" y="97.71" width="6.65" height="10.15" transform="translate(128.92 205.58) rotate(-180)" style="fill:#ee7321"/><rect x="61.13" y="115.12" width="6.65" height="10.15" transform="translate(128.92 240.38) rotate(-180)" style="fill:#ee7321"/><rect x="76.31" y="97.71" width="6.65" height="10.15" transform="translate(159.27 205.58) rotate(-180)" style="fill:#ee7321"/><rect x="76.31" y="115.12" width="6.65" height="10.15" transform="translate(159.27 240.38) rotate(-180)" style="fill:#ee7321"/><path d="M35.27,142.64V86.57L23.07,64.26,10.86,86.57V120C14.42,128.41,21.77,137.15,35.27,142.64Z" style="fill:#f7af79"/><line x1="91.32" y1="134.51" x2="63.8" y2="134.51" style="fill:none;stroke:#11263d;stroke-miterlimit:10;stroke-width:0.690627978383846px"/><path d="M10.86,86.57,22.28,65.7h0l8.21,15,.1.18h0l3,5.54.06.12h62l-.79-1.46h0L92.5,80.78l-.33-.6h0l-2.5-4.57h0l-.39-.72h0l-2.5-4.57h0l-.39-.73h0l-2.92-5.33h-62L9.29,86.57ZM30.91,65.71,33,69.59H30.3l-2.13-3.88Zm8.41,4.61h2.74l2.5,4.57H41.82Zm.93,4.57H37.51L35,70.32h2.74Zm3.39-4.57h2.74l2.49,4.57H46.14Zm4.31,0h2.74l2.5,4.57H50.45Zm4.31,0H55l2.5,4.57H54.76Zm4.32,0h2.74l2.5,4.57H59.08Zm4.31,0h2.74l2.5,4.57H63.39Zm4.32,0H68l2.5,4.57H67.71Zm4.31,0h2.74l2.5,4.57H72Zm4.31,0h2.74l2.5,4.57H76.33Zm4.32,0h2.74l2.5,4.57H80.65Zm5.63,5.29,2.5,4.57H83.54L81,75.61ZM82,80.18H79.23l-2.5-4.57h2.74Zm-4.31,0H74.92l-2.5-4.57h2.74Zm-4.32,0H70.6l-2.5-4.57h2.74Zm-4.31,0H66.29l-2.5-4.57h2.74Zm-4.32,0H62l-2.5-4.57h2.74Zm-4.31,0H57.66l-2.5-4.57H57.9Zm-4.31,0H53.35l-2.5-4.57h2.74Zm-4.32,0H49l-2.5-4.57h2.74Zm-4.31,0H44.72l-2.5-4.57H45Zm-4.32,0H40.4l-2.5-4.57h2.74Zm-4.31,0H36.09l-2.5-4.57h2.74Zm-4.32,0H31.78l-2.5-4.57H32Zm-5.63-5.29-2.5-4.57h2.74l2.5,4.57Zm1.81-4.57h2.74l2.5,4.57H33.19Zm4.54-4.61,2.12,3.88H34.61l-2.12-3.88Zm4.31,0,2.12,3.88H38.93L36.8,65.71Zm4.31,0L46,69.59H43.24l-2.12-3.88Zm4.32,0,2.12,3.88H47.55l-2.12-3.88Zm4.31,0,2.13,3.88H51.87l-2.13-3.88Zm4.32,0,2.12,3.88H56.18l-2.12-3.88Zm4.31,0,2.12,3.88H60.5l-2.13-3.88Zm4.32,0,2.12,3.88H64.81l-2.12-3.88Zm4.31,0,2.12,3.88H69.12L67,65.71Zm4.31,0,2.13,3.88H73.44l-2.13-3.88Zm4.32,0,2.12,3.88H77.75l-2.12-3.88Zm6.43,3.88H82.07l-2.13-3.88h2.74Zm2.9,5.3H85l-2.5-4.57H85.2Zm2.9,5.29H87.86l-2.5-4.57H88.1Zm0,4.93-2.3-4.2H91l2.3,4.2Zm-4.31,0-2.3-4.2h2.74l2.3,4.2Zm-4.31,0-2.3-4.2h2.74l2.3,4.2Zm-4.32,0-2.3-4.2h2.74l2.3,4.2Zm-4.31,0L71,80.91h2.74l2.3,4.2Zm-4.32,0-2.3-4.2h2.74l2.3,4.2Zm-4.31,0-2.3-4.2h2.74l2.3,4.2Zm-4.31,0-2.3-4.2H60.8l2.3,4.2Zm-4.32,0-2.3-4.2h2.74l2.3,4.2Zm-4.31,0-2.3-4.2h2.74l2.3,4.2Zm-4.32,0-2.3-4.2h2.74l2.3,4.2Zm-4.31,0-2.3-4.2h2.74l2.3,4.2Zm-4.31,0-2.3-4.2h2.74l2.3,4.2Zm-6.62-4.2h2.74l2.3,4.2H34.47Zm-8.31-15.2H26.6l2.12,3.88H26Z" style="fill:#fabe6e"/><path d="M22,134.86H35v-.69H21.22Z" style="fill:#11263d"/><line x1="34.95" y1="118.06" x2="20.85" y2="118.06" style="fill:none;stroke:#11263d;stroke-miterlimit:10;stroke-width:0.690627978383846px"/><line x1="34.95" y1="102.5" x2="20.85" y2="102.5" style="fill:none;stroke:#11263d;stroke-miterlimit:10;stroke-width:0.690627978383846px"/><path d="M35,142.51V86.64c-1.38,0-1.38.62-2.75.62s-1.38-.62-2.75-.62-1.37.62-2.75.62-1.38-.62-2.75-.62-1.38.62-2.75.62v46.89A48.88,48.88,0,0,0,35,142.51Z" style="fill:#a0ccd8;opacity:0.8"/><line x1="91.32" y1="118.06" x2="63.8" y2="118.06" style="fill:none;stroke:#11263d;stroke-miterlimit:10;stroke-width:0.690627978383846px"/><line x1="91.32" y1="102.5" x2="63.8" y2="102.5" style="fill:none;stroke:#11263d;stroke-miterlimit:10;stroke-width:0.690627978383846px"/><path d="M69.31,147.07c1.38,0,1.38.62,2.75.62s1.38-.62,2.75-.62,1.38.62,2.76.62,1.37-.62,2.75-.62,1.39.59,2.68.62l.34,0c1.07-.08,1.22-.59,2.48-.59a2.78,2.78,0,0,1,1.28.27c1.46-.14,2.87-.29,4.22-.47V86.64c-1.38,0-1.38.62-2.75.62s-1.38-.62-2.75-.62-1.38.62-2.75.62-1.38-.62-2.75-.62-1.38.62-2.75.62-1.38-.62-2.76-.62-1.37.62-2.75.62-1.37-.62-2.75-.62-1.38.62-2.75.62-1.38-.62-2.76-.62v60.43c1.38,0,1.38.62,2.76.62S67.93,147.07,69.31,147.07Z" style="fill:#b5d7e0;opacity:0.8"/><path d="M63.82,86.16h-.69v62.5l.69,0Z" style="fill:#11263d"/><line x1="63.13" y1="134.51" x2="35.62" y2="134.51" style="fill:none;stroke:#11263d;stroke-miterlimit:10;stroke-width:0.690627978383846px"/><line x1="63.13" y1="118.06" x2="35.62" y2="118.06" style="fill:none;stroke:#11263d;stroke-miterlimit:10;stroke-width:0.690627978383846px"/><line x1="63.13" y1="102.5" x2="35.62" y2="102.5" style="fill:none;stroke:#11263d;stroke-miterlimit:10;stroke-width:0.690627978383846px"/><path d="M52,147.09l.17,0a2.82,2.82,0,0,1,.94.14c.91.13,1.86.22,2.8.32a3.85,3.85,0,0,1,1.76-.46c1.37,0,1.37.62,2.75.62s1.37-.62,2.75-.62V86.64c-1.38,0-1.38.62-2.75.62s-1.38-.62-2.75-.62-1.37.62-2.75.62-1.38-.62-2.75-.62-1.38.62-2.75.62-1.38-.62-2.75-.62-1.38.62-2.76.62-1.37-.62-2.75-.62-1.38.62-2.75.62-1.38-.62-2.75-.62v56.14A72,72,0,0,0,52,147.09Z" style="fill:#b5d7e0;opacity:0.8"/><path d="M35.61,142.78V86.16h-.69V142.5Z" style="fill:#11263d"/><path d="M21.19,134.14v-48H20.5v47.39C20.72,133.75,21,133.94,21.19,134.14Z" style="fill:#11263d"/><path d="M92,146.78V86.16h-.69v60.71Z" style="fill:#11263d"/><path d="M197.58,139.07l-.09-52.38a1,1,0,0,0-1.05-1h0a1,1,0,0,0-1,1l.09,52.33C196.2,139.06,196.89,139.06,197.58,139.07Z" style="fill:#f7af79"/><path d="M110.69,142.61c-.48-5.22,0-12.24.64-13.82.66-1.74,4.12-5.45,5.51-8.32a27.45,27.45,0,0,1,1.41,5.88c.49,4.29,3,7.71,5.76,10.74,1-.45,1.94-.89,2.9-1.31-2.21-3.21-3.47-5.33-4.1-7.42-.78-2.62.16-5.06.76-9.18.5-3.51-1.28-4.86-2.2-6.38-2.81,1.34-9,2.61-10.34,2.33-1.14-.23,1.06,2.33,1.06,2.33s-3.59,6.39-4.57,9.69c-.81,2.75.6,12.85,1.23,16.09Z" style="fill:#f3914c"/><path d="M116.32,118.58a20.54,20.54,0,0,0,6.77-3.15,25.58,25.58,0,0,0-1.72-2.63,30.67,30.67,0,0,1-6.41,1.92h0Z" style="fill:#f08237"/><path d="M112.18,115.14a4.68,4.68,0,0,1-1.15,0c-1.14-.23,1.06,2.33,1.06,2.33l-1,1.87a10.89,10.89,0,0,0,3.22-.37Z" style="fill:#f08237"/><path d="M107,117.13c-.83.63-3,2.22-2.74,2.72.39.71.65-.26.89.16.09.16,0,.53-.32.83s-.64.53.09.77c1.08.36,1.77.34,2.17-1.1s.94-2.83.94-2.83Z" style="fill:#f6ae8d"/><path d="M105.17,103.42c-.65,1.94,1.8,3.75,1.8,3.75l4.12,2.06-4.35,8,1.27.84s3.39-5.13,3.89-5.92,2.41-3.28,1.21-4.42-7.08-5.8-7.08-5.8S105.65,102,105.17,103.42Z" style="fill:#f3914c"/><ellipse cx="104.97" cy="94.32" rx="3.32" ry="4.83" transform="translate(-32.98 64.57) rotate(-29.77)" style="fill:#f6ae8d"/><path d="M108.54,94.28c.22,1,2,1.78,3.11,2,.88.19-1.74,3-3,3.21-.37,0-.62-.44-.62-.44-.34-.86-.39-1-.94-.93Z" style="fill:#f6ae8d"/><path d="M103.67,92.63a13.39,13.39,0,0,1-2,.25c-.3.11-.63.93-.63.93-.3-.69-.89-.84-1.07-1.23,0,0,0-.42.22-.51s.29-.36.17-.69a.84.84,0,0,0,.69-.42,1.93,1.93,0,0,1,1.36-1.51c.9-.35,1.17,0,1.45-.12.95-.49,1.33.06,1.53-.06a.84.84,0,0,0,.58.37c.26.06.61,1.5.52,2,0,.27-.27-.39-1.68.15C104.34,92,104.61,92.26,103.67,92.63Z" style="fill:#1d1d1b"/><path d="M105.63,93.38l.16,0c-.3-.54-.15-.9.08-.93s.71.4.89.93a1.35,1.35,0,0,0,.59.53,3,3,0,0,0,1.32.33A41.62,41.62,0,0,0,106.26,90c-.55-.88-1.9.88-1.9.88s-1.14.48-.83.44S105,92.33,105.63,93.38Z" style="fill:#1d1d1b"/><path d="M111.48,116.2c-1.67-2.07-4.61-8.68-4.69-14.6,0-.59,1.28-2.32,1.28-2.32.64.88,3.37-2.23,3.58-3,2.13-.43,2.62-.12,2.62-.12,0,3.08,1.72,7.73,3.81,12.62.52,1.23,1.65,5.3,1.65,5.3Z" style="fill:#f4ece6"/><path d="M119.31,105.48l3.53,9.38a16.86,16.86,0,0,1-6,2.24c-1.2-3.2-6.93-13.17-5.22-20.81,1.36-.51,4.15-.81,5.27,2.17S119.31,105.48,119.31,105.48Z" style="fill:#f3914c"/><path d="M108.07,99.28c-.72.71-2.28,2.17-2.61,3.37s.29,3.72,5.2,14.66l.53,1.27c1-.13,1,.07,1.79-.26C110,112.94,107.24,103.42,108.07,99.28Z" style="fill:#f3914c"/><path d="M102.09,96a2.45,2.45,0,0,0,.63,1.6c.44.27.58-.41.58-.41Z" style="fill:#f6ae8d"/><path d="M120.61,108.94l-.43-1.14a14.39,14.39,0,0,0-3.1.44c-1.09.27-2.33.63-3.57,1l.42,1.08c1.28-.41,2.49-.76,3.41-1A13.33,13.33,0,0,1,120.61,108.94Z" style="fill:#ffe172"/><path d="M118,110.7c-1.07.27-2.28.63-3.5,1,.15.37.31.73.46,1.07,1.24-.4,2.41-.73,3.31-.94a13.66,13.66,0,0,1,3.27-.45l-.43-1.14A15.23,15.23,0,0,0,118,110.7Z" style="fill:#ffe172"/><path d="M109.14,113.71l.4,1,0,.08,1.46-.59c-.14-.35-.29-.71-.43-1.08Z" style="fill:#ffe172"/><path d="M88.39,135.31l3.15.41a1.53,1.53,0,0,0,1.13-.31c1.25-1,2.83-2.09,3.53-2.66a2,2,0,0,0,.22-3L94.15,127a2,2,0,0,0-2.93-.42c-.71.55-2.19,1.81-3.4,2.83a1.54,1.54,0,0,0-.54,1L87,133.58A1.6,1.6,0,0,0,88.39,135.31Z" style="fill:#2f3430"/><path d="M114.5,111.72a.65.65,0,0,1,.92.09.66.66,0,0,1-.09.93L97.22,127.41l-.88-1Z" style="fill:#2f3430"/><path d="M93.09,129.1l3.25-2.67.88,1-3.3,2.7a.57.57,0,0,1-.27.13A.63.63,0,0,1,93,130,.65.65,0,0,1,93.09,129.1Z" style="fill:#f0b03e"/><path d="M116.93,109.84c-1,.38-3.49,1.34-3.36,1.9.19.79.69-.08.82.39,0,.17-.18.5-.53.71s-.76.35-.12.77c.94.63,1.62.8,2.38-.49s1.66-2.48,1.66-2.48Z" style="fill:#f6ae8d"/><path d="M112.42,96.37a3.57,3.57,0,0,1,3.66.67c1.2,1.22,6.56,6.76,7,7.25a1.23,1.23,0,0,1,.24,1.77c-.53.57-5.37,4.79-5.37,4.79l-1.24-1.09s3.31-3.58,3.74-3.92a.67.67,0,0,0-.12-1.13c-.39-.23-7-3.94-7.5-5A9.74,9.74,0,0,1,112.42,96.37Z" style="fill:#f3914c"/><path d="M112.19,96.12c-.38,4.85.31,8.19,2.21,13.5l1-.39c-2-5.47-2.58-8.45-2.2-13.25A5.66,5.66,0,0,0,112.19,96.12Z" style="fill:#ffe172"/><path d="M107.42,99.92a15.94,15.94,0,0,0-1.07,1.2,27.22,27.22,0,0,0,2,10.17l1.05-.4C107.74,106.15,107.27,103.64,107.42,99.92Z" style="fill:#ffe172"/><path d="M110.12,111.7l-.36-1.11c-.49.2-1.25.56-1.7.76.14.34.29.7.45,1.07C109,112.21,109.66,111.89,110.12,111.7Z" style="fill:#ffe172"/><path d="M196.47,113.15a1,1,0,0,1-1-1c0-.84.79-2.37,3.22-6.88,3.61-6.68,9.07-16.78,9.52-22.84a1,1,0,1,1,2.08.16c-.48,6.5-6.06,16.83-9.76,23.67a49.48,49.48,0,0,0-3,5.93A1,1,0,0,1,196.47,113.15Zm1.05-1v0Z" style="fill:#f7af79"/><path d="M202.23,129v0Z" style="fill:#f69f24"/><path d="M195.42,102.13a50.12,50.12,0,0,0-3-5.93c-3.69-6.84-9.28-17.17-9.76-23.67a1,1,0,0,1,2.09-.16c.44,6.06,5.9,16.16,9.51,22.84,2.44,4.51,3.23,6,3.23,6.88a1,1,0,0,1-2.09,0Zm.4,0v0Z" style="fill:#f7af79"/><path d="M194.11,91.81c10.46,0,22.29,10.46,40,10.46C244.77,102.27,247,92,247,88s-2.12-16.23-22.45-19.87S207.82,59.77,211,57.8s11.53-4.8,5.67-10.66c-14.87-14.87-32.43-10.21-30,3.39,1.21,6.76,13.82,7.85,8.21,12.81s-13.65-16.89-25.64-12.49-6.52,13.81-15.77,13.65-12.13,10.32-7.58,17.3S158.46,95,172,95C178.49,95,188,91.81,194.11,91.81Z" style="fill:#ee7765"/><path d="M103,144.8c-2.54-2.74-6.1-9.83-10.15-10-4.64-.14-13.17,10.68-14.31,12.68h6.7A120.91,120.91,0,0,0,103,144.8Z" style="fill:#f2956d"/></svg>