<svg xmlns="http://www.w3.org/2000/svg" viewBox="0 0 255 150"><path d="M22.62,51C36.05,31,51.3,28.49,60.37,28.86S77.65,33,86.64,33c19.87,0,18.1-26.95,48.58-26.95,27.49,0,10.58,26.89,31.85,41.65,23.39,16.23,49.56-21.41,69,14.8,28.68,53.46-35.23,80.06-77.28,80.06-21.93,0-39.27-.9-50.31-.32-27.35,1.43-27.22,5.22-43.6,5.22-30.08,0-53.08-36.61-53.08-59.48S22.62,51,22.62,51Z" style="fill:#d1e5e8"/><path d="M239.88,103.56c-11.7,26.05-51.74,39-81.12,39-21.93,0-39.26-.9-50.31-.32-27.34,1.43-27.21,5.22-43.59,5.22-23.84,0-43.24-23-50.25-43.93Z" style="fill:#e8f2f3"/><path d="M32.2,98.18c2.88,0,2.88,1,5.75,1s2.88-1,5.76-1c2.15,0,2.69.58,4,.87" style="fill:none;stroke:#d9ece8;stroke-linecap:round;stroke-miterlimit:10;stroke-width:0.5093027359105727px"/><path d="M20.45,99.24c2.87.12,2.82,1.14,5.7,1.27s2.91-.9,5.79-.77,2.83,1.14,5.71,1.27,2.92-.89,5.79-.77" style="fill:none;stroke:#d9ece8;stroke-linecap:round;stroke-miterlimit:10;stroke-width:0.5093027359105727px"/><path d="M71,56.18C57,59.7,53.9,73.4,32.63,74.36c-9.32.42-15.76,2.81-20.44,6.1A69.92,69.92,0,0,0,11.78,88a41.63,41.63,0,0,0,.7,7.35h230c1.87-9.5.2-20.45-6.45-32.83A36.22,36.22,0,0,0,233,57.42c-13.15,7.73-28.1,15.8-36,7.64-14.29-14.83-31.17-30.31-44.28-30.31-26.22,0-30.31,32.28-41.74,33S84.93,52.65,71,56.18Z" style="fill:#e8f2f3"/><path d="M179.32,102.7c-21.47,0-7.62-1.06-5.38-1,1.64,0,42.11-1.54,67.61-2.57A36.81,36.81,0,0,0,243,91.93c-8-.64-16.64-1.63-25.41-1.38C203,91,204.73,84,184.74,84H159.31l-10,22.77C156.41,106.77,200.79,102.7,179.32,102.7Z" style="fill:#ffe68a"/><path d="M14.61,103.56H239.88a37.91,37.91,0,0,0,2.62-8.2h-230A58,58,0,0,0,14.61,103.56Z" style="fill:#a4ccd0"/><path d="M108.45,142.27c11-.58,28.38.32,50.31.32a125.1,125.1,0,0,0,42.73-8v-63H41.86v68.54c6.91,4.54,14.67,7.4,23,7.4C81.24,147.49,81.11,143.7,108.45,142.27Z" style="fill:#ffe7b4"/><path d="M151.58,2.87a14.62,14.62,0,0,0-6.72-1.81A12.32,12.32,0,0,0,142,1.4c-3.7.89-6.22,3.26-10.15,3.87a12.35,12.35,0,0,1-1.87.14c-3.45,0-5.8-1.37-8.28-2.58V23.09c2.48,1.2,4.83,2.57,8.28,2.57a12.35,12.35,0,0,0,1.87-.14c3.93-.61,6.45-3,10.15-3.86a11.8,11.8,0,0,1,2.89-.35,13.51,13.51,0,0,1,5.9,1.43,1,1,0,0,0,1.36-.88V3.74A1,1,0,0,0,151.58,2.87Z" style="fill:#ffe172"/><rect x="97" y="41.8" width="49.34" height="30.1" style="fill:#ffe7b4"/><rect x="95.4" y="51.16" width="52.54" height="4.47" style="fill:#ffda82"/><path d="M146.34,40.73c0-8.06-9.21-14.59-24.67-14.59S97,32.67,97,40.73Z" style="fill:#ffe7b4"/><path d="M101.9,58.77h0a2.58,2.58,0,0,1,2.58,2.58V72a0,0,0,0,1,0,0H99.32a0,0,0,0,1,0,0V61.35a2.58,2.58,0,0,1,2.58-2.58Z" style="fill:#fed05b"/><path d="M110.82,58.77h0a2.58,2.58,0,0,1,2.58,2.58V72a0,0,0,0,1,0,0h-5.16a0,0,0,0,1,0,0V61.35a2.58,2.58,0,0,1,2.58-2.58Z" style="fill:#fed05b"/><path d="M106,45.34h0a2.58,2.58,0,0,1,2.58,2.58v3.22a0,0,0,0,1,0,0H103.4a0,0,0,0,1,0,0V47.91A2.58,2.58,0,0,1,106,45.34Z" style="fill:#fed05b"/><path d="M116.51,45.34h0a2.58,2.58,0,0,1,2.58,2.58v3.22a0,0,0,0,1,0,0h-5.16a0,0,0,0,1,0,0V47.91A2.58,2.58,0,0,1,116.51,45.34Z" style="fill:#fed05b"/><path d="M127,45.34h0a2.58,2.58,0,0,1,2.58,2.58v3.22a0,0,0,0,1,0,0h-5.16a0,0,0,0,1,0,0V47.91A2.58,2.58,0,0,1,127,45.34Z" style="fill:#fed05b"/><path d="M137.58,45.34h0a2.58,2.58,0,0,1,2.58,2.58v3.22a0,0,0,0,1,0,0H135a0,0,0,0,1,0,0V47.91A2.58,2.58,0,0,1,137.58,45.34Z" style="fill:#fed05b"/><path d="M121.67,58.77h0a2.58,2.58,0,0,1,2.58,2.58V72a0,0,0,0,1,0,0h-5.16a0,0,0,0,1,0,0V61.35A2.58,2.58,0,0,1,121.67,58.77Z" style="fill:#fed05b"/><path d="M132.53,58.77h0a2.58,2.58,0,0,1,2.58,2.58V72a0,0,0,0,1,0,0H130a0,0,0,0,1,0,0V61.35A2.58,2.58,0,0,1,132.53,58.77Z" style="fill:#fed05b"/><path d="M141.45,58.77h0A2.58,2.58,0,0,1,144,61.35V72a0,0,0,0,1,0,0h-5.16a0,0,0,0,1,0,0V61.35a2.58,2.58,0,0,1,2.58-2.58Z" style="fill:#fed05b"/><rect x="96.58" y="40.68" width="50.18" height="2.23" style="fill:#ffda82"/><rect x="41.86" y="73.88" width="159.62" height="8.34" style="fill:#fed05b"/><rect x="39.63" y="71.09" width="164.09" height="8.34" style="fill:#ffda82"/><polygon points="121.67 83.24 95.83 98.95 147.52 98.95 121.67 83.24" style="fill:#ffda82"/><rect x="98.4" y="98.87" width="46.55" height="2.71" style="fill:#fed05b"/><path d="M121.46,119.27h0a6.27,6.27,0,0,1,6.27,6.27v9.53a0,0,0,0,1,0,0H115.19a0,0,0,0,1,0,0v-9.53a6.27,6.27,0,0,1,6.27-6.27Z" style="fill:#fed05b"/><rect x="101.79" y="135.08" width="37.57" height="7.73" style="fill:#fed05b"/><line x1="139.36" y1="135.08" x2="101.79" y2="135.08" style="fill:none;stroke:#ffda82;stroke-miterlimit:10;stroke-width:0.9710592262129886px"/><line x1="139.36" y1="139.24" x2="101.79" y2="139.24" style="fill:none;stroke:#ffda82;stroke-miterlimit:10;stroke-width:0.9710592262129886px"/><line x1="139.36" y1="137.16" x2="101.79" y2="137.16" style="fill:none;stroke:#ffda82;stroke-miterlimit:10;stroke-width:0.9710592262129886px"/><line x1="139.36" y1="141.32" x2="101.79" y2="141.32" style="fill:none;stroke:#ffda82;stroke-miterlimit:10;stroke-width:0.9710592262129886px"/><rect x="99.91" y="101.54" width="7.09" height="41.28" style="fill:#ffda82"/><rect x="136.35" y="101.54" width="7.09" height="41.28" transform="translate(279.79 244.35) rotate(-180)" style="fill:#ffda82"/><rect x="153.67" y="113.95" width="8.71" height="20.47" style="fill:#fed05b"/><rect x="168.67" y="113.95" width="8.71" height="20.47" style="fill:#fed05b"/><rect x="183.66" y="113.95" width="8.71" height="20.47" style="fill:#fed05b"/><path d="M158,92h0a4.35,4.35,0,0,1,4.35,4.35v5a0,0,0,0,1,0,0h-8.71a0,0,0,0,1,0,0v-5A4.35,4.35,0,0,1,158,92Z" style="fill:#fed05b"/><path d="M173,92h0a4.35,4.35,0,0,1,4.35,4.35v5a0,0,0,0,1,0,0h-8.71a0,0,0,0,1,0,0v-5A4.35,4.35,0,0,1,173,92Z" style="fill:#fed05b"/><path d="M188,92h0a4.35,4.35,0,0,1,4.35,4.35v5a0,0,0,0,1,0,0h-8.71a0,0,0,0,1,0,0v-5A4.35,4.35,0,0,1,188,92Z" style="fill:#fed05b"/><path d="M55.33,92h0a4.35,4.35,0,0,1,4.35,4.35v5a0,0,0,0,1,0,0H51a0,0,0,0,1,0,0v-5A4.35,4.35,0,0,1,55.33,92Z" style="fill:#fed05b"/><path d="M70.32,92h0a4.35,4.35,0,0,1,4.35,4.35v5a0,0,0,0,1,0,0H66a0,0,0,0,1,0,0v-5A4.35,4.35,0,0,1,70.32,92Z" style="fill:#fed05b"/><path d="M85.32,92h0a4.35,4.35,0,0,1,4.35,4.35v5a0,0,0,0,1,0,0H81a0,0,0,0,1,0,0v-5A4.35,4.35,0,0,1,85.32,92Z" style="fill:#fed05b"/><rect x="50.98" y="113.95" width="8.71" height="20.47" style="fill:#fed05b"/><rect x="65.97" y="113.95" width="8.71" height="20.47" style="fill:#fed05b"/><rect x="80.97" y="113.95" width="8.71" height="20.47" style="fill:#fed05b"/><line x1="100.45" y1="107.02" x2="41.81" y2="107.02" style="fill:none;stroke:#ffda82;stroke-miterlimit:10;stroke-width:0.9710592262129886px"/><line x1="201.43" y1="107.02" x2="141.83" y2="107.02" style="fill:none;stroke:#ffda82;stroke-miterlimit:10;stroke-width:0.9710592262129886px"/><line x1="121.67" y1="26.65" x2="121.67" y2="2.83" style="fill:none;stroke:#edecec;stroke-linecap:round;stroke-miterlimit:10;stroke-width:0.969727210052134px"/><path d="M144.78,124.18h0Z" style="fill:#f69f24"/><path d="M143.6,118.34h0Z" style="fill:#f69f24"/><path d="M204.29,133.54l1.21-24.2a.57.57,0,0,0-.58-.6h0a.65.65,0,0,0-.64.61L203,134Z" style="fill:#f69f24"/><path d="M174.61,129c-.22-2.62-9.27-12.69-10.36-15.46" style="fill:none;stroke:#f69f24;stroke-linecap:round;stroke-miterlimit:10;stroke-width:0.877407811352825px"/><path d="M173.74,129c.23,4.36.46,8.81.73,12.42l1.74-.25c-.27-3.57-.49-8-.71-12.26-.34-6.53-.69-13.28-1.16-17.09a.88.88,0,1,0-1.74.22C173.06,115.83,173.41,122.54,173.74,129Z" style="fill:#f69f24"/><path d="M52,127.5a.62.62,0,0,1-.66-.56c0-.5.35-1.42,1.57-4.15,1.8-4.06,4.51-10.18,4.5-13.72a.62.62,0,0,1,.61-.62.61.61,0,0,1,.61.61c0,3.81-2.77,10.07-4.61,14.22a30.06,30.06,0,0,0-1.46,3.58A.62.62,0,0,1,52,127.5Z" style="fill:#f69f24"/><path d="M50.93,121.72a29,29,0,0,0-2-3.32c-2.45-3.81-6.17-9.57-6.75-13.33a.62.62,0,0,1,.51-.7.61.61,0,0,1,.7.51c.53,3.51,4.17,9.14,6.57,12.86,1.62,2.52,2.15,3.37,2.19,3.86a.61.61,0,0,1-1.22.12Z" style="fill:#f69f24"/><path d="M54.08,145.9l-2.69-33.85a.62.62,0,0,0-.65-.56h0a.63.63,0,0,0-.56.66l2.65,33.36Z" style="fill:#f69f24"/><path d="M204.28,125.6c3.9.47,2.17-5.1,5.45-5.1s5.32,4.52,9.28,1.66-2.45-5.23-1.3-7.52,7.36-1.69,7.36-5-5.45-2-6.33-4.1,4.24-2,3.41-5.16-7-1.37-8-4,5.17-9.52-2.12-11.62S205.3,89,199.8,89s-9.75-5.58-11.79-1.78,3.69,6.16,2.26,8.92-7.16-.13-7.16,3.26,6.94,2.84,6.94,5.68-7.26,3.77-6.05,7.49,9.13.58,9.13,3.55S184.94,119,188,123c3.62,4.69,8.71-1.46,11.2-.67S200.45,125.2,204.28,125.6Z" style="fill:#ee7765"/><path d="M169.53,120.54a7.83,7.83,0,0,1-7.21-1.28c-1.6-1.2-1-3.16-4.69-3.75s-4.88-3.15-4.56-5a6.83,6.83,0,0,0-2.15-6.41c-2.12-1.68-2.3-7.24,1.08-7.78s2.71-4,1.4-5.42,1.56-7.58,5.34-3.79,4.32-2.07,5.15-3.65c1.74-3.29,5.55-5.67,7.88,1.25s1.91-1,6.43-1,7.5,3,6.12,5.47-.7,5.18,1.77,5.47a3.52,3.52,0,0,1,2.09,5.69,2.57,2.57,0,0,0,1.39,4.45c1.82.36,3.87,5.54.88,7.22s-4.12,3.74-3.94,5.33c.5,4.53-3.21,5.92-7,5.69C174,122.69,174.62,118.65,169.53,120.54Z" style="fill:#f29284"/><path d="M50.57,115c6.1,0,13,6.1,23.37,6.1,6.19,0,7.52-6,7.52-8.32s-1.24-9.47-13.1-11.59-9.79-4.89-7.93-6,6.72-2.8,3.3-6.22c-8.67-8.68-18.93-6-17.51,2,.7,3.94,8.06,4.58,4.79,7.47s-8-9.85-15-7.28-3.81,8-9.21,8-7.08,6-4.43,10.09,7.35,7.71,15.23,7.71C41.45,116.9,47,115,50.57,115Z" style="fill:#ee7765"/></svg>